<ttFont>
          <CharString index="0">
            29 -89 29 -94 45 -118 rrcurveto
            -113 -61 rmoveto
            38 40 1 1 56 hvcurveto
            32 -92 15 -44 22 -56 rrcurveto
            -25 10 18 -2 15 hhcurveto
            13 21 10 10 14 hvcurveto
            -34 67 -38 99 -40 104 -47 121 -40 128 -25 81 rrcurveto
            51 -16 -9 2 -31 hhcurveto
            -11 -18 -1 -2 -13 hvcurveto
            -80 -277 -161 -331 -1 -33 rrcurveto
            -20 15 -11 45 -9 vhcurveto
            21 76 34 81 29 73 rrcurveto
            -1 50 38 -1 38 hhcurveto
            return
          </CharString>
          <CharString index="1">
            19 13 6 12 12 vvcurveto
            19 -12 14 -23 13 vhcurveto
            -100 -109 -56 -1 -39 vvcurveto
            -11 7 -10 9 -8 vhcurveto
            25 22 77 39 48 34 rrcurveto
            return
          </CharString>
          <CharString index="2">
            rmoveto
            -79 -67 79 128 99 64 69 77 43 49 -14 -34 37 hvcurveto
            -2 -65 -7 -88 -77 vvcurveto
            -19 0 -17 1 -17 vhcurveto
            -27 -28 -47 -17 -41 hhcurveto
            -14 -54 rmoveto
            50 45 18 33 40 hvcurveto
            -28 4 8 -16 31 hhcurveto
            19 14 5 3 6 hvcurveto
            -16 48 -3 66 58 vvcurveto
            101 8 89 4 40 vhcurveto
            46 -56 -75 22 -64 hhcurveto
            -119 -98 -89 -155 -140 94 -101 108 hvcurveto
            return
          </CharString>
          <CharString index="3">
            rmoveto
            188 120 134 207 210 -120 132 -188 -187 -119 -132 -210 -207 119 -134 187 hvcurveto
            224 323 rmoveto
            -150 -77 -112 -148 -163 -60 162 149 142 84 108 141 163 60 -158 -141 vhcurveto
            return
          </CharString>
          <CharString index="4">
            -23 -13 -12 -14 -19 vvcurveto
            -44 96 -28 78 -59 vhcurveto
            9 8 7 10 11 vvcurveto
            36 -65 12 -90 100 vhcurveto
            return
          </CharString>
          <CharString index="5">
            1 30 hhcurveto
            66 51 -5 -11 33 hvcurveto
            5 13 2 14 11 vvcurveto
            10 -2 8 -6 5 vhcurveto
            12 -15 -72 0 -49 hhcurveto
            -57 -56 -2 -5 -70 hvcurveto
            return
          </CharString>
          <CharString index="6">
            rmoveto
            156 100 103 162 163 -100 103 -156 -155 -99 -103 -163 -26 callgsubr
            hvcurveto
            176 251 rmoveto
            -113 -60 -84 -116 -128 -47 122 112 107 66 81 110 128 47 -119 -106 vhcurveto
            endchar
          </CharString>
          <CharString index="7">
            -35 -42 45 -36 hhcurveto
            -48 -50 -45 -35 -9 5 -7 11 -5 hvcurveto
            31 30 19 11 10 hhcurveto
            return
          </CharString>
          <CharString index="8">
            -96 callsubr
            106 8 102 19 -9 callgsubr
            return
          </CharString>
          <CharString index="9">
            33 27 26 37 36 -27 28 -33 -33 -28 -28 -36 -37 28 -26 33 hvcurveto
            return
          </CharString>
          <CharString index="10">
            rmoveto
            -104 callgsubr
            return
          </CharString>
          <CharString index="11">
            rmoveto
            -8 -10 -24 callgsubr
            hvcurveto
            5 -65 2 -82 -87 -25 callgsubr
            -73 callsubr
            12 15 -77 callgsubr
            71 64 return
          </CharString>
          <CharString index="12">
            52 -1 30 -2 18 vhcurveto
            1 28 31 -102 callsubr
            9 -49 3 -63 -66 vvcurveto
            -157 vlineto
            -50 -2 -57 -31 vvcurveto
            -30 -45 callsubr
            3 3 -27 callgsubr
            return
          </CharString>
          <CharString index="13">
            -2 -138 -53 -91 callgsubr
            return
          </CharString>
          <CharString index="14">
            12 80 -1 40 hhcurveto
            49 72 0 11 15 hvcurveto
            6 5 2 8 10 vvcurveto
            11 -2 14 -5 13 vhcurveto
            return
          </CharString>
          <CharString index="15">
            -12 -27 -76 -6 -70 hhcurveto
            -21 -19 1 1 -18 hvcurveto
            -6 33 0 39 122 vvcurveto
            71 hlineto
            24 12 0 1 21 hvcurveto
            return
          </CharString>
          <CharString index="16">
            hintmask 11100000
            -89 callgsubr
            return
          </CharString>
          <CharString index="17">
            hintmask 11100000
            -89 callsubr
            return
          </CharString>
          <CharString index="18">
            311 211 -107 callgsubr
            return
          </CharString>
          <CharString index="19">
            -77 callgsubr
            71 64 vvcurveto
            return
          </CharString>
          <CharString index="20">
            -1 15 95 -1 48 hhcurveto
            58 86 0 15 18 hvcurveto
            7 6 2 9 11 vvcurveto
            13 -2 16 -6 15 vhcurveto
            return
          </CharString>
          <CharString index="21">
            rmoveto
            13 -77 -127 6 -93 hhcurveto
            -55 -47 -4 -6 -25 hvcurveto
            -21 -6 -8 -12 -18 vvcurveto
            -15 5 -15 5 -12 vhcurveto
            19 77 92 8 81 hhcurveto
            59 24 -1 -5 39 hvcurveto
            -377 -481 rlineto
            -16 -20 -9 -22 -21 vvcurveto
            -17 6 -17 12 -16 vhcurveto
            -8 60 88 -4 81 hhcurveto
            60 56 2 4 40 hvcurveto
            42 4 30 5 34 vvcurveto
            11 -3 13 -7 18 vhcurveto
            -25 -95 -130 -7 -91 hhcurveto
            -37 -26 2 2 -18 hvcurveto
            404 505 rlineto
            11 14 6 17 15 vvcurveto
            15 -6 14 -10 11 vhcurveto
            endchar
          </CharString>
          <CharString index="22">
            rmoveto
            13 -56 -92 7 -67 hhcurveto
            -40 -34 -2 -6 -18 hvcurveto
            -20 -6 -5 -12 -1 -13 rrcurveto
            -16 4 -14 5 -12 vhcurveto
            18 54 65 6 57 hhcurveto
            42 38 -3 -3 28 hvcurveto
            -291 -299 rlineto
            -16 -16 -6 -18 -18 vvcurveto
            -20 7 -20 8 -11 vhcurveto
            -8 44 64 -4 59 hhcurveto
            45 43 2 5 33 hvcurveto
            26 4 26 5 30 vvcurveto
            16 -4 13 -5 10 vhcurveto
            -20 -77 -72 -10 -73 hhcurveto
            -22 -22 1 2 -23 hvcurveto
            295 307 rlineto
            12 12 5 17 17 vvcurveto
            17 -5 18 -11 11 vhcurveto
            endchar
          </CharString>
          <CharString index="23">
            2 18 41 3 19 hhcurveto
            -82 callsubr
            return
          </CharString>
          <CharString index="24">
            3 5 11 vhcurveto
            return
          </CharString>
          <CharString index="25">
            -169 -94 callsubr
            return
          </CharString>
          <CharString index="26">
            51 33 40 46 51 25 -58 -50 vhcurveto
            -503 -114 rmoveto
            -7 -9 -3 -7 -7 vvcurveto
            -18 23 -11 19 -6 vhcurveto
            38 54 49 65 53 68 264 338 rcurveline
            5 7 5 8 8 vvcurveto
            16 -23 15 -19 3 vhcurveto
            -37 -53 -50 -66 -53 -68 rrcurveto
            -258 -144 -88 callgsubr
            51 33 40 46 51 25 -58 -50 vhcurveto
            endchar
          </CharString>
          <CharString index="27">
            rmoveto
            -46 -34 -56 -53 -39 -47 rrcurveto
            return
          </CharString>
          <CharString index="28">
            rmoveto
            -4 -8 -2 -6 -6 vvcurveto
            -20 24 -10 25 vhcurveto
            25 61 34 72 39 78 144 289 94 185 40 82 rrcurveto
            14 29 7 12 8 vvcurveto
            21 -28 10 -21 vhcurveto
            -25 -60 -35 -74 -39 -78 rrcurveto
            return
          </CharString>
          <CharString index="29">
            -32 23 -22 28 return
          </CharString>
          <CharString index="30">
            47 vlineto
            94 13 53 66 32 35 -13 -18 20 vhcurveto
            9 12 11 16 19 vvcurveto
            24 -41 16 -47 -142 -22 -109 -141 vhcurveto
            return
          </CharString>
          <CharString index="31">
            -80 callsubr
            -105 callgsubr
            endchar
          </CharString>
          <CharString index="32">
            -39 -48 -67 -94 -21 vvcurveto
            -10 5 -7 15 -11 vhcurveto
            53 44 75 96 37 51 -37 51 -75 96 -53 44 rrcurveto
            -15 -11 -5 -7 -10 vvcurveto
            -21 67 -94 39 -48 vhcurveto
            return
          </CharString>
          <CharString index="33">
            14 -13 -12 9 -27 hhcurveto
            -14 -14 -1 -5 -15 hvcurveto
            15 -48 0 -63 -67 vvcurveto
            -156 vlineto
            -5 callsubr
            37 14 10 2 3 11 vhcurveto
            -15 43 -1 82 53 vvcurveto
            83 0 78 -2 75 vhcurveto
            95 -137 76 -143 78 -119 rrcurveto
            -16 11 17 -4 20 hhcurveto
            10 11 1 1 10 hvcurveto
            return
          </CharString>
          <CharString index="34">
            -39 9 -18 40 return
          </CharString>
          <CharString index="35">
            hlineto
            21 6 12 17 0 0 8 -2 7 hvcurveto
            -4 -46 -56 -1 return
          </CharString>
          <CharString index="36">
            -8 callgsubr
            -40 callsubr
            hvcurveto
            return
          </CharString>
          <CharString index="37">
            14 -35 5 -80 -97 -116 -5 -67 -29 -63 callgsubr
            -1 52 56 vvcurveto
            56 -1 74 -1 68 vhcurveto
            return
          </CharString>
          <CharString index="38">
            149 15 170 98 vvcurveto
            39 -19 12 -37 -15 -20 -4 -4 -10 vhcurveto
            return
          </CharString>
          <CharString index="39">
            -20 -70 callgsubr
            return
          </CharString>
          <CharString index="40">
            -50 callsubr
            hintmask 10000000
            -6 -51 -86 -1 -50 hhcurveto
            -142 hlineto
            hintmask 01100000
            -60 callgsubr
            hintmask 10000000
            -4 callsubr
            hhcurveto
            143 hlineto
            hintmask 01100000
            52 64 -8 35 hhcurveto
            22 14 19 23 hvcurveto
            endchar
          </CharString>
          <CharString index="41">
            -55 -29 18 122 22 0 97 2 108 hvcurveto
            52 44 0 1 34 hvcurveto
            -68 callgsubr
            return
          </CharString>
          <CharString index="42">
            -14 -13 -5 -22 -4 1 -6 2 -7 hvcurveto
            return
          </CharString>
          <CharString index="43">
            12 15 -83 callsubr
            return
          </CharString>
          <CharString index="44">
            196 111 10 131 67 -60 65 -97 return
          </CharString>
          <CharString index="45">
            -33 callsubr
            37 -64 callsubr
            -18 -5 callgsubr
            return
          </CharString>
          <CharString index="46">
            -49 -2 -181 0 vhcurveto
            -120 37 -71 115 47 42 18 29 9 -4 12 -14 15 vhcurveto
            -18 -18 -28 -12 -26 hhcurveto
            return
          </CharString>
          <CharString index="47">
            262 -10 -101 callgsubr
            return
          </CharString>
          <CharString index="48">
            2 -45 1 -59 -51 -82 -2 -74 -35 vvcurveto
            -43 hlineto
            -36 -17 -10 -21 -6 2 -7 3 -8 hvcurveto
            1 28 26 0 24 return
          </CharString>
          <CharString index="49">
            551 1 rmoveto
            -5 65 -2 81 86 vvcurveto
            171 vlineto
            105 8 100 19 vvcurveto
            30 -24 8 -25 -9 -5 0 -3 -17 vhcurveto
            -59 callgsubr
            vvcurveto
            0 0 -232 6 -80 vhcurveto
            -96 185 -149 254 -71 80 rrcurveto
            return
          </CharString>
          <CharString index="50">
            486 hmoveto
            -4 51 -1 63 67 vvcurveto
            134 vlineto
            82 6 78 14 vvcurveto
            24 -22 6 -24 -8 -5 0 -2 -16 vhcurveto
            4 -52 2 -66 -68 vvcurveto
            -15 0 -128 5 -72 vhcurveto
            -67 122 -123 201 -56 58 rrcurveto
            return
          </CharString>
          <CharString index="51">
            39 30 40 44 vhcurveto
            5 hlineto
            1 4 0 4 4 vvcurveto
            16 -6 14 -20 -65 -51 -88 -81 -69 32 -25 31 return
          </CharString>
          <CharString index="52">
            hintmask 11001000
            -53 callgsubr
            return
          </CharString>
          <CharString index="53">
            -202 -10 -250 -30 -63 callgsubr
            -2 52 56 vvcurveto
            56 2 60 2 71 vhcurveto
            40 36 65 26 37 hhcurveto
            44 45 -39 -63 hvcurveto
            -45 -6 -157 -67 vvcurveto
            return
          </CharString>
          <CharString index="54">
            433 113 rmoveto
            -45 -28 -51 -21 -48 hhcurveto
            -118 -61 104 123 110 68 85 99 43 52 -23 -53 20 hvcurveto
            36 6 19 18 22 vvcurveto
            48 -66 37 -87 -161 -102 -98 -168 return
          </CharString>
          <CharString index="55">
            66 35 -2 23 hhcurveto
            27 8 17 17 8 -2 6 -2 6 hvcurveto
            -2 -19 -26 -2 -31 hhcurveto
            endchar
          </CharString>
          <CharString index="56">
            -63 callsubr
            hvcurveto
            return
          </CharString>
          <CharString index="57">
            rmoveto
            11 0 10 -3 9 vhcurveto
            return
          </CharString>
          <CharString index="58">
            rmoveto
            27 -31 11 -38 2 vhcurveto
            -3 -37 -65 -123 -52 -72 -42 79 -48 76 -33 46 rrcurveto
            return
          </CharString>
          <CharString index="59">
            -64 -2 -64 -39 vvcurveto
            -39 9 -16 return
          </CharString>
          <CharString index="60">
            -50 -2 -58 -30 vvcurveto
            -31 return
          </CharString>
          <CharString index="61">
            2 -17 24 -9 20 -4 32 57 42 70 46 73 296 468 rcurveline
            4 6 3 8 7 vvcurveto
            18 -24 13 -21 1 vhcurveto
            -31 -56 -43 -71 -46 -73 rrcurveto
            return
          </CharString>
          <CharString index="62">
            9 27 callgsubr
            20 return
          </CharString>
          <CharString index="63">
            hhcurveto
            68 70 24 37 18 -14 15 -17 10 hvcurveto
            -38 -29 -41 -10 -36 hhcurveto
            -87 -60 65 91 -10 hvcurveto
            -63 callsubr
            return
          </CharString>
          <CharString index="64">
            66 72 22 41 17 -14 14 -17 10 hvcurveto
            -39 -31 -38 -9 -35 hhcurveto
            endchar
          </CharString>
          <CharString index="65">
            -43 -23 -3 -33 -7 1 -12 2 -6 hvcurveto
            26 2 32 4 35 1 rrcurveto
            return
          </CharString>
          <CharString index="66">
            vlineto
            183 7 144 20 -25 callsubr
            return
          </CharString>
          <CharString index="67">
            -7 0 -8 3 -15 return
          </CharString>
          <CharString index="68">
            56 373 56 return
          </CharString>
          <CharString index="69">
            19 12 6 13 12 vvcurveto
            19 -12 14 -23 13 vhcurveto
            -93 -103 -63 -7 -39 vvcurveto
            -11 7 -10 9 -8 vhcurveto
            25 22 78 39 47 34 rrcurveto
            return
          </CharString>
          <CharString index="70">
            rmoveto
            -45 54 76 -18 82 hhcurveto
            205 103 153 190 261 -166 79 -196 -56 -79 -8 -4 -20 hvcurveto
            12 -90 1 return
          </CharString>
          <CharString index="71">
            vlineto
            -48 callsubr
            return
          </CharString>
          <CharString index="72">
            0 55 50 vvcurveto
            return
          </CharString>
          <CharString index="73">
            -64 0 53 -33 -21 250 56 157 57 return
          </CharString>
          <CharString index="74">
            rmoveto
            -8 -11 -24 callgsubr
            hvcurveto
            -28 callsubr
            -116 vlineto
            -95 -4 callgsubr
            return
          </CharString>
          <CharString index="75">
            201 -10 61 561 61 return
          </CharString>
          <CharString index="76">
            2 64 7 59 4 51 rrcurveto
            4 -17 -12 2 -13 hhcurveto
            -13 -12 -2 -4 -18 hvcurveto
            4 -51 7 -59 2 -64 rrcurveto
            return
          </CharString>
          <CharString index="77">
            rmoveto
            -39 -30 -40 -44 vhcurveto
            -5 hlineto
            -1 -4 0 -4 -4 vvcurveto
            -16 6 -14 20 65 51 88 81 69 -32 25 -31 return
          </CharString>
          <CharString index="78">
            7 78 14 vvcurveto
            24 -23 6 -23 -9 -14 0 -2 -16 vhcurveto
            return
          </CharString>
          <CharString index="79">
            7 -46 1 -124 -119 vvcurveto
            return
          </CharString>
          <CharString index="80">
            -30 8 -13 34 -1 vhcurveto
            return
          </CharString>
          <CharString index="81">
            13 -10 54 375 56 return
          </CharString>
          <CharString index="82">
            vvcurveto
            30 -22 8 -24 return
          </CharString>
          <CharString index="83">
            -10 50 -48 -21 302 49 11 50 233 49 27 -20 hstemhm
            50 64 155 66 82 64 155 66 return
          </CharString>
          <CharString index="84">
            rlineto
            95 6 12 53 72 hhcurveto
            27 19 -11 -36 11 hvcurveto
            39 6 16 26 18 vvcurveto
            27 -25 25 -64 -139 return
          </CharString>
          <CharString index="85">
            rrcurveto
            8 hlineto
            hintmask 11101010
            52 106 24 57 20 -16 18 -27 6 hvcurveto
            -54 -38 -36 -15 -39 hhcurveto
            hintmask 11101100
            -10 return
          </CharString>
          <CharString index="86">
            -2 50 11 0 63 hhcurveto
            52 60 3 9 24 hvcurveto
            8 3 15 6 17 vvcurveto
            15 -7 16 -6 9 vhcurveto
            return
          </CharString>
          <CharString index="87">
            118 8 100 -81 callgsubr
            vvcurveto
            endchar
          </CharString>
          <CharString index="88">
            rlineto
            11 8 4 9 8 vvcurveto
            15 -14 14 -18 9 vhcurveto
            return
          </CharString>
          <CharString index="89">
            rmoveto
            19 13 6 12 12 vvcurveto
            19 -12 14 -23 13 vhcurveto
            return
          </CharString>
          <CharString index="90">
            -57 -7 -125 -20 vvcurveto
            -30 22 -8 24 8 6 0 3 16 vhcurveto
            -4 36 -4 37 119 vvcurveto
            return
          </CharString>
          <CharString index="91">
            338 675 rmoveto
            1 callsubr
            return
          </CharString>
          <CharString index="92">
            -41 -10 56 156 50 168 55 return
          </CharString>
          <CharString index="93">
            vlineto
            56 7 95 15 callgsubr
            -84 -40 vvcurveto
            return
          </CharString>
          <CharString index="94">
            rmoveto
            40 7 17 19 24 vvcurveto
            61 -106 29 -80 -118 -97 -61 -129 vhcurveto
            -241 344 return
          </CharString>
          <CharString index="95">
            -10 -8 -5 -8 -8 vvcurveto
            -15 15 -14 17 -10 vhcurveto
            return
          </CharString>
          <CharString index="96">
            -15 -18 -1 -1 -11 hvcurveto
            return
          </CharString>
          <CharString index="97">
            14 -39 callgsubr
            return
          </CharString>
          <CharString index="98">
            -47 -10 53 376 56 return
          </CharString>
          <CharString index="99">
            -12 callgsubr
            -74 -73 7 -20 hhcurveto
            -8 callgsubr
            return
          </CharString>
          <CharString index="100">
            hhcurveto
            hintmask 10100000
            -24 -45 1 7 -43 hvcurveto
            -4 -8 -6 -13 -13 vvcurveto
            hintmask 11000000
            -25 17 -19 return
          </CharString>
          <CharString index="101">
            rmoveto
            32 8 13 14 20 vvcurveto
            55 -85 24 -52 -81 -87 -51 -81 vhcurveto
            -191 258 return
          </CharString>
          <CharString index="102">
            -50 -1 -58 -30 vvcurveto
            -31 8 -13 return
          </CharString>
          <CharString index="103">
            4 44 52 4 106 return
          </CharString>
          <CharString index="104">
            rmoveto
            53 39 -38 -41 -85 -118 -4 -120 hvcurveto
            124 3 73 44 70 hhcurveto
            return
          </CharString>
          <CharString index="105">
            17 vvcurveto
            11 -8 5 -10 -2 -2 0 -1 -3 vhcurveto
            -18 -38 -18 -37 -20 -27 rrcurveto
            return
          </CharString>
          <CharString index="106">
            -21 32 46 -11 42 hhcurveto
            101 108 65 149 172 -131 44 -137 return
          </CharString>
          <CharString index="107">
            4 10 vhcurveto
            return
          </CharString>
          <CharString index="108">
            24 -41 16 -47 -142 -22 -109 -141 vhcurveto
            -11 callsubr
            return
          </CharString>
          <CharString index="109">
            56 16 0 36 7 -1 11 -2 5 hvcurveto
            return
          </CharString>
          <CharString index="110">
            133 -10 64 612 return
          </CharString>
          <CharString index="111">
            -21 669 -20 return
          </CharString>
          <CharString index="112">
            4 -51 2 return
          </CharString>
          <CharString index="113">
            30 24 23 34 32 -24 25 -30 -30 -25 -25 -32 -34 25 -23 30 hvcurveto
            return
          </CharString>
          <CharString index="114">
            56 65 109 147 35 vvcurveto
            endchar
          </CharString>
          <CharString index="115">
            -290 -14 callgsubr
            return
          </CharString>
          <CharString index="116">
            -22 8 -11 22 9 14 3 5 9 vhcurveto
            -2 18 -2 19 20 vvcurveto
            return
          </CharString>
          <CharString index="117">
            36 30 29 17 39 hhcurveto
            60 16 -28 -40 -57 -43 -19 -72 -6 hvcurveto
            return
          </CharString>
          <CharString index="118">
            32 26 22 28 11 -3 11 -7 11 return
          </CharString>
          <CharString index="119">
            7 6 vvcurveto
            20 -26 10 -20 1 vhcurveto
            return
          </CharString>
          <CharString index="120">
            vvcurveto
            7 -1 10 return
          </CharString>
          <CharString index="121">
            rmoveto
            27 6 16 18 20 vvcurveto
            57 -106 24 -52 vhcurveto
            hintmask 11101100
            -8 return
          </CharString>
          <CharString index="122">
            619 -18 callsubr
            return
          </CharString>
          <CharString index="123">
            103 75 103 return
          </CharString>
          <CharString index="124">
            52 rrcurveto
            23 -10 -14 12 -16 hhcurveto
            -17 -17 -8 -19 -21 hvcurveto
            return
          </CharString>
          <CharString index="125">
            -67 callgsubr
            64 0 84 49 vvcurveto
            208 return
          </CharString>
          <CharString index="126">
            hstemhm
            94 72 -72 235 return
          </CharString>
          <CharString index="127">
            47 54 -24 -41 15 vhcurveto
            return
          </CharString>
          <CharString index="128">
            227 -20 hstemhm
            45 return
          </CharString>
          <CharString index="129">
            69 -7 59 467 return
          </CharString>
          <CharString index="130">
            49 82 448 84 return
          </CharString>
          <CharString index="131">
            -253 -101 -21 864 -20 hstem
            129 113 rmoveto
            return
          </CharString>
          <CharString index="132">
            vvcurveto
            -2 -36 -39 -1 -39 hhcurveto
            -34 -38 1 2 -35 hvcurveto
            return
          </CharString>
          <CharString index="133">
            vvcurveto
            77 58 33 62 62 67 -31 -45 23 vhcurveto
            endchar
          </CharString>
          <CharString index="134">
            -4 9 vhcurveto
            hintmask 11110000
            -17 -8 -42 -6 -39 -3 rrcurveto
            return
          </CharString>
          <CharString index="135">
            39 callsubr
            -6 -52 return
          </CharString>
          <CharString index="136">
            4 callgsubr
            242 66 -66 206 return
          </CharString>
          <CharString index="137">
            hhcurveto
            114 63 -33 -129 -88 -53 -58 -92 hvcurveto
            return
          </CharString>
          <CharString index="138">
            13 4 5 12 15 vvcurveto
            13 -4 11 -4 8 vhcurveto
            return
          </CharString>
          <CharString index="139">
            51 175 239 -181 -21 151 51 return
          </CharString>
          <CharString index="140">
            vvcurveto
            -81 -67 -37 -69 -66 -77 34 50 -26 vhcurveto
            return
          </CharString>
          <CharString index="141">
            -20 hstemhm
            70 157 -58 58 return
          </CharString>
          <CharString index="142">
            161 -67 67 -67 241 return
          </CharString>
          <CharString index="143">
            -39 callsubr
            hstem
            45 70 return
          </CharString>
          <CharString index="144">
            -73 callsubr
            15 21 -83 callsubr
            return
          </CharString>
          <CharString index="145">
            -20 hstem
            45 70 295 70 vstem
            410 return
          </CharString>
          <CharString index="146">
            22 14 19 23 11 0 10 -3 9 hvcurveto
            return
          </CharString>
          <CharString index="147">
            34 -16 9 -27 -14 -14 -3 -3 -14 vhcurveto
            return
          </CharString>
          <CharString index="148">
            -169 -4 callgsubr
            return
          </CharString>
          <CharString index="149">
            22 -6 18 -29 vhcurveto
            endchar
          </CharString>
        <CharString name=".notdef">
          -281 endchar
        </CharString>
        <CharString name="A">
          -52 callgsubr
          hstem
          -89 callgsubr
          endchar
        </CharString>
        <CharString name="AE">
          253 0 60 -49 -21 219 57 58 63 215 64 hstemhm
          356 77 hintmask 01111100
          353 578 rmoveto
          3 -45 2 -59 -50 vvcurveto
          -158 -40 vlineto
          -39 -42 1 1 -39 hvcurveto
          63 116 50 114 42 80 rrcurveto
          76 21 rmoveto
          2 38 35 1 37 hhcurveto
          81 64 -6 -15 41 hvcurveto
          6 15 2 16 13 vvcurveto
          11 -2 9 -7 6 vhcurveto
          15 -18 -86 0 -58 hhcurveto
          -76 -83 -3 -9 -89 hvcurveto
          -50 -121 -58 -115 -52 -97 rrcurveto
          -63 -118 -91 -152 -20 vvcurveto
          -21 14 -13 45 -7 vhcurveto
          29 76 40 70 38 73 rrcurveto
          -1 50 38 -1 36 hhcurveto
          68 hlineto
          -1 -58 -1 -57 -35 vvcurveto
          hintmask 10111100
          -39 9 -16 40 -2 vhcurveto
          -87 callsubr
          -103 callgsubr
          endchar
        </CharString>
        <CharString name="AEsmall">
          138 0 53 -48 -21 173 53 39 56 157 57 hstemhm
          294 74 -74 237 hintmask 01111100
          296 157 rmoveto
          -1 -43 -1 -43 -27 -11 callgsubr
          -93 callsubr
          -12 -27 -76 -6 -70 hhcurveto
          -21 -19 1 1 -18 hvcurveto
          hintmask 10111010
          -6 33 0 39 122 vvcurveto
          71 hlineto
          24 12 0 1 21 hvcurveto
          hintmask 10111100
          -80 callgsubr
          -40 callgsubr
          1 25 34 1 30 hhcurveto
          66 51 -5 -11 33 hvcurveto
          5 13 2 14 11 vvcurveto
          10 -2 8 -6 5 vhcurveto
          12 -15 -72 0 -49 hhcurveto
          -47 -125 -3 -7 -29 hvcurveto
          -172 -346 -94 -112 -28 vvcurveto
          -15 7 -15 46 -9 vhcurveto
          26 57 37 61 32 57 rrcurveto
          -1 38 30 -1 29 hhcurveto
          51 53 rmoveto
          -26 hlineto
          -31 -30 1 1 -30 hvcurveto
          47 78 39 77 29 55 rrcurveto
          1 -29 1 -30 -30 vvcurveto
          endchar
        </CharString>
        <CharString name="Aacute">
          -52 callgsubr
          94 -21 178 -20 hstemhm
          235 191 hintmask 00011100
          401 811 rmoveto
          -106 callsubr
          -13 -543 -83 callgsubr
          rrcurveto
          hintmask 11100000
          -107 callsubr
          endchar
        </CharString>
        <CharString name="Aacutesmall">
          -35 -47 callgsubr
          250 -20 hstem
          179 191 vstem
          345 664 rmoveto
          -106 callsubr
          -34 -453 -107 callgsubr
          endchar
        </CharString>
        <CharString name="Acircumflex">
          -52 callgsubr
          89 -21 160 -20 hstemhm
          hintmask 00011000
          303 871 -80 callsubr
          -105 callgsubr
          85 -603 -83 callgsubr
          rrcurveto
          hintmask 11100000
          -107 callsubr
          endchar
        </CharString>
        <CharString name="Acircumflexsmall">
          -35 5 -21 533 -20 75 -20 172 -20 hstem
          235 724 -80 callsubr
          -105 callgsubr
          76 -513 -107 callgsubr
          endchar
        </CharString>
        <CharString name="Acutesmall">
          -35 -47 callgsubr
          82 -17 callgsubr
          -90 callsubr
          146 502 -86 callgsubr
          hintmask 00010000
          -100 callsubr
          hintmask 00001000
          37 36 -45 41 hhcurveto
          hintmask 00010000
          43 callgsubr
        </CharString>
        <CharString name="Adieresis">
          -52 callgsubr
          69 107 hstemhm
          135 16 callsubr
          -91 callsubr
          89 505 -97 callsubr
          hvcurveto
          hintmask 00011100
          -102 callgsubr
        </CharString>
        <CharString name="Adieresissmall">
          -35 -47 callgsubr
          65 107 hstemhm
          90 16 callsubr
          -90 callsubr
          92 405 -97 callsubr
          hvcurveto
          hintmask 00011100
          -102 callgsubr
        </CharString>
        <CharString name="Agrave">
          -52 callgsubr
          95 -21 177 -20 hstemhm
          162 190 hintmask 00011100
          197 894 rmoveto
          -103 callsubr
          191 -626 -83 callgsubr
          rrcurveto
          hintmask 11100000
          -107 callsubr
          endchar
        </CharString>
        <CharString name="Agravesmall">
          -35 -47 callgsubr
          250 -20 hstem
          93 190 vstem
          128 747 rmoveto
          -103 callsubr
          183 -536 -107 callgsubr
          endchar
        </CharString>
        <CharString name="Aring">
          -52 callgsubr
          69 33 112 33 hstemhm
          209 42 92 42 hintmask 00011110
          298 712 -84 callgsubr
          45 -528 -83 callgsubr
          rrcurveto
          hintmask 11100000
          -107 callsubr
          endchar
        </CharString>
        <CharString name="Aringsmall">
          -35 -47 callgsubr
          68 33 112 33 hstem
          141 42 92 42 vstem
          230 565 -84 callgsubr
          36 -438 -107 callgsubr
          endchar
        </CharString>
        <CharString name="Asmall">
          -44 -47 callgsubr
          hstem
          -89 callsubr
          endchar
        </CharString>
        <CharString name="Atilde">
          -52 callgsubr
          75 -17 callgsubr
          -91 callsubr
          163 591 -86 callgsubr
          hintmask 00010000
          -100 callsubr
          hintmask 00001000
          37 36 -45 41 hhcurveto
          hintmask 00010000
          43 callgsubr
        </CharString>
        <CharString name="Atildesmall">
          -35 -47 callgsubr
          78 -17 callgsubr
          hintmask 11110000
          381 655 -86 callgsubr
          hintmask 11101000
          -100 callsubr
          hintmask 11110000
          -64 callgsubr
          -70 -444 -107 callgsubr
          endchar
        </CharString>
        <CharString name="B">
          36 -10 61 280 50 231 61 hstemhm
          85 75 241 77 -53 53 -53 77 hintmask 11110010
          224 612 rmoveto
          hintmask 11110100
          85 92 -19 -98 -92 -90 -22 -96 -18 -21 1 1 -16 hvcurveto
          171 -2 12 -2 42 vhcurveto
          2 22 24 2 22 hhcurveto
          48 -561 rmoveto
          -46 -55 17 19 -25 hvcurveto
          5 61 8 84 94 vvcurveto
          4 24 39 1 32 hhcurveto
          90 81 -46 -98 -88 -71 -48 -82 hvcurveto
          -203 2 rmoveto
          -49 59 85 -14 77 hhcurveto
          112 100 69 132 89 -38 51 -73 31 hvcurveto
          hintmask 11111000
          56 25 31 47 67 vvcurveto
          133 -119 39 -128 -32 -59 -1 -11 -68 vhcurveto
          9 -61 4 -105 -108 vvcurveto
          -129 -6 -134 -10 -71 vhcurveto
          endchar
        </CharString>
        <CharString name="Bsmall">
          -23 -7 53 209 44 171 54 hstemhm
          83 72 181 77 -57 57 -57 76 hintmask 11110010
          203 470 rmoveto
          hintmask 11110100
          64 69 -14 -73 -67 -67 -17 -72 -14 -16 1 1 -12 hvcurveto
          108 -1 27 -2 31 vhcurveto
          1 17 17 2 17 hhcurveto
          36 -424 rmoveto
          -34 -42 14 14 -19 hvcurveto
          4 35 7 85 57 vvcurveto
          3 18 29 1 25 hhcurveto
          67 62 -34 -73 -66 -54 -36 -63 hvcurveto
          -169 -5 rmoveto
          -38 50 71 -10 64 hhcurveto
          94 83 53 102 70 -31 40 -60 24 hvcurveto
          hintmask 11111000
          46 19 26 37 52 vvcurveto
          104 -100 30 -107 -27 -50 0 -9 -56 vhcurveto
          7 -47 3 -82 -85 vvcurveto
          -100 -5 -105 -8 -55 vhcurveto
          endchar
        </CharString>
        <CharString name="C">
          91 -10 61 561 61 hstem
          49 82 vstem
          514 134 rmoveto
          -57 -33 -61 -26 -61 hhcurveto
          -150 -73 callgsubr
          -203 122 -139 189 117 81 50 45 25 -22 15 -22 9 vhcurveto
          endchar
        </CharString>
        <CharString name="Ccedilla">
          91 -232 45 177 61 561 61 hstemhm
          49 82 185 122 -61 61 hintmask 11111000
          514 134 rmoveto
          -57 -33 -61 -26 -61 hhcurveto
          -150 -73 callgsubr
          -191 108 -135 170 -14 vhcurveto
          -9 -24 -2 -18 -4 vvcurveto
          hintmask 11110100
          -90 callgsubr
          5 2 7 2 8 vhcurveto
          113 3 77 48 44 vvcurveto
          25 -22 15 -22 9 vhcurveto
          endchar
        </CharString>
        <CharString name="Ccedillasmall">
          11 -232 45 180 54 422 55 hstemhm
          48 79 139 122 -61 61 hintmask 11111000
          -53 callsubr
          -148 89 -103 141 -12 vhcurveto
          -9 -25 -3 -20 -4 vvcurveto
          hintmask 11110100
          -90 callgsubr
          6 2 8 3 9 vhcurveto
          91 3 62 34 38 vvcurveto
          20 -19 17 -20 8 vhcurveto
          endchar
        </CharString>
        <CharString name="Csmall">
          5 -7 54 422 55 hstem
          48 79 vstem
          -53 callsubr
          -158 102 -107 157 98 67 36 39 20 -19 17 -20 8 vhcurveto
          endchar
        </CharString>
        <CharString name="D">
          124 -10 61 561 61 hstem
          82 75 345 84 vstem
          66 53 -37 callsubr
          -92 -90 vvcurveto
          -1 -121 -3 -137 -12 -78 rrcurveto
          87 555 -30 callgsubr
          11 107 3 132 119 vvcurveto
          57 -1 54 -3 52 vhcurveto
          endchar
        </CharString>
        <CharString name="Delta">
          152 0 60 583 -20 hstem
          110 70 rmoveto
          109 256 37 81 66 148 25 -70 32 -80 143 -335 rrcurveto
          -7 -43 -59 -3 -101 hhcurveto
          -115 -50 3 7 -44 hvcurveto
          -70 -30 rmoveto
          -25 7 -15 21 vhcurveto
          527 hlineto
          23 5 19 21 hvcurveto
          -22 49 -201 464 -37 87 rrcurveto
          1 -6 -10 2 -10 hhcurveto
          -17 -18 -4 -18 -7 hvcurveto
          -79 -198 -90 -189 -86 -194 rrcurveto
          endchar
        </CharString>
        <CharString name="Dsmall">
          41 -7 55 422 54 hstem
          83 72 269 80 vstem
          70 -37 callgsubr
          -72 -70 vvcurveto
          -1 -94 -2 -107 -10 -61 rrcurveto
          82 426 rmoveto
          -21 callgsubr
          9 81 2 98 90 vvcurveto
          43 0 40 -3 40 vhcurveto
          endchar
        </CharString>
        <CharString name="E">
          -48 callgsubr
          hstemhm
          80 75 hintmask 10111000
          151 599 -100 callgsubr
          hintmask 01111000
          -87 callsubr
          hintmask 10111000
          -103 callgsubr
          endchar
        </CharString>
        <CharString name="Eacute">
          -48 callgsubr
          233 -20 hstemhm
          80 75 55 191 hintmask 10111110
          376 816 rmoveto
          -106 callsubr
          -225 -217 -100 callgsubr
          hintmask 01111110
          -87 callsubr
          hintmask 10111110
          -103 callgsubr
          endchar
        </CharString>
        <CharString name="Eacutesmall">
          -34 callsubr
          228 -20 19 callsubr
          -118 198 hintmask 10111101
          377 664 rmoveto
          -106 callsubr
          -214 -204 rmoveto
          1 25 34 -102 callsubr
          9 -49 3 -64 -66 vvcurveto
          -153 vlineto
          -50 -2 -54 -32 -11 callgsubr
          hintmask 01111101
          -93 callsubr
          hintmask 10111101
          -92 callsubr
          hintmask 10111010
          -80 callgsubr
          hintmask 10111101
          -40 callgsubr
          endchar
        </CharString>
        <CharString name="Ecircumflex">
          -48 callgsubr
          203 -20 hstemhm
          80 75 hintmask 10111100
          251 869 -80 callsubr
          -105 callgsubr
          -100 -270 -100 callgsubr
          hintmask 01111100
          -87 callsubr
          hintmask 10111100
          -103 callgsubr
          endchar
        </CharString>
        <CharString name="Ecircumflexsmall">
          -64 0 53 -33 -21 54 196 0 56 157 57 0 53 152 -20 hstemhm
          94 72 hintmask 10011011
          242 724 -80 callsubr
          -105 callgsubr
          -79 -264 rmoveto
          1 25 34 -102 callsubr
          9 -49 3 -64 -66 vvcurveto
          -153 vlineto
          -50 -2 -54 -32 -11 callgsubr
          hintmask 01011011
          -93 callsubr
          hintmask 01101011
          -92 callsubr
          22 1 13 6 29 13 callsubr
          -2 5 vhcurveto
          hintmask 10010111
          -3 -29 -17 0 -50 hhcurveto
          -40 callgsubr
          endchar
        </CharString>
        <CharString name="Edieresis">
          -48 callgsubr
          46 107 hstemhm
          80 75 -53 16 callsubr
          hintmask 10110100
          151 599 -100 callgsubr
          hintmask 01110100
          -87 callsubr
          hintmask 10110100
          -103 callgsubr
          180 113 -97 callsubr
          hvcurveto
          hintmask 00001011
          -102 callgsubr
        </CharString>
        <CharString name="Edieresissmall">
          -34 callsubr
          43 107 hstemhm
          93 103 -102 72 -72 235 -58 103 hintmask 0000110010000000
          322 562 -97 callsubr
          -78 callsubr
          hvcurveto
          -178 hmoveto
          -104 callgsubr
          -78 callsubr
          hvcurveto
          19 -102 rmoveto
          1 25 34 -102 callsubr
          9 -49 3 -64 -66 vvcurveto
          -153 vlineto
          -50 -2 -54 -32 -11 callgsubr
          hintmask 1011001000000000
          -93 callsubr
          hintmask 0111001000000000
          -92 callsubr
          hintmask 1011001000000000
          -80 callgsubr
          hintmask 1011000100000000
          -64 hlineto
          hintmask 1011001000000000
          87 0 44 -3 24 vhcurveto
          endchar
        </CharString>
        <CharString name="Egrave">
          -48 callgsubr
          233 -20 hstemhm
          80 75 -55 190 hintmask 10111100
          135 899 rmoveto
          hintmask 01111100
          -103 callsubr
          16 -300 -100 callgsubr
          hintmask 10111100
          -87 callsubr
          hintmask 10111010
          -103 callgsubr
          endchar
        </CharString>
        <CharString name="Egravesmall">
          -34 callsubr
          228 -20 hstemhm
          94 72 -72 197 -197 235 hintmask 10111100
          136 747 25 callgsubr
          hintmask 01111100
          9 8 7 10 11 vvcurveto
          36 -65 12 -90 100 vhcurveto
          27 -287 rmoveto
          1 25 34 -102 callsubr
          9 -49 3 -64 -66 vvcurveto
          -153 vlineto
          -50 -2 -54 -32 -11 callgsubr
          hintmask 10111100
          -93 callsubr
          hintmask 10111001
          -92 callsubr
          hintmask 10111100
          -80 callgsubr
          hintmask 10111010
          -40 callgsubr
          endchar
        </CharString>
        <CharString name="Esmall">
          -34 callsubr
          hstemhm
          94 72 -72 235 hintmask 10111000
          163 460 rmoveto
          1 25 34 -102 callsubr
          9 -49 3 -64 -66 vvcurveto
          -153 vlineto
          -50 -2 -54 -32 -11 callgsubr
          hintmask 01111000
          -93 callsubr
          hintmask 10111000
          -92 callsubr
          hintmask 10110100
          -80 callgsubr
          hintmask 10111000
          -40 callgsubr
          endchar
        </CharString>
        <CharString name="Eth">
          124 -10 61 273 62 226 61 hstemhm
          -16 172 -74 74 346 84 hintmask 11101100
          153 608 -30 callgsubr
          7 71 4 83 2 83 rrcurveto
          50 56 0 1 33 hvcurveto
          38 1 6 16 23 vvcurveto
          11 -1 6 -3 9 vhcurveto
          -4 -31 -43 0 -40 hhcurveto
          -64 58 hlineto
          57 -1 54 -3 52 vhcurveto
          -87 -555 -37 callsubr
          -81 -103 vvcurveto
          -21 -19 -1 -14 hhcurveto
          hintmask 11110100
          -38 -1 -6 -16 -23 vvcurveto
          -11 1 -6 3 -9 vhcurveto
          3 26 34 1 33 hhcurveto
          -1 -103 -4 -104 -10 -64 rrcurveto
          endchar
        </CharString>
        <CharString name="Ethsmall">
          23 -7 55 201 55 166 54 hstemhm
          -20 144 -73 212 130 80 hintmask 11101100
          39 -37 callgsubr
          -71 -69 vvcurveto
          -12 -12 -1 -13 hhcurveto
          hintmask 11110100
          -22 -1 -13 -6 -29 vvcurveto
          -7 1 -10 2 -5 vhcurveto
          2 22 18 1 28 hhcurveto
          -1 -79 -3 -80 -8 -49 rrcurveto
          85 264 rmoveto
          hintmask 11101100
          39 vlineto
          43 0 40 -3 40 vhcurveto
          -21 callgsubr
          6 53 2 60 2 61 rrcurveto
          48 hlineto
          24 12 0 1 21 hvcurveto
          hintmask 11110100
          -80 callgsubr
          endchar
        </CharString>
        <CharString name="Euro">
          -9 57 205 39 71 39 215 56 hstem
          89 334 rmoveto
          -15 0 -14 1 -13 vhcurveto
          -47 hlineto
          -65 callsubr
          37 3 5 1 34 1 rrcurveto
          -192 29 135 -70 -6 callgsubr
          -102 61 144 -28 hvcurveto
          262 -72 callsubr
          -60 hhcurveto
          -130 hlineto
          -1 13 -1 13 14 vvcurveto
          10 0 11 1 10 vhcurveto
          268 -72 callsubr
          -60 hhcurveto
          -127 hlineto
          150 25 105 65 82 hhcurveto
          58 29 -15 -21 29 hvcurveto
          15 9 7 19 17 vvcurveto
          37 -70 10 -62 -127 -137 -75 -196 -26 vhcurveto
          -50 hlineto
          -65 callsubr
          35 3 6 1 30 1 rrcurveto
          -1 -10 0 -9 -10 vvcurveto
          endchar
        </CharString>
        <CharString name="Eurooldstyle">
          -10 57 170 39 61 39 168 56 hstem
          97 286 rmoveto
          -11 0 -10 1 -9 vhcurveto
          -47 hlineto
          -65 callsubr
          37 3 5 1 33 1 rrcurveto
          -167 28 127 -60 -6 callgsubr
          -94 51 119 -26 hvcurveto
          252 -72 callsubr
          -124 hhcurveto
          -57 hlineto
          -1 9 0 10 10 vvcurveto
          11 0 10 1 11 vhcurveto
          258 -72 callsubr
          -60 hhcurveto
          -115 hlineto
          117 27 94 51 79 hhcurveto
          58 29 -15 -22 29 hvcurveto
          15 9 7 19 17 vvcurveto
          38 -70 10 -62 -124 -126 -63 -161 -28 vhcurveto
          -52 hlineto
          -65 callsubr
          35 3 6 1 30 1 rrcurveto
          -1 -10 0 -11 -10 vvcurveto
          endchar
        </CharString>
        <CharString name="F">
          -56 18 -21 317 63 225 64 hstem
          80 75 vstem
          155 314 rmoveto
          113 hlineto
          71 19 0 41 8 -1 12 -3 6 hvcurveto
          -4 -37 -18 0 -65 hhcurveto
          -79 103 hlineto
          58 -2 39 -2 22 vhcurveto
          2 38 35 1 37 hhcurveto
          81 64 -6 -15 41 hvcurveto
          6 15 2 16 13 vvcurveto
          11 -2 9 -7 6 vhcurveto
          15 -18 -86 0 -58 hhcurveto
          -69 -66 -2 -7 -83 hvcurveto
          10 -64 4 -83 -86 vvcurveto
          -193 vlineto
          -96 callgsubr
          endchar
        </CharString>
        <CharString name="Fsmall">
          -102 17 -18 callgsubr
          hintmask 11110000
          34 callgsubr
          hintmask 11101000
          2 callsubr
          -3 -29 -16 0 -51 hhcurveto
          hintmask 11110000
          -64 63 hlineto
          -95 callsubr
          endchar
        </CharString>
        <CharString name="G">
          104 -10 61 561 61 hstem
          49 82 356 71 vstem
          558 85 rmoveto
          89 7 74 18 vvcurveto
          30 -24 8 -25 -9 -10 0 -3 -17 vhcurveto
          4 -58 2 -70 1 -74 rrcurveto
          -33 -34 -48 -15 -47 hhcurveto
          -149 -73 callgsubr
          -203 122 -139 189 117 81 50 45 vhcurveto
          endchar
        </CharString>
        <CharString name="Gsmall">
          17 -7 54 -54 248 228 55 hstemhm
          48 79 276 69 hintmask 01111000
          472 66 rmoveto
          71 6 60 15 vvcurveto
          23 -23 6 -24 -8 -10 0 -2 -16 vhcurveto
          3 -47 2 -55 1 -59 rrcurveto
          hintmask 10111000
          -21 -27 -37 -10 -36 hhcurveto
          -116 -60 104 123 110 68 85 99 44 50 -22 -54 21 hvcurveto
          31 5 24 15 26 vvcurveto
          48 -67 37 -86 -161 -102 -98 -168 -158 102 -107 157 98 67 38 35 vhcurveto
          endchar
        </CharString>
        <CharString name="H">
          116 18 -21 333 59 277 -20 hstem
          73 75 319 75 vstem
          73 231 rmoveto
          -96 callgsubr
          129 vlineto
          -2 48 67 0 47 hhcurveto
          45 61 0 2 51 hvcurveto
          -101 vlineto
          -93 callgsubr
          105 8 100 19 -92 callgsubr
          4 -56 2 -68 1 -97 rrcurveto
          -51 vlineto
          -2 -48 -65 0 -44 hhcurveto
          -47 -67 0 2 -48 hvcurveto
          -20 callsubr
        </CharString>
        <CharString name="Hsmall">
          75 19 -21 255 53 213 -20 hstem
          97 72 248 72 vstem
          97 180 rmoveto
          -47 callsubr
          8 -13 38 29 callgsubr
          96 vlineto
          -1 41 46 0 38 hhcurveto
          37 44 0 1 42 hvcurveto
          -74 vlineto
          -47 callsubr
          8 -13 38 29 callgsubr
          157 vlineto
          82 7 78 14 vvcurveto
          24 -24 6 -23 -12 -14 -1 -2 -12 vhcurveto
          3 -48 2 -58 1 -71 rrcurveto
          -32 vlineto
          -1 -41 -45 0 -36 hhcurveto
          -38 -46 0 1 -42 hvcurveto
          86 7 82 14 vvcurveto
          24 -24 6 -23 -11 -15 -1 -2 -12 5 callgsubr
          -62 -67 vvcurveto
          endchar
        </CharString>
        <CharString name="I">
          8 callsubr
          hstem
          73 75 vstem
          73 231 rmoveto
          -93 callgsubr
          105 8 100 -81 callgsubr
          vvcurveto
          endchar
        </CharString>
        <CharString name="Iacute">
          8 callsubr
          253 -20 hstemhm
          73 75 -75 194 hintmask 11110000
          73 231 rmoveto
          -93 callgsubr
          105 8 100 -81 callgsubr
          vvcurveto
          169 385 rmoveto
          hintmask 11101000
          -106 callsubr
          endchar
        </CharString>
        <CharString name="Iacutesmall">
          8 callgsubr
          248 -20 hstemhm
          74 191 -167 72 hintmask 11101000
          98 180 rmoveto
          -47 callsubr
          9 -13 37 29 callgsubr
          157 vlineto
          82 7 78 14 vvcurveto
          24 -24 6 -23 -11 -15 -1 -2 -12 5 callgsubr
          -62 -67 vvcurveto
          142 328 -18 callsubr
          hintmask 11110000
          -100 -109 -56 -1 -39 vvcurveto
          -11 7 -10 9 -8 vhcurveto
          25 22 77 39 48 34 rrcurveto
          endchar
        </CharString>
        <CharString name="Icircumflex">
          8 callsubr
          223 -20 hstem
          73 75 vstem
          73 231 rmoveto
          -93 callgsubr
          105 8 100 -81 callgsubr
          vvcurveto
          44 438 -76 callsubr
        </CharString>
        <CharString name="Icircumflexsmall">
          8 callgsubr
          73 -20 172 -20 hstem
          98 72 vstem
          98 180 rmoveto
          -47 callsubr
          9 -13 37 29 callgsubr
          157 vlineto
          82 7 78 14 vvcurveto
          24 -24 6 -23 -11 -15 -1 -2 -12 5 callgsubr
          -62 -67 vvcurveto
          40 388 -76 callsubr
        </CharString>
        <CharString name="Idieresis">
          8 callsubr
          66 107 hstemhm
          -33 103 3 75 -3 103 hintmask 11111000
          73 231 rmoveto
          -93 callgsubr
          105 8 100 -81 callgsubr
          vvcurveto
          -55 281 -97 callsubr
          -78 callsubr
          hvcurveto
          178 hmoveto
          26 26 22 32 30 -23 23 -27 hvcurveto
          hintmask 11110100
          -28 -25 -23 -30 -78 callsubr
          hvcurveto
          endchar
        </CharString>
        <CharString name="Idieresissmall">
          8 callgsubr
          63 107 hstem
          -7 103 2 72 1 103 vstem
          98 180 rmoveto
          -47 callsubr
          9 -13 37 29 callgsubr
          157 vlineto
          82 7 78 14 vvcurveto
          24 -24 6 -23 -11 -15 -1 -2 -12 5 callgsubr
          -62 -67 vvcurveto
          124 226 -97 callsubr
          -78 callsubr
          hvcurveto
          -178 hmoveto
          -104 callgsubr
          -78 callsubr
          hvcurveto
          endchar
        </CharString>
        <CharString name="Igrave">
          8 callsubr
          253 -20 hstemhm
          -34 182 -75 75 hintmask 11110000
          hintmask 11101000
          73 231 rmoveto
          -93 callgsubr
          105 8 100 -81 callgsubr
          vvcurveto
          -72 468 rmoveto
          hintmask 11110000
          -103 callsubr
          endchar
        </CharString>
        <CharString name="Igravesmall">
          8 callgsubr
          248 -20 hstemhm
          4 190 -96 72 hintmask 11101000
          98 180 rmoveto
          -47 callsubr
          9 -13 37 29 callgsubr
          157 vlineto
          82 7 78 14 vvcurveto
          24 -24 6 -23 -11 -15 -1 -2 -12 5 callgsubr
          -62 -67 vvcurveto
          -59 411 25 callgsubr
          hintmask 11110000
          9 8 7 10 11 vvcurveto
          36 -65 12 -90 100 vhcurveto
          endchar
        </CharString>
        <CharString name="Ismall">
          8 callgsubr
          hstem
          98 72 vstem
          98 180 rmoveto
          -47 callsubr
          9 -13 37 29 callgsubr
          157 vlineto
          82 7 78 14 vvcurveto
          24 -24 6 -23 -11 -15 -1 -2 -12 5 callgsubr
          -62 -67 vvcurveto
          endchar
        </CharString>
        <CharString name="J">
          -289 -98 -21 785 -20 hstem
          73 75 vstem
          3 -119 rmoveto
          32 113 37 193 hvcurveto
          310 vlineto
          99 8 90 18 -92 callgsubr
          -59 callgsubr
          -96 1 -146 -53 vvcurveto
          -125 -2 -50 -110 -23 vhcurveto
          -32 2 10 -25 29 hhcurveto
          endchar
        </CharString>
        <CharString name="J_alt">
          -226 -142 60 748 -20 hstem
          136 77 vstem
          170 666 rmoveto
          -9 -15 0 -3 -17 hvcurveto
          -59 callgsubr
          -247 -1 -77 -55 vvcurveto
          -100 -55 -34 -56 -49 -43 17 32 -32 vhcurveto
          -21 -15 -9 -15 -18 vvcurveto
          -35 65 -26 71 127 80 71 131 vhcurveto
          14 -2 215 132 99 8 90 18 vvcurveto
          30 -24 8 -25 vhcurveto
          endchar
        </CharString>
        <CharString name="Jsmall">
          -253 -71 -21 611 -20 hstem
          97 73 vstem
          43 -92 rmoveto
          35 92 33 145 hvcurveto
          242 vlineto
          77 6 70 14 vvcurveto
          24 -23 6 -23 -8 -14 0 -3 -17 vhcurveto
          5 -51 1 -62 -67 -79 1 -95 -64 vvcurveto
          -86 -2 -33 -86 -17 vhcurveto
          -32 1 10 -22 22 hhcurveto
          endchar
        </CharString>
        <CharString name="K">
          4 11 -21 676 -20 hstem
          73 75 vstem
          100 666 rmoveto
          -6 -15 -1 -2 -13 hvcurveto
          -59 callgsubr
          vvcurveto
          -200 vlineto
          -25 callgsubr
          -38 9 -19 39 16 22 3 5 10 vhcurveto
          -19 63 0 71 64 vvcurveto
          98 vlineto
          11 7 8 7 5 4 52 -79 78 -130 64 -69 rrcurveto
          -35 32 29 -16 29 hhcurveto
          31 28 14 29 9 -2 9 -2 7 hvcurveto
          -3 -11 -6 0 -6 hhcurveto
          -37 -16 20 22 -18 hvcurveto
          -52 64 -81 126 -50 83 rrcurveto
          114 95 120 119 42 vvcurveto
          16 -17 16 -35 6 vhcurveto
          -27 -80 -153 -139 -88 -71 rrcurveto
          125 8 110 19 vvcurveto
          32 -25 6 -31 vhcurveto
          endchar
        </CharString>
        <CharString name="Ksmall">
          -51 13 -21 527 -20 hstem
          88 72 vstem
          225 279 rmoveto
          91 75 90 101 28 vvcurveto
          17 -14 13 -36 5 vhcurveto
          -20 -60 -100 -99 -76 -53 rrcurveto
          91 7 78 14 vvcurveto
          24 -24 6 -23 -11 -15 -1 -2 -12 5 callgsubr
          -62 -67 vvcurveto
          -156 vlineto
          -47 callsubr
          9 -13 37 29 callgsubr
          71 vlineto
          7 5 41 -61 56 -90 45 -51 rlinecurve
          -30 27 30 -10 27 hhcurveto
          29 26 11 23 8 -3 10 -4 6 hvcurveto
          -2 -9 -6 0 -4 hhcurveto
          -32 -15 15 16 -15 hvcurveto
          -38 46 -58 90 -39 64 rrcurveto
          endchar
        </CharString>
        <CharString name="L">
          -82 0 60 -41 -21 668 -20 hstemhm
          71 77 hintmask 10110000
          73 224 rmoveto
          -62 callgsubr
          164 vvcurveto
          90 vlineto
          105 8 100 -81 callgsubr
          vvcurveto
          endchar
        </CharString>
        <CharString name="Lslash">
          -82 0 60 -41 -21 668 -20 hstemhm
          73 75 hintmask 10110000
          73 333 rmoveto
          -103 -78 rlineto
          -12 callsubr
          31 26 24 22 31 25 rrcurveto
          -41 vlineto
          -62 callgsubr
          174 vvcurveto
          147 113 -19 callsubr
          -36 -32 -45 -38 -49 -39 rrcurveto
          -20 callsubr
        </CharString>
        <CharString name="Lslashsmall">
          -97 0 53 -33 -21 520 -20 hstemhm
          89 73 hintmask 10110000
          -14 175 rmoveto
          -12 callsubr
          31 26 42 37 13 10 rrcurveto
          -68 -1 -43 -56 callgsubr
          32 0 35 119 vvcurveto
          149 116 -19 callsubr
          -36 -32 -44 -39 -52 -40 rrcurveto
          88 -29 callsubr
          4 -51 2 -63 -67 vvcurveto
          -82 vlineto
          endchar
        </CharString>
        <CharString name="Lsmall">
          -124 0 53 -33 -21 520 -20 hstemhm
          86 74 hintmask 10110000
          88 174 rmoveto
          -50 -2 -50 -56 callgsubr
          33 0 34 124 vvcurveto
          69 vlineto
          82 -29 callsubr
          4 -51 2 -63 -67 vvcurveto
          endchar
        </CharString>
        <CharString name="M">
          286 18 -21 22 4 callsubr
          hstemhm
          85 65 487 75 hintmask 10111000
          712 436 rmoveto
          85 0 78 18 60 vhcurveto
          5 -14 -35 3 -7 hhcurveto
          -34 -20 -14 -34 -19 hvcurveto
          -96 -169 -71 -223 -34 -135 -60 189 -61 193 -84 145 rrcurveto
          30 -18 -22 18 -31 hhcurveto
          -19 -19 -3 -5 -20 hvcurveto
          14 -47 5 -67 -62 vvcurveto
          -252 vlineto
          -25 callgsubr
          -73 callsubr
          15 11 -88 callsubr
          353 vlineto
          93 -187 53 -207 63 -138 rrcurveto
          hintmask 01111000
          -21 9 22 -5 19 hhcurveto
          11 10 2 2 6 hvcurveto
          36 122 75 252 90 182 rrcurveto
          -313 -2 -155 -36 vvcurveto
          hintmask 10111000
          -39 9 -18 40 15 21 -88 callsubr
          endchar
        </CharString>
        <CharString name="Msmall">
          203 19 -21 522 -20 hstem
          97 63 385 72 vstem
          617 340 rmoveto
          66 0 61 15 47 vhcurveto
          3 -13 -31 3 -6 hhcurveto
          -29 -19 -10 -27 -16 hvcurveto
          -68 -108 -59 -163 -32 -128 -45 141 -48 150 -68 107 rrcurveto
          25 -15 -21 13 -28 hhcurveto
          -17 -20 -3 -3 -15 hvcurveto
          11 -37 4 -52 -49 vvcurveto
          -196 vlineto
          -5 callsubr
          36 14 10 2 3 12 vhcurveto
          -16 50 -35 callsubr
          255 vlineto
          67 -136 44 -157 49 -102 7 -14 16 -5 17 -1 rrcurveto
          11 13 1 2 8 hvcurveto
          28 89 59 187 66 136 rrcurveto
          -170 -1 -124 -77 vvcurveto
          -31 8 -13 39 15 18 2 3 8 vhcurveto
          -15 50 -35 callsubr
          endchar
        </CharString>
        <CharString name="N">
          118 -14 callgsubr
          21 -20 hstemhm
          85 65 329 65 hintmask 11011000
          -58 callsubr
          hintmask 10111000
          -75 callgsubr
          endchar
        </CharString>
        <CharString name="Nsmall">
          67 -3 callgsubr
          21 -20 hstemhm
          97 63 258 63 hintmask 11011000
          -57 callsubr
          hintmask 10111000
          -74 callsubr
          endchar
        </CharString>
        <CharString name="Ntilde">
          107 -14 callgsubr
          21 -20 76 -17 callgsubr
          85 65 329 65 hintmask 11010110
          -58 callsubr
          hintmask 11001110
          -75 callgsubr
          -94 802 -86 callgsubr
          hintmask 11010110
          -100 callsubr
          hintmask 10110110
          -7 callgsubr
        </CharString>
        <CharString name="Ntildesmall">
          58 -3 callgsubr
          21 -20 75 -17 callgsubr
          97 63 258 63 hintmask 11010110
          -57 callsubr
          hintmask 11001110
          -74 callsubr
          -59 655 -86 callgsubr
          hintmask 11010110
          -100 callsubr
          hintmask 10110110
          -7 callgsubr
        </CharString>
        <CharString name="O">
          -32 callsubr
          hstem
          23 callsubr
          vstem
          355 -10 -104 callsubr
          endchar
        </CharString>
        <CharString name="OE">
          369 -10 70 264 63 225 61 -7 -20 hstemhm
          49 82 343 75 hintmask 11011100
          354 51 rmoveto
          -163 -60 162 149 142 84 108 141 45 37 -12 -21 31 hvcurveto
          3 -48 2 -53 -54 vvcurveto
          -200 vlineto
          -52 -2 -52 -39 vvcurveto
          -20 -33 -39 -10 -46 hhcurveto
          191 548 rmoveto
          2 38 35 1 37 hhcurveto
          81 64 -6 -15 41 hvcurveto
          6 15 2 16 13 vvcurveto
          11 -2 9 -7 6 vhcurveto
          15 -18 -86 0 -58 hhcurveto
          -69 -66 -2 -7 -83 hvcurveto
          hintmask 11101100
          10 -32 -35 6 -38 hhcurveto
          -187 -119 -132 -210 -207 119 -134 187 42 39 7 12 35 hvcurveto
          -10 40 70 -1 56 hhcurveto
          42 hlineto
          58 86 0 15 18 hvcurveto
          7 6 2 9 11 vvcurveto
          13 -2 16 -6 15 vhcurveto
          -103 callgsubr
          endchar
        </CharString>
        <CharString name="OEsmall">
          333 -7 60 196 56 157 57 -29 -21 55 -20 hstemhm
          61 79 351 72 -72 235 hintmask 11100110
          315 47 rmoveto
          -128 -47 122 112 107 66 81 110 125 47 -113 -104 3 hvcurveto
          -17 vlineto
          -108 -3 -60 -80 -113 hhcurveto
          245 413 rmoveto
          1 25 34 -102 callsubr
          6 -45 rlineto
          hintmask 11011110
          37 -44 -58 20 -68 hhcurveto
          -155 -99 -103 -163 -26 callgsubr
          70 60 21 38 44 hvcurveto
          -8 vlineto
          -27 callsubr
          -93 callsubr
          -92 callsubr
          hintmask 11100101
          -80 callgsubr
          hintmask 11011110
          -40 callgsubr
          endchar
        </CharString>
        <CharString name="Oacute">
          -32 callsubr
          226 -20 hstem
          49 82 184 191 73 84 vstem
          481 816 rmoveto
          -106 callsubr
          -126 -826 -104 callsubr
          endchar
        </CharString>
        <CharString name="Oacutesmall">
          -10 callgsubr
          223 -20 hstem
          48 79 124 191 36 80 vstem
          417 664 rmoveto
          -106 callsubr
          -115 -671 -101 callsubr
        </CharString>
        <CharString name="Ocircumflex">
          -32 callsubr
          0 43 152 -20 hstemhm
          23 callsubr
          hintmask 11011100
          356 868 -80 callsubr
          hintmask 10111100
          -105 callgsubr
          -1 -878 -104 callsubr
          endchar
        </CharString>
        <CharString name="Ocircumflexsmall">
          -10 callgsubr
          0 48 152 -20 hstemhm
          48 79 351 80 hintmask 11011100
          309 724 -80 callsubr
          hintmask 10111100
          -105 callgsubr
          -7 -731 -101 callsubr
        </CharString>
        <CharString name="Odieresis">
          -32 callsubr
          39 107 hstemhm
          49 82 84 16 callsubr
          83 84 hintmask 11010010
          355 -10 -104 callsubr
          -135 399 -97 callsubr
          hvcurveto
          hintmask 00101100
          -102 callgsubr
        </CharString>
        <CharString name="Odieresissmall">
          -10 callgsubr
          38 107 hstemhm
          48 79 36 16 callsubr
          34 80 hintmask 00101100
          392 562 -97 callsubr
          -78 callsubr
          hvcurveto
          -178 hmoveto
          -104 callgsubr
          -78 callsubr
          hvcurveto
          88 -569 rmoveto
          156 100 103 162 163 -100 103 -156 -155 -99 -103 -163 hvcurveto
          hintmask 11010010
          -26 callgsubr
          vhcurveto
          176 251 rmoveto
          -113 -60 -84 -116 -128 -47 122 112 107 66 81 110 128 47 -119 -106 vhcurveto
          endchar
        </CharString>
        <CharString name="Ograve">
          -32 callsubr
          226 -20 hstem
          49 82 74 190 184 84 vstem
          240 899 rmoveto
          -103 callsubr
          115 -909 -104 callsubr
          endchar
        </CharString>
        <CharString name="Ogravesmall">
          -10 callgsubr
          223 -20 hstem
          48 79 24 190 137 80 vstem
          186 747 rmoveto
          -103 callsubr
          116 -754 -101 callsubr
        </CharString>
        <CharString name="Omega">
          325 0 60 561 56 hstemhm
          112 83 -83 239 134 239 -83 83 hintmask 11011000
          418 677 rmoveto
          -169 -137 -122 -184 -150 86 -96 109 -65 hvcurveto
          -181 hlineto
          -20 27 -18 37 -18 38 rrcurveto
          1 -3 -2 0 -2 hhcurveto
          -10 -8 -5 -11 -17 18 -90 9 -40 hvcurveto
          221 hlineto
          48 10 29 30 11 -1 12 -2 10 hvcurveto
          hintmask 11100100
          -107 64 -46 94 111 vvcurveto
          148 1 77 112 145 hhcurveto
          145 77 -112 -148 1 hvcurveto
          -111 -46 -94 -107 -64 vhcurveto
          hintmask 11101000
          -1 -10 -2 -11 -11 vvcurveto
          -30 10 -30 48 vhcurveto
          221 hlineto
          9 40 18 90 -2 callsubr
          -181 hlineto
          108 64 87 97 150 vvcurveto
          184 -137 122 -169 vhcurveto
          endchar
        </CharString>
        <CharString name="Oslash">
          201 -63 -21 74 61 561 61 71 -20 hstem
          23 callsubr
          vstem
          579 313 rmoveto
          -150 -77 -112 -148 -38 -32 8 16 -28 vhcurveto
          256 464 rlineto
          47 -59 20 -87 -80 vvcurveto
          -448 49 rmoveto
          142 84 108 141 47 38 -13 -22 31 vhcurveto
          -259 -469 rlineto
          -58 61 -24 99 94 vvcurveto
          4 -395 rmoveto
          -41 callgsubr
          14 31 17 33 19 35 rrcurveto
          -16 38 44 -9 48 hhcurveto
          188 120 134 207 122 -41 97 -72 58 hvcurveto
          47 85 rlineto
          4 7 2 7 6 vvcurveto
          19 -26 11 -20 1 vhcurveto
          -15 -32 -18 -35 -20 -38 rrcurveto
          22 -43 -50 12 -56 hhcurveto
          -187 -119 -132 -210 -130 47 -101 81 -57 hvcurveto
          endchar
        </CharString>
        <CharString name="Oslashsmall">
          95 -63 -21 77 54 422 55 79 -20 hstem
          48 79 351 80 vstem
          127 281 rmoveto
          107 66 81 110 29 25 -6 -11 21 vhcurveto
          -196 -352 rlineto
          -39 46 -16 69 66 vvcurveto
          351 -37 rmoveto
          -113 -60 -84 -116 -29 -26 6 11 -21 vhcurveto
          196 354 rlineto
          39 -45 17 -67 -62 vvcurveto
          -369 -277 rmoveto
          -41 callgsubr
          13 28 15 32 18 32 2 3 rcurveline
          -11 31 35 -7 39 hhcurveto
          156 100 103 162 99 -38 78 -64 45 hvcurveto
          40 72 rlineto
          3 7 3 12 callsubr
          -14 -30 -16 -34 -18 -34 rrcurveto
          12 -32 -35 7 -39 hhcurveto
          -155 -99 -103 -163 -99 36 -77 64 -45 hvcurveto
          endchar
        </CharString>
        <CharString name="Osmall">
          -10 callgsubr
          hstem
          48 79 351 80 vstem
          302 -7 -101 callsubr
        </CharString>
        <CharString name="Otilde">
          -32 callsubr
          50 -17 callgsubr
          23 callsubr
          hintmask 11101100
          499 803 -94 callgsubr
          -144 -813 -104 callsubr
          endchar
        </CharString>
        <CharString name="Otildesmall">
          -10 callgsubr
          51 -17 callgsubr
          48 79 351 80 hintmask 11101100
          446 655 -94 callgsubr
          -144 -662 -101 callsubr
        </CharString>
        <CharString name="P">
          -7 18 -21 246 61 308 61 hstem
          77 77 245 84 vstem
          254 304 rmoveto
          -33 -39 9 16 -28 hvcurveto
          75 vlineto
          95 -2 80 -2 29 vhcurveto
          2 23 29 2 20 30 callsubr
          -175 -73 rmoveto
          -96 callgsubr
          72 vlineto
          -1 callsubr
          -40 -66 -5 -7 -43 hvcurveto
          9 -64 4 -80 -86 vvcurveto
          endchar
        </CharString>
        <CharString name="Psmall">
          -54 19 -21 187 55 230 54 hstem
          91 74 186 80 vstem
          241 240 rmoveto
          -25 -29 5 11 -22 hvcurveto
          60 vlineto
          70 -2 59 -1 22 vhcurveto
          1 17 22 2 16 41 callgsubr
          -149 -60 rmoveto
          -5 callsubr
          38 14 19 2 3 11 vhcurveto
          -16 49 0 54 49 vvcurveto
          55 vlineto
          -17 26 37 -8 34 hhcurveto
          82 87 51 118 136 -110 34 -114 -34 -55 -3 -6 -36 hvcurveto
          7 -50 3 -62 -67 vvcurveto
          endchar
        </CharString>
        <CharString name="Q">
          201 -157 61 87 60 561 61 hstem
          23 callsubr
          vstem
          579 313 rmoveto
          -150 -77 -112 -148 -163 -60 162 149 142 84 108 141 163 60 -158 -141 vhcurveto
          -254 -322 rmoveto
          -90 17 67 -58 99 hhcurveto
          61 71 18 35 14 -16 24 -13 8 hvcurveto
          -27 -34 -20 -11 -56 hhcurveto
          -52 -46 27 61 -16 hvcurveto
          169 14 107 130 195 vvcurveto
          210 -120 132 -188 -187 -119 -132 -210 -196 106 -131 170 -13 vhcurveto
          endchar
        </CharString>
        <CharString name="Qsmall">
          94 -122 60 56 53 422 55 hstem
          48 78 352 79 vstem
          478 244 rmoveto
          -113 -61 -84 -116 -128 -47 122 112 107 66 81 110 129 47 -119 -106 vhcurveto
          -207 -251 rmoveto
          -80 17 67 -35 74 hhcurveto
          56 54 16 34 11 -10 20 -21 15 hvcurveto
          -19 -23 -21 -17 -42 hhcurveto
          -42 -37 19 37 -13 hvcurveto
          139 10 88 102 152 vvcurveto
          163 -99 103 -156 -157 -97 -103 -163 -153 85 -100 138 -12 vhcurveto
          endchar
        </CharString>
        <CharString name="R">
          19 -10 65 557 61 hstem
          79 75 245 84 vstem
          425 84 rmoveto
          -35 36 -43 98 -28 59 rrcurveto
          94 18 70 65 114 vvcurveto
          162 -137 37 -131 -40 -66 -5 -7 -43 vhcurveto
          9 -64 4 -80 -86 vvcurveto
          -200 vlineto
          -93 callgsubr
          95 -2 80 -2 29 vhcurveto
          2 23 35 2 20 hhcurveto
          110 61 -31 -112 -91 -54 -56 -89 -15 -15 2 3 -17 hvcurveto
          -3 -11 -2 -9 -7 vvcurveto
          -13 7 -6 21 -3 vhcurveto
          -105 50 74 -183 94 hhcurveto
          36 39 9 29 8 -3 10 -6 12 hvcurveto
          -2 -10 -8 -1 -9 hhcurveto
          -24 -19 6 23 -21 hvcurveto
          endchar
        </CharString>
        <CharString name="Rsmall">
          -15 14 -21 477 54 hstem
          93 73 186 80 vstem
          390 70 rmoveto
          -27 27 -38 73 -23 44 rrcurveto
          75 16 55 52 85 vvcurveto
          128 -115 29 -109 -34 -56 -3 -6 -36 vhcurveto
          8 -50 3 -62 -67 vvcurveto
          -156 vlineto
          -47 callsubr
          -45 callsubr
          2 3 10 vhcurveto
          -15 49 0 54 50 vvcurveto
          154 vlineto
          73 -2 61 -2 23 vhcurveto
          1 18 27 2 15 hhcurveto
          83 47 -23 -81 -67 -44 -39 -60 -12 -13 2 3 -13 hvcurveto
          -5 -14 -2 -7 -9 vvcurveto
          -10 5 -7 14 -3 vhcurveto
          -80 35 63 -142 81 hhcurveto
          31 34 7 24 7 -2 9 -5 10 hvcurveto
          -1 -8 -6 -1 -7 hhcurveto
          -18 -13 5 17 -17 hvcurveto
          endchar
        </CharString>
        <CharString name="S">
          7 -10 63 556 64 hstemhm
          45 84 -72 72 272 57 hintmask 11011000
          401 533 -13 callsubr
          102 -173 33 callsubr
          hintmask 11101000
          -13 callgsubr
          -112 177 26 callsubr
        </CharString>
        <CharString name="Scaron">
          7 -10 63 556 64 203 -20 hstemhm
          45 84 -72 72 272 57 hintmask 11101100
          276 716 -95 callgsubr
          125 -183 -13 callsubr
          112 -183 33 callsubr
          hintmask 11110100
          -13 callgsubr
          -122 187 26 callsubr
        </CharString>
        <CharString name="Scaronsmall">
          -57 -7 55 421 55 -55 247 8 -20 38 callgsubr
          hintmask 11010110
          230 564 rmoveto
          46 34 56 53 39 47 rrcurveto
          14 -10 -6 4 -9 hhcurveto
          -19 -51 -45 -36 -44 hvcurveto
          hintmask 10101001
          0 -67 35 -42 54 vhcurveto
          -12 -5 -11 -11 -12 vvcurveto
          -41 84 -62 46 -29 vhcurveto
          112 -160 -44 callgsubr
          hintmask 11011001
          -45 callgsubr
        </CharString>
        <CharString name="Ssmall">
          -57 -7 55 421 55 38 callgsubr
          hintmask 11011000
          342 404 -44 callgsubr
          hintmask 11100100
          -45 callgsubr
        </CharString>
        <CharString name="T">
          -46 18 -21 605 59 3 -20 hstemhm
          196 75 hintmask 11010000
          196 231 rmoveto
          -93 callgsubr
          hintmask 10110000
          80 5 77 2 41 vhcurveto
          34 78 0 1 31 hvcurveto
          28 1 16 6 28 vvcurveto
          hintmask 11010000
          6 -1 14 -2 6 vhcurveto
          -3 -35 -77 0 -81 hhcurveto
          -118 hlineto
          -44 -38 0 -1 -25 hvcurveto
          -28 -1 -16 -6 -28 vvcurveto
          -7 1 -14 2 -6 vhcurveto
          4 48 75 0 67 hhcurveto
          2 -52 1 -59 -60 vvcurveto
          endchar
        </CharString>
        <CharString name="Thorn">
          1 18 -21 131 61 308 61 108 -20 hstem
          73 75 245 84 vstem
          248 189 rmoveto
          -33 -39 9 16 -28 hvcurveto
          124 vlineto
          97 0 30 1 28 vhcurveto
          2 22 26 2 19 30 callsubr
          -141 477 rmoveto
          -9 -15 0 -3 -17 hvcurveto
          -59 callgsubr
          vvcurveto
          -200 vlineto
          -25 callgsubr
          37 callsubr
          -15 49 -4 54 52 vvcurveto
          -1 callsubr
          -16 -20 -1 -2 -21 hvcurveto
          2 37 2 27 9 vvcurveto
          30 -24 8 -25 vhcurveto
          endchar
        </CharString>
        <CharString name="Thornsmall">
          -42 19 -21 95 55 230 54 -54 141 hstemhm
          88 72 186 80 hintmask 11011100
          88 180 rmoveto
          -47 callsubr
          -45 callsubr
          2 0 callsubr
          -12 36 -3 39 -1 39 rrcurveto
          -15 25 31 -10 41 hhcurveto
          82 87 51 118 hvcurveto
          hintmask 11101100
          136 -110 34 -114 -11 -14 0 -1 -14 vhcurveto
          2 30 2 21 7 vvcurveto
          24 -24 6 -23 -11 -15 -1 -2 -12 5 callgsubr
          -62 -67 vvcurveto
          148 -188 rmoveto
          -25 -29 5 11 -22 hvcurveto
          151 vlineto
          20 0 21 1 19 vhcurveto
          1 16 20 2 15 41 callgsubr
          endchar
        </CharString>
        <CharString name="Tsmall">
          -93 19 -21 462 55 2 -20 hstemhm
          174 229 hintmask 11010000
          174 180 rmoveto
          -47 callsubr
          9 -13 37 29 callgsubr
          157 vlineto
          57 4 55 1 33 vhcurveto
          hintmask 10110000
          116 hlineto
          23 13 7 26 hvcurveto
          hintmask 11010000
          6 -1 13 -1 5 vhcurveto
          -2 -29 -67 0 -66 hhcurveto
          -97 hlineto
          -36 -35 -1 -20 hhcurveto
          -23 -13 -6 -26 -7 0 -13 2 -5 hvcurveto
          3 38 62 0 55 hhcurveto
          1 -39 1 -42 -43 vvcurveto
          endchar
        </CharString>
        <CharString name="U">
          3 callsubr
          -20 hstemhm
          89 69 -69 84 311 75 hintmask 11101000
          72 658 rmoveto
          14 -51 3 -52 -54 -100 -9 -95 -114 vvcurveto
          -163 93 -39 110 62 83 32 45 54 vhcurveto
          -11 vlineto
          -45 12 -14 37 12 callgsubr
          51 190 222 8 78 -81 callgsubr
          -232 -1 -34 -31 vvcurveto
          -40 -42 -81 -40 -68 hhcurveto
          -63 -71 43 101 hvcurveto
          hintmask 11011000
          -69 callsubr
          endchar
        </CharString>
        <CharString name="Uacute">
          3 callsubr
          -20 253 -20 hstemhm
          89 69 -69 84 111 191 9 75 hintmask 11110110
          450 816 rmoveto
          -106 callsubr
          -378 -158 rmoveto
          14 -51 3 -52 -54 -100 -9 -95 -114 vvcurveto
          -163 93 -39 110 62 83 32 45 54 vhcurveto
          -11 vlineto
          -45 12 -14 37 12 callgsubr
          51 190 222 8 78 -81 callgsubr
          -232 -1 -34 -31 vvcurveto
          -40 -42 -81 -40 -68 hhcurveto
          -63 -71 43 101 hvcurveto
          hintmask 11101110
          -69 callsubr
          endchar
        </CharString>
        <CharString name="Uacutesmall">
          18 callgsubr
          80 191 -31 72 hintmask 11110010
          426 664 rmoveto
          -106 callsubr
          -340 -151 rmoveto
          11 -40 2 -41 -42 -78 -7 -74 -89 vvcurveto
          -127 76 -29 89 50 67 25 37 44 vhcurveto
          -12 vlineto
          -35 11 -10 35 14 20 2 3 10 vhcurveto
          -16 50 0 39 149 173 7 61 14 vvcurveto
          24 -23 6 -23 -9 -14 0 -3 -16 5 callgsubr
          -62 -67 -177 -1 -24 -23 vvcurveto
          -31 -33 -62 -29 -53 hhcurveto
          -49 -55 30 77 hvcurveto
          hintmask 11101100
          -57 callgsubr
        </CharString>
        <CharString name="Ucircumflex">
          3 callsubr
          51 152 -20 hstem
          89 69 326 75 vstem
          325 869 -80 callsubr
          -105 callgsubr
          -253 -211 rmoveto
          14 -51 3 -52 -54 -100 -9 -95 -114 vvcurveto
          -163 93 -39 110 62 83 32 45 54 vhcurveto
          -11 vlineto
          -45 12 -14 37 12 callgsubr
          51 190 222 8 78 -81 callgsubr
          -232 -1 -34 -31 vvcurveto
          -40 -42 -81 -40 -68 hhcurveto
          -63 -71 43 101 hvcurveto
          -69 callsubr
          endchar
        </CharString>
        <CharString name="Ucircumflexsmall">
          22 callsubr
          53 152 -20 hstem
          99 68 253 72 vstem
          303 724 -80 callsubr
          -105 callgsubr
          -217 -211 rmoveto
          11 -40 2 -41 -42 -78 -7 -74 -89 vvcurveto
          -127 76 -29 89 50 67 25 37 44 vhcurveto
          -12 vlineto
          -35 11 -10 35 14 20 2 3 10 vhcurveto
          -16 50 0 39 149 173 7 61 14 vvcurveto
          24 -23 6 -23 -9 -14 0 -3 -16 5 callgsubr
          -62 -67 -177 -1 -24 -23 vvcurveto
          -31 -33 -62 -29 -53 hhcurveto
          -49 -55 30 77 hvcurveto
          -57 callgsubr
        </CharString>
        <CharString name="Udieresis">
          3 callsubr
          -20 66 107 hstemhm
          89 69 -69 84 8 16 callsubr
          22 75 hintmask 11010001
          72 658 rmoveto
          14 -51 3 -52 -54 -100 -9 -95 -114 vvcurveto
          -163 93 -39 110 62 83 32 45 54 vhcurveto
          -11 vlineto
          -45 12 -14 37 12 callgsubr
          51 190 222 8 78 -81 callgsubr
          -232 -1 -34 -31 vvcurveto
          -40 -42 -81 -40 -68 hhcurveto
          -63 -71 43 101 hvcurveto
          hintmask 11001001
          -69 callsubr
          338 54 -97 callsubr
          hvcurveto
          hintmask 00100110
          -102 callgsubr
        </CharString>
        <CharString name="Udieresissmall">
          22 callsubr
          -20 63 107 hstemhm
          99 68 -68 81 -23 16 callsubr
          -18 72 hintmask 00100110
          386 562 -97 callsubr
          -78 callsubr
          hvcurveto
          -178 hmoveto
          -104 callgsubr
          -78 callsubr
          hvcurveto
          -122 -49 rmoveto
          11 -40 2 -41 -42 -78 -7 -74 -89 vvcurveto
          -127 76 -29 89 50 67 25 37 44 vhcurveto
          -12 vlineto
          -35 11 -10 35 14 20 2 3 10 vhcurveto
          -16 50 0 39 149 173 7 61 14 vvcurveto
          24 -23 6 -23 -9 -14 0 -3 -16 5 callgsubr
          -62 -67 -177 -1 -24 -23 vvcurveto
          -31 -33 -62 -29 -53 hhcurveto
          -49 -55 30 77 hvcurveto
          hintmask 11010001
          115 13 130 75 vvcurveto
          31 -18 9 -34 vhcurveto
          hintmask 11001001
          -15 -18 -3 -3 -9 hvcurveto
          endchar
        </CharString>
        <CharString name="Ugrave">
          3 callsubr
          -20 253 -20 hstemhm
          89 69 -69 84 1 190 120 75 hintmask 11110110
          209 899 rmoveto
          -103 callsubr
          -137 -241 rmoveto
          14 -51 3 -52 -54 -100 -9 -95 -114 vvcurveto
          -163 93 -39 110 62 83 32 45 54 vhcurveto
          -11 vlineto
          -45 12 -14 37 12 callgsubr
          51 190 222 8 78 -81 callgsubr
          -232 -1 -34 -31 vvcurveto
          -40 -42 -81 -40 -68 hhcurveto
          -63 -71 43 101 hvcurveto
          hintmask 11101110
          -69 callsubr
          endchar
        </CharString>
        <CharString name="Ugravesmall">
          18 callgsubr
          -53 190 103 72 hintmask 11110010
          162 747 rmoveto
          hintmask 11101010
          -103 callsubr
          -76 -234 rmoveto
          11 -40 2 -41 -42 -78 -7 -74 -89 vvcurveto
          -127 76 -29 89 50 67 25 37 44 vhcurveto
          -12 vlineto
          -35 11 -10 35 14 20 2 3 10 vhcurveto
          -16 50 0 39 149 173 7 61 14 vvcurveto
          24 -23 6 -23 -9 -14 0 -3 -16 5 callgsubr
          -62 -67 -177 -1 -24 -23 vvcurveto
          -31 -33 -62 -29 -53 hhcurveto
          -49 -55 30 77 hvcurveto
          hintmask 11100110
          -57 callgsubr
        </CharString>
        <CharString name="Usmall">
          22 callsubr
          -20 hstemhm
          99 68 -68 81 240 72 hintmask 11101000
          86 513 rmoveto
          11 -40 2 -41 -42 -78 -7 -74 -89 vvcurveto
          -127 76 -29 89 50 67 25 37 44 vhcurveto
          -12 vlineto
          -35 11 -10 35 14 20 2 3 10 vhcurveto
          -16 50 0 39 149 173 7 61 14 vvcurveto
          24 -23 6 -23 -9 -14 0 -3 -16 5 callgsubr
          -62 -67 -177 -1 -24 -23 vvcurveto
          -31 -33 -62 -29 -53 hhcurveto
          -49 -55 30 77 hvcurveto
          hintmask 11011000
          -57 callgsubr
        </CharString>
        <CharString name="V">
          47 -14 callgsubr
          27 -20 hstemhm
          467 81 hintmask 11010000
          463 667 rmoveto
          4 -14 0 -19 -17 vvcurveto
          -161 -117 -289 -74 -82 vhcurveto
          -37 147 -82 265 -56 126 rrcurveto
          31 -13 -18 12 -18 hhcurveto
          -20 -28 -16 -21 -24 hvcurveto
          75 -74 125 -353 40 -203 rrcurveto
          -1 11 14 -1 8 hhcurveto
          31 17 11 44 34 hvcurveto
          95 121 118 301 150 vvcurveto
          hintmask 10110000
          36 -12 13 -31 -14 -14 -3 -3 -14 vhcurveto
          endchar
        </CharString>
        <CharString name="Vsmall">
          -9 19 -21 520 -20 26 -20 hstemhm
          405 77 hintmask 11010000
          402 519 rmoveto
          2 -8 1 -16 -6 vvcurveto
          -126 -77 -194 -68 -88 vhcurveto
          -30 112 -67 198 -40 84 rrcurveto
          34 -17 -11 9 -20 hhcurveto
          -26 -23 -14 -14 -16 hvcurveto
          61 -58 102 -274 33 -158 rrcurveto
          -2 9 7 0 5 hhcurveto
          35 12 3 38 32 hvcurveto
          82 100 94 229 113 vvcurveto
          hintmask 10110000
          34 -9 9 -34 -12 -12 -1 -4 -13 vhcurveto
          endchar
        </CharString>
        <CharString name="W">
          431 -14 callgsubr
          27 -20 hstemhm
          434 81 326 81 hintmask 10111000
          837 667 rmoveto
          4 -15 0 -18 -18 vvcurveto
          -161 -107 -288 -68 -82 vhcurveto
          -33 140 -62 251 -61 97 rrcurveto
          3 17 2 32 8 vvcurveto
          40 callsubr
          4 -15 0 -18 -18 vvcurveto
          -161 -106 -288 -68 -82 vhcurveto
          -34 147 -73 265 -53 126 rrcurveto
          hintmask 11011000
          31 -13 -17 12 -17 hhcurveto
          -20 -30 -16 -21 -23 hvcurveto
          69 -74 118 -353 37 -203 rrcurveto
          -1 10 13 -1 8 hhcurveto
          29 16 11 44 33 hvcurveto
          62 82 69 162 41 144 52 -139 50 -177 23 -125 rrcurveto
          -1 10 14 -1 8 hhcurveto
          29 16 11 44 33 hvcurveto
          91 122 111 297 159 vvcurveto
          hintmask 10111000
          40 callsubr
          endchar
        </CharString>
        <CharString name="Wsmall">
          298 -3 callgsubr
          25 -20 hstemhm
          390 77 245 77 hintmask 11011000
          709 519 rmoveto
          3 -11 0 -14 -14 vvcurveto
          -117 -75 -197 -63 -85 vhcurveto
          -26 99 -45 149 -45 85 rrcurveto
          5 26 4 30 18 9 callgsubr
          3 -11 0 -14 -14 vvcurveto
          -117 -74 -197 -64 -85 vhcurveto
          -30 121 -61 191 -43 92 rrcurveto
          25 -12 -16 9 -16 hhcurveto
          -18 -25 -10 -19 -21 hvcurveto
          58 -58 99 -274 31 -158 rrcurveto
          -2 10 11 0 8 hhcurveto
          26 16 7 35 28 hvcurveto
          45 55 53 104 34 98 38 -98 36 -117 17 -82 rrcurveto
          -2 9 12 0 8 hhcurveto
          26 16 7 35 28 hvcurveto
          76 95 94 233 120 9 callgsubr
          endchar
        </CharString>
        <CharString name="X">
          65 11 -21 683 -20 hstem
          25 43 rmoveto
          -35 38 -12 31 -6 vhcurveto
          19 75 95 147 75 73 67 -111 69 -105 30 -40 rrcurveto
          -24 17 16 -15 19 hhcurveto
          21 26 18 25 22 hvcurveto
          -56 34 -94 136 -84 143 rrcurveto
          82 93 103 138 39 vvcurveto
          39 -41 11 -30 6 vhcurveto
          -8 -56 -68 -121 -74 -90 -60 100 -59 89 -26 37 rrcurveto
          27 -19 -14 15 -18 hhcurveto
          -26 -27 -21 -26 -21 hvcurveto
          50 -32 86 -119 81 -130 rrcurveto
          -64 -70 -158 -172 -60 vvcurveto
          endchar
        </CharString>
        <CharString name="Xsmall">
          -14 14 -21 531 -20 hstem
          31 33 rmoveto
          -27 35 -10 35 -3 vhcurveto
          17 61 71 98 58 63 50 -82 58 -82 23 -29 rrcurveto
          -20 15 16 -9 18 hhcurveto
          20 24 14 20 19 hvcurveto
          -47 30 -79 111 -68 103 rrcurveto
          69 68 86 103 38 vvcurveto
          30 -38 10 -33 4 vhcurveto
          -11 -54 -53 -87 -52 -60 -42 68 -48 73 -21 26 rrcurveto
          23 -17 -15 11 -18 hhcurveto
          -24 -25 -15 -20 -18 hvcurveto
          46 -34 78 -109 56 -78 rrcurveto
          -70 -68 -115 -120 -47 vvcurveto
          endchar
        </CharString>
        <CharString name="Y">
          -10 18 -21 670 -20 25 -20 hstemhm
          212 75 133 76 hintmask 10111000
          496 627 -49 callgsubr
          hintmask 11011000
          -82 callgsubr
          endchar
        </CharString>
        <CharString name="Yacute">
          -10 18 -21 670 -20 252 -20 hstemhm
          212 75 -75 185 23 76 hintmask 11110100
          372 816 rmoveto
          hintmask 11101100
          -106 callsubr
          124 -189 -49 callgsubr
          -82 callgsubr
          endchar
        </CharString>
        <CharString name="Yacutesmall">
          -87 19 -21 522 -20 247 -20 hstemhm
          178 73 -61 191 hintmask 11110000
          356 664 rmoveto
          hintmask 11101000
          -106 callsubr
          60 -180 -49 callsubr
          -78 callgsubr
          7 callsubr
        </CharString>
        <CharString name="Ydieresis">
          -10 18 -21 670 -20 25 -20 60 107 hstemhm
          109 103 0 75 0 103 30 76 hintmask 10100101
          496 627 -49 callgsubr
          hintmask 11000101
          -82 callgsubr
          -158 85 -97 callsubr
          hvcurveto
          hintmask 00011010
          -102 callgsubr
        </CharString>
        <CharString name="Ydieresissmall">
          -87 19 -21 522 -20 24 -20 58 107 hstemhm
          74 103 1 73 1 103 hintmask 00011010
          303 562 -97 callsubr
          -78 callsubr
          hvcurveto
          -178 hmoveto
          -104 callgsubr
          -78 callsubr
          hvcurveto
          291 -78 -49 callsubr
          hintmask 10100100
          -78 callgsubr
          hintmask 11000100
          7 callsubr
        </CharString>
        <CharString name="Ysmall">
          -87 19 -21 522 -20 24 -20 hstemhm
          178 73 hintmask 10110000
          416 484 -49 callsubr
          hintmask 11010000
          -78 callgsubr
          7 callsubr
        </CharString>
        <CharString name="Z">
          -6 59 553 61 hstem
          499 648 -86 callsubr
        </CharString>
        <CharString name="Zcaron">
          -6 59 553 61 209 -20 hstem
          297 716 -95 callgsubr
          202 -68 -86 callsubr
        </CharString>
        <CharString name="Zcaronsmall">
          -40 -4 51 418 55 204 -20 hstem
          244 564 -95 callgsubr
          189 -59 -85 callgsubr
        </CharString>
        <CharString name="Zsmall">
          -40 -4 51 418 55 hstem
          433 505 -85 callgsubr
        </CharString>
        <CharString name="a">
          -9 callsubr
          hstem
          45 70 210 67 vstem
          112 349 -106 callgsubr
          endchar
        </CharString>
        <CharString name="a_alt">
          -26 callsubr
          hstem
          45 70 261 69 vstem
          261 44 -105 callsubr
          endchar
        </CharString>
        <CharString name="aacute">
          -9 callsubr
          21 callsubr
          70 79 198 -67 67 hintmask 11110100
          360 15 callsubr
          hintmask 11111000
          -100 -109 -56 -1 -39 vvcurveto
          -11 7 -10 9 -8 vhcurveto
          25 22 77 39 48 34 rrcurveto
          -248 -270 -106 callgsubr
          endchar
        </CharString>
        <CharString name="aacute_alt">
          -26 callsubr
          21 callsubr
          70 85 191 -15 69 hintmask 11110100
          366 619 rmoveto
          hintmask 11111000
          -106 callsubr
          -105 -575 -105 callsubr
          endchar
        </CharString>
        <CharString name="acircumflex">
          -47 -10 53 226 150 56 52 152 -20 hstemhm
          45 70 210 67 vstemhm
          235 679 -80 callsubr
          -105 callgsubr
          -123 -330 rmoveto
          49 21 49 21 33 hhcurveto
          96 14 -44 -106 hvcurveto
          -53 -3 -86 -10 -51 -14 rrcurveto
          -46 -13 -44 -23 -75 vvcurveto
          -112 74 -29 80 40 48 18 33 40 vhcurveto
          -28 4 8 -16 31 hhcurveto
          19 14 5 3 6 hvcurveto
          -16 48 -3 66 58 45 2 68 22 vvcurveto
          hintmask 11111100
          127 -56 36 -110 -80 -80 -32 -54 -20 15 -14 31 -6 vhcurveto
          212 -131 rmoveto
          -2 -28 -1 -33 -22 vvcurveto
          -16 0 -17 1 -14 vhcurveto
          -27 -28 -46 -18 -41 hhcurveto
          -49 -43 25 63 64 90 10 119 13 hvcurveto
          endchar
        </CharString>
        <CharString name="acircumflex_alt">
          -26 callsubr
          36 callgsubr
          70 261 69 hintmask 10111100
          261 44 rmoveto
          -79 -67 79 128 hvcurveto
          hintmask 11011100
          99 64 69 77 43 49 -14 -34 37 vhcurveto
          -2 -65 -7 -88 -77 vvcurveto
          -19 0 -17 1 -17 vhcurveto
          -27 -28 -47 -17 -41 hhcurveto
          -14 -54 rmoveto
          50 45 18 33 40 hvcurveto
          -28 4 8 -16 31 hhcurveto
          19 14 5 3 6 hvcurveto
          -16 48 -3 66 58 vvcurveto
          101 8 89 4 40 vhcurveto
          46 -56 -75 22 -64 hhcurveto
          -119 -98 -89 -155 -140 94 -101 108 hvcurveto
          18 689 -76 callsubr
        </CharString>
        <CharString name="acute">
          -310 545 -21 178 -20 hstem
          60 191 vstem
          226 619 rmoveto
          -106 callsubr
          endchar
        </CharString>
        <CharString name="adieresis">
          -9 callsubr
          46 107 hstemhm
          45 70 -24 16 callsubr
          -47 67 hintmask 11010010
          112 349 -106 callgsubr
          -4 303 -97 callsubr
          hvcurveto
          hintmask 00101100
          -102 callgsubr
        </CharString>
        <CharString name="adieresis_alt">
          -26 callsubr
          46 107 hstemhm
          45 70 7 16 callsubr
          -27 69 hintmask 11010010
          261 44 -105 callsubr
          104 531 -97 callsubr
          hvcurveto
          hintmask 00101100
          -102 callgsubr
        </CharString>
        <CharString name="ae">
          238 -10 56 156 50 167 56 hstem
          45 70 210 72 238 69 vstem
          207 43 rmoveto
          -49 -43 25 63 63 90 12 119 12 hvcurveto
          1 -43 9 -36 14 -30 rrcurveto
          -52 -50 -53 -14 -38 hhcurveto
          336 377 -3 callsubr
          4 55 rmoveto
          -62 -64 -25 -53 -44 hvcurveto
          55 -22 -48 23 -81 hhcurveto
          -80 -80 -32 -54 -20 15 -14 31 -6 hvcurveto
          49 21 49 21 33 hhcurveto
          96 14 -44 -106 hvcurveto
          -53 -3 -86 -10 -51 -14 rrcurveto
          -46 -13 -44 -23 -75 vvcurveto
          -112 74 -29 80 51 72 23 60 48 vhcurveto
          -58 43 70 -25 70 -44 callsubr
          hvcurveto
          endchar
        </CharString>
        <CharString name="agrave">
          -9 callsubr
          21 callsubr
          70 -31 190 51 67 hintmask 11110100
          119 702 rmoveto
          hintmask 11101100
          -103 callsubr
          -7 -353 -106 callgsubr
          endchar
        </CharString>
        <CharString name="agrave_alt">
          -26 callsubr
          227 -20 hstem
          45 70 25 190 46 69 vstem
          261 44 -105 callsubr
          -72 712 rmoveto
          -103 callsubr
          endchar
        </CharString>
        <CharString name="ampersand">
          105 -10 56 575 52 hstemhm
          50 75 -38 69 179 70 36 70 hintmask 11011100
          335 536 rmoveto
          -72 -57 -40 -63 -41 vhcurveto
          hintmask 11101100
          -36 61 -23 53 30 vvcurveto
          53 22 41 72 62 23 -44 -41 vhcurveto
          -146 -237 rmoveto
          56 -80 71 -82 62 -59 rrcurveto
          -22 -30 -36 -10 -36 hhcurveto
          -88 -63 52 85 50 27 35 37 31 hvcurveto
          322 -60 rmoveto
          29 -7 30 -36 -10 -15 -6 -6 -11 vhcurveto
          9 -20 0 -24 -22 vvcurveto
          -34 -7 -28 -11 -24 vhcurveto
          -65 55 -65 77 -50 73 rrcurveto
          50 30 112 64 113 vvcurveto
          65 -50 62 -96 -98 -74 -59 -96 -29 10 -32 17 -34 vhcurveto
          12 -24 14 -26 18 -27 rrcurveto
          hintmask 11011100
          -58 -41 -50 -50 -84 vvcurveto
          -120 107 -61 108 55 56 17 34 45 vhcurveto
          -39 51 41 -12 24 hhcurveto
          36 13 23 23 9 -1 6 -1 5 hvcurveto
          -34 -39 15 26 -39 hvcurveto
          24 37 15 47 58 vvcurveto
          endchar
        </CharString>
        <CharString name="ampersandsmall">
          -5 -7 58 -58 249 230 55 hstemhm
          51 79 -52 75 112 75 8 72 hintmask 01101110
          hintmask 10110110
          153 408 rmoveto
          36 14 28 45 39 14 -29 -28 -47 -25 -27 -45 -34 vhcurveto
          -24 41 -18 40 20 vvcurveto
          hintmask 01110110
          79 -357 rmoveto
          -59 -43 37 59 32 14 23 20 18 hvcurveto
          39 -54 46 -53 48 -46 rrcurveto
          -10 -19 -22 -6 -24 hhcurveto
          146 191 rmoveto
          -10 -19 -7 -6 -13 hvcurveto
          7 -18 5 -24 -23 vvcurveto
          -15 -2 -14 -4 -11 vhcurveto
          -44 40 -45 55 -30 42 rrcurveto
          58 36 59 38 88 vvcurveto
          52 -41 52 -80 -80 -61 -48 -77 -23 9 -26 13 -28 vhcurveto
          9 -18 14 -24 10 -17 rrcurveto
          hintmask 10110110
          -47 -32 -35 -32 -62 vvcurveto
          -99 89 -48 84 46 40 13 22 32 vhcurveto
          -20 26 28 -15 33 hhcurveto
          35 12 21 21 7 0 6 -2 10 hvcurveto
          -26 1 -27 10 -27 17 rrcurveto
          17 29 9 35 40 vvcurveto
          hintmask 10101110
          26 -7 26 -35 vhcurveto
          endchar
        </CharString>
        <CharString name="apple">
          305 20 -21 575 -20 119 -20 35 -20 hstemhm
          hintmask 11010000
          713 162 rmoveto
          -7 28 -27 32 -45 5 -42 5 -28 8 -34 10 -1 9 -1 20 -2 16 13 1 11 3 6 7 9 10 4 17 3 25 2 22 3 29 13 31 rrcurveto
          3 16 2 37 34 vvcurveto
          20 -1 20 -2 12 vhcurveto
          72 -16 -47 37 -82 hhcurveto
          -122 -69 -66 -110 -91 32 -66 58 -19 hvcurveto
          -1 -30 -3 -42 -1 -14 -20 -1 -30 -10 -25 -9 -27 -10 -26 -11 -28 -4 -45 -6 -29 -31 -5 -30 -8 -30 rcurveline
          -12 -49 -3 -15 -3 -38 rrcurveto
          -5 4 -2 3 vhcurveto
          149 hlineto
          3 4 3 4 3 -4 3 -3 hvcurveto
          -142 hlineto
          3 32 3 15 11 48 7 29 rcurveline
          6 23 21 25 41 6 21 3 26 10 28 11 rrcurveto
          12 32 31 11 24 hhcurveto
          1 1 0 2 2 hvcurveto
          2 3 5 94 4 vvcurveto
          5 -1 1 -5 2 vhcurveto
          -52 14 -32 64 86 vvcurveto
          hintmask 11100000
          102 66 59 112 75 43 -31 -66 12 vhcurveto
          3 -15 1 -26 -25 vvcurveto
          -28 -1 -27 -3 -10 vhcurveto
          -14 -28 -5 -90 -9 -11 rrcurveto
          -6 -6 -12 -1 -9 -40 -8 13 -10 hhcurveto
          -3 -4 -1 -5 -2 1 -4 2 -1 hvcurveto
          -7 14 21 -6 18 hhcurveto
          2 -16 1 -25 2 -12 1 -4 11 -2 3 -1 34 -11 23 -7 41 -4 41 -4 23 -27 5 -24 5 -22 rcurveline
          14 -61 4 -17 -47 vvcurveto
          -19 hlineto
          -5 -2 -2 -5 -5 3 -1 3 hvcurveto
          26 hlineto
          5 2 3 4 54 -3 16 -9 41 hvcurveto
          -3 15 -4 15 -4 15 rrcurveto
          -206 401 rmoveto
          -26 -22 13 -11 18 28 rlineto
          3 hmoveto
          18 -28 13 11 -26 22 rlineto
          -3 11 rmoveto
          5 31 rlineto
          -17 hlineto
          5 -31 rlineto
          -1 -2 rmoveto
          -28 15 -6 -15 31 -7 rlineto
          14 hmoveto
          32 7 -6 15 -28 -15 rlineto
          endchar
        </CharString>
        <CharString name="approxequal">
          74 62 16 62 60 62 16 62 hstem
          515 166 rmoveto
          -51 callgsubr
          200 vmoveto
          -51 callgsubr
          endchar
        </CharString>
        <CharString name="aring">
          -9 callsubr
          45 33 112 33 hstem
          45 70 31 42 92 42 3 67 vstem
          235 520 -84 callgsubr
          -168 -255 -106 callgsubr
          endchar
        </CharString>
        <CharString name="aring_alt">
          -26 callsubr
          45 33 112 33 hstem
          45 70 66 42 92 42 19 69 vstem
          261 44 -105 callsubr
          23 530 -84 callgsubr
          endchar
        </CharString>
        <CharString name="asciicircum">
          -41 438 -21 258 -20 hstem
          236 582 rmoveto
          -45 43 109 -120 31 hhcurveto
          8 7 5 11 11 hvcurveto
          -35 58 -130 140 -45 44 -45 -44 -130 -140 -35 -58 rrcurveto
          -12 12 6 -4 9 hhcurveto
          27 114 119 46 43 hvcurveto
          endchar
        </CharString>
        <CharString name="asciitilde">
          35 213 76 -36 36 -36 76 hstemhm
          hintmask 01000000
          40 267 rmoveto
          -20 10 -17 9 -12 vhcurveto
          25 26 36 10 40 hhcurveto
          hintmask 10000000
          79 79 -40 66 hhcurveto
          56 65 16 46 20 -10 17 -9 12 hvcurveto
          -25 -26 -36 -10 -40 hhcurveto
          hintmask 00100000
          -79 -71 40 -97 hhcurveto
          -56 -42 -16 -46 hvcurveto
          endchar
        </CharString>
        <CharString name="asterisk">
          -105 426 -21 338 -20 hstem
          241 704 rmoveto
          29 -23 10 -24 -11 -11 -2 -3 -10 vhcurveto
          5 -39 7 -46 3 -45 rrcurveto
          29 -46 -30 25 -19 hhcurveto
          -27 -16 -34 -26 -4 hvcurveto
          38 -13 44 -14 43 -19 rrcurveto
          -56 -54 -29 -25 -20 vvcurveto
          -24 27 -20 23 -8 vhcurveto
          22 36 24 48 30 41 rrcurveto
          -55 38 25 -58 28 hhcurveto
          22 22 21 20 11 hvcurveto
          -32 28 -38 31 -34 36 rrcurveto
          67 27 51 10 35 vvcurveto
          20 -14 21 -15 13 vhcurveto
          -30 -22 -37 -29 -37 -23 rrcurveto
          7 48 6 41 10 vvcurveto
          endchar
        </CharString>
        <CharString name="at">
          350 -109 61 102 61 -46 46 269 59 91 56 hstemhm
          89 68 95 70 379 70 hintmask 11011111
          363 54 rmoveto
          48 42 31 61 34 hvcurveto
          hintmask 10111111
          -53 13 33 -24 38 hhcurveto
          85 115 115 153 144 -106 109 -175 -252 -149 -218 -192 -152 93 -137 209 107 95 41 52 24 -21 15 -22 9 hvcurveto
          -49 -22 -68 -31 -72 hhcurveto
          -161 -70 108 123 162 122 189 196 158 68 -87 -137 -126 -67 -67 -46 -24 -15 18 37 47 20 110 17 68 hvcurveto
          35 -48 -57 11 -46 hhcurveto
          -104 -79 -113 -134 hvcurveto
          hintmask 11011111
          -95 49 -47 62 vhcurveto
          118 150 rmoveto
          -60 -29 -41 -29 -32 hhcurveto
          -37 -20 45 57 102 46 65 62 25 22 -9 -19 23 hvcurveto
          -5 -35 -7 -68 -7 -49 rrcurveto
          endchar
        </CharString>
        <CharString name="atilde">
          -9 callsubr
          65 -17 callgsubr
          45 70 210 67 hintmask 11101100
          377 620 -94 callgsubr
          -265 -271 -106 callgsubr
          endchar
        </CharString>
        <CharString name="atilde_alt">
          -26 callsubr
          65 -17 callgsubr
          45 70 261 69 hintmask 11101100
          261 44 -105 callsubr
          164 630 -94 callgsubr
          endchar
        </CharString>
        <CharString name="b">
          -3 -39 callgsubr
          268 -20 hstem
          76 65 258 70 vstem
          139 422 rmoveto
          58 2 193 32 vvcurveto
          22 -10 16 -35 -16 -12 -1 -2 -8 vhcurveto
          9 -57 7 -318 -92 vvcurveto
          -91 -2 -81 -5 -43 vhcurveto
          -23 27 58 -45 105 hhcurveto
          143 67 124 136 157 -78 68 -97 -53 -55 -19 -34 -47 hvcurveto
          1 -56 rmoveto
          32 37 51 21 45 hhcurveto
          66 60 -51 -128 -93 -36 -101 -95 -42 -44 13 39 -44 hvcurveto
          2 27 1 45 48 57 -1 60 31 vvcurveto
          endchar
        </CharString>
        <CharString name="backslash">
          24 callsubr
          13 -86 11 -81 6 -65 rrcurveto
          -2 9 8 -1 7 hhcurveto
          26 7 13 15 3 0 4 -94 594 hvcurveto
          -13 86 -11 81 -6 65 rrcurveto
          -9 3 -12 0 0 vvcurveto
          -22 -14 -6 -21 -15 94 -587 0 hvcurveto
          endchar
        </CharString>
        <CharString name="bar">
          -228 -21 985 -20 hstem
          237 61 vstem
          237 136 rmoveto
          -183 -7 -144 -20 vvcurveto
          -30 22 -8 24 8 6 0 3 16 vhcurveto
          -7 46 -1 124 119 vvcurveto
          308 vlineto
          183 7 144 15 callgsubr
          -124 -119 vvcurveto
          endchar
        </CharString>
        <CharString name="braceleft">
          -85 40 callgsubr
          185 65 -65 190 hintmask 11110000
          182 286 rmoveto
          32 12 36 52 43 vvcurveto
          199 vlineto
          46 2 18 75 vhcurveto
          hintmask 11101000
          32 16 7 28 7 -1 10 -3 6 hvcurveto
          1 -13 -12 0 -11 hhcurveto
          -122 -28 -39 -72 hvcurveto
          -209 vlineto
          -32 -32 -52 -83 vhcurveto
          -50 vlineto
          83 31 -51 -32 hvcurveto
          -209 vlineto
          -72 29 -39 122 11 12 0 1 13 vhcurveto
          3 6 1 10 7 vvcurveto
          28 -16 7 -32 -75 -1 18 46 vhcurveto
          199 vlineto
          43 -37 51 -32 12 vhcurveto
          endchar
        </CharString>
        <CharString name="braceright">
          -107 40 callgsubr
          30 191 -67 67 hintmask 11101000
          223 286 rmoveto
          -32 -12 -37 -51 -43 vvcurveto
          -199 vlineto
          -46 -1 -18 -75 vhcurveto
          hintmask 11110000
          -32 -16 -7 -28 -7 1 -10 3 -6 hvcurveto
          -1 13 12 0 11 hhcurveto
          122 29 39 72 hvcurveto
          209 vlineto
          32 31 51 83 vhcurveto
          50 vlineto
          -83 -32 52 32 hvcurveto
          209 vlineto
          72 -28 39 -122 -11 -12 0 -1 -13 vhcurveto
          -3 -6 -1 -10 -7 vvcurveto
          -28 16 -7 32 75 2 -18 -46 vhcurveto
          -199 vlineto
          -43 36 -52 32 -12 vhcurveto
          endchar
        </CharString>
        <CharString name="bracketleft">
          -131 -190 58 796 56 hstemhm
          150 66 -66 190 hintmask 11100000
          216 664 rmoveto
          -2 37 8 0 35 hhcurveto
          hintmask 11010000
          28 16 7 28 7 -1 10 -3 6 hvcurveto
          -186 -910 186 hlineto
          3 8 1 8 7 vvcurveto
          23 -10 12 -34 vhcurveto
          hintmask 11100000
          -11 -31 0 -2 -38 hvcurveto
          endchar
        </CharString>
        <CharString name="bracketright">
          -161 -190 56 2 -20 814 58 hstemhm
          30 190 -66 66 hintmask 10101000
          154 -134 rmoveto
          hintmask 01110000
          2 -38 -31 0 -11 hhcurveto
          -34 -10 -12 -23 hvcurveto
          hintmask 10110000
          -7 1 -8 3 -8 vhcurveto
          186 910 -186 hlineto
          -3 -7 -1 -6 -10 vvcurveto
          -28 16 -7 28 vhcurveto
          hintmask 10101000
          35 8 0 2 37 hvcurveto
          endchar
        </CharString>
        <CharString name="breve">
          -239 534 65 -65 153 hstemhm
          hintmask 10000000
          136 599 rmoveto
          hintmask 01000000
          -60 -23 32 56 -16 hvcurveto
          -28 -2 -9 -12 -16 vvcurveto
          -44 49 -79 87 87 49 79 44 16 -9 12 -28 2 vhcurveto
          hintmask 10000000
          -56 -16 -23 -32 -60 hhcurveto
          endchar
        </CharString>
        <CharString name="brokenbar">
          -228 -21 986 -20 hstem
          237 61 vstem
          237 534 rmoveto
          -17 callsubr
          39 -14 callsubr
          -573 vmoveto
          -17 callsubr
          40 -14 callsubr
          endchar
        </CharString>
        <CharString name="bullet">
          -243 155 228 hstem
          25 218 vstem
          135 155 rmoveto
          59 49 46 67 65 -49 50 -59 -60 -50 -50 -65 -67 50 -46 60 hvcurveto
          endchar
        </CharString>
        <CharString name="c">
          -64 -39 callgsubr
          hstem
          45 71 vstem
          261 46 rmoveto
          -78 -67 52 142 109 60 70 73 43 54 -24 -51 14 hvcurveto
          29 4 19 15 24 vvcurveto
          61 -86 27 -57 19 callgsubr
          102 -69 111 66 82 20 48 22 -23 11 -17 7 vhcurveto
          -37 -19 -51 -15 -35 hhcurveto
          endchar
        </CharString>
        <CharString name="caron">
          -234 540 -21 152 -20 28 -20 hstemhm
          hintmask 11000000
          156 519 rmoveto
          46 34 56 53 39 47 rrcurveto
          14 -10 -6 4 -9 hhcurveto
          -19 -51 -45 -36 -44 hvcurveto
          hintmask 10100000
          0 -67 35 -42 54 vhcurveto
          hintmask 11000000
          -12 -5 -11 -11 -12 vvcurveto
          -41 84 -62 46 -29 vhcurveto
          endchar
        </CharString>
        <CharString name="ccedilla">
          -65 -232 45 177 -39 callsubr
          hstemhm
          45 71 93 122 -61 61 hintmask 11111000
          -55 callgsubr
          vvcurveto
          61 -90 26 -52 -99 -121 -72 -176 -144 82 -71 94 -17 vhcurveto
          -9 -25 -3 -20 -4 vvcurveto
          hintmask 11110100
          -90 callgsubr
          5 2 7 2 8 vhcurveto
          7 hlineto
          -43 callsubr
        </CharString>
        <CharString name="cedilla">
          -356 -232 45 219 -20 hstem
          63 48 13 61 vstem
          92 32 rmoveto
          -23 -42 -6 -38 -6 -90 callgsubr
          13 13 29 5 15 vhcurveto
          endchar
        </CharString>
        <CharString name="cent">
          25 -21 86 56 379 56 -56 147 hstemhm
          60 76 129 39 -39 205 hintmask 11101010
          136 335 rmoveto
          108 59 58 70 17 vhcurveto
          -366 vlineto
          -70 18 -59 57 108 vvcurveto
          291 121 14 callsubr
          64 hlineto
          hintmask 11011100
          -33 callgsubr
          -31 2 -23 1 -38 rrcurveto
          -105 -16 -100 -72 -152 vvcurveto
          -158 100 -70 105 -15 vhcurveto
          -63 -19 callgsubr
          25 -2 28 -1 31 -22 callsubr
          379 8 hlineto
          41 35 -15 -54 39 hvcurveto
          endchar
        </CharString>
        <CharString name="centoldstyle">
          -77 -21 86 -39 callsubr
          -56 150 hstemhm
          67 76 129 39 -39 205 hintmask 11101010
          272 50 rmoveto
          -70 17 -59 56 107 vvcurveto
          107 59 56 70 18 vhcurveto
          162 -63 14 callsubr
          67 hlineto
          hintmask 11011100
          -33 callgsubr
          -28 2 -32 -35 vvcurveto
          -105 -16 -99 -71 -150 vvcurveto
          -156 100 -70 105 -15 vhcurveto
          -62 -19 callgsubr
          26 -2 28 -1 30 -22 callsubr
          373 6 hlineto
          60 31 -33 -36 26 hvcurveto
          endchar
        </CharString>
        <CharString name="ch">
          438 -39 callgsubr
          226 42 hstem
          45 71 182 44 172 62 231 65 vstem
          -55 callgsubr
          41 -65 45 95 vvcurveto
          74 54 53 114 5 vhcurveto
          3 -48 1 -65 -70 -54 callsubr
          -65 callgsubr
          4 87 16 vvcurveto
          118 -57 38 -78 -62 -55 -24 -38 -44 vhcurveto
          4 147 3 135 10 vvcurveto
          31 -23 7 -24 -162 -80 -57 -98 -36 11 -42 21 -46 vhcurveto
          7 -23 -24 4 -18 hhcurveto
          19 callgsubr
          112 -69 111 -43 callsubr
        </CharString>
        <CharString name="circumflex">
          -234 540 -21 160 -20 hstem
          139 679 -76 callsubr
        </CharString>
        <CharString name="colon">
          -280 -10 127 234 127 hstem
          50 121 vstem
          111 -2 callgsubr
          361 vmoveto
          0 callgsubr
        </CharString>
        <CharString name="comma">
          -284 -143 22 callgsubr
          48 13 callgsubr
          hintmask 11100000
          107 -22 rmoveto
          -98 callgsubr
          hintmask 11010000
          34 -7 15 -25 -27 vvcurveto
          endchar
        </CharString>
        <CharString name="copyright">
          377 -34 57 75 59 332 59 69 57 hstem
          130 72 81 84 383 72 vstem
          617 157 rmoveto
          16 -13 13 -16 9 vhcurveto
          -27 -19 -28 -11 -39 hhcurveto
          -63 -72 42 131 97 51 62 62 37 45 -17 -45 13 hvcurveto
          31 4 12 14 22 vvcurveto
          57 -83 24 -48 -92 -112 -67 -163 -166 115 -54 95 67 57 27 32 vhcurveto
          133 163 rmoveto
          -182 -125 -115 -148 -151 -124 115 182 181 124 116 151 148 125 -116 -181 vhcurveto
          72 hmoveto
          204 -154 150 -191 -195 -152 -150 -204 -202 152 -152 195 191 154 152 202 vhcurveto
          endchar
        </CharString>
        <CharString name="ct">
          289 -10 56 373 46 31 -21 127 42 hstemhm
          45 71 225 39 68 35 callsubr
          hintmask 1111110100000000
          -55 callgsubr
          28 -27 23 52 vvcurveto
          70 53 41 43 27 32 -10 -25 2 vhcurveto
          2 -28 2 -48 1 -26 rrcurveto
          -28 hlineto
          hintmask 1111111000000000
          -42 callsubr
          hintmask 1111110010000000
          -61 callsubr
          hintmask 1111111000000000
          -66 callsubr
          -3 -44 -31 -2 -93 hhcurveto
          1 16 3 52 10 vvcurveto
          57 -81 45 -63 -65 -67 -45 -81 -19 3 -21 8 -22 vhcurveto
          13 -28 -34 6 -25 hhcurveto
          19 callgsubr
          112 -69 111 -43 callsubr
        </CharString>
        <CharString name="d">
          5 -10 53 376 56 268 -20 hstem
          45 70 256 66 vstem
          45 232 rmoveto
          -144 94 -98 104 44 46 18 39 41 vhcurveto
          -30 1 12 -20 31 hhcurveto
          19 13 5 3 6 hvcurveto
          -15 40 -4 79 99 138 9 259 85 vvcurveto
          30 -21 8 -24 -8 -12 24 callgsubr
          6 -54 2 -70 -71 vvcurveto
          -33 -1 -39 -1 -32 vhcurveto
          23 -38 -40 11 -38 hhcurveto
          -112 -98 -93 -150 hvcurveto
          324 157 rmoveto
          -95 1 -65 1 -129 vhcurveto
          -40 -37 -39 -17 -36 hhcurveto
          -78 -66 82 121 102 56 71 95 37 34 -12 -18 32 hvcurveto
          endchar
        </CharString>
        <CharString name="dagger">
          -56 -85 -21 531 68 -56 56 180 -20 hstemhm
          45 212 -77 77 -59 59 -59 77 -77 212 hintmask 1101100000000000
          45 459 rmoveto
          -8 0 -10 3 -16 vhcurveto
          hintmask 1011000100000000
          57 4 28 6 65 2 rrcurveto
          hintmask 1101010000000000
          -7 -373 -11 -54 -39 vvcurveto
          -39 47 -38 0 vhcurveto
          hintmask 1101000100000000
          0 48 38 39 vvcurveto
          hintmask 1101100000000000
          39 -11 54 -7 372 vhcurveto
          -1 43 20 -5 33 hhcurveto
          hintmask 1101000010000000
          39 callgsubr
          hintmask 1101001000000000
          -56 -17 -37 -6 -52 -1 -31 callsubr
          3 -75 -24 10 -16 hhcurveto
          hintmask 1101100000000000
          -30 -8 -23 -24 hvcurveto
          endchar
        </CharString>
        <CharString name="daggerdbl">
          -55 -84 -21 167 76 -63 63 292 63 -63 76 167 -20 hstemhm
          46 211 -73 73 -59 59 -59 72 -72 212 hintmask 1101011000000000
          271 281 rmoveto
          -1 44 -12 51 -1 60 rrcurveto
          -1 43 20 -5 33 hhcurveto
          hintmask 1101010000100000
          39 callgsubr
          hintmask 1101010010000000
          -56 -17 -37 -6 -52 -1 rrcurveto
          hintmask 1101010001000000
          -31 callsubr
          hintmask 1100110010000000
          3 -75 -24 10 -16 hhcurveto
          -30 -8 -23 -24 -8 0 -10 3 -16 hvcurveto
          57 4 28 6 65 2 rrcurveto
          hintmask 1011010100000000
          -1 -60 -13 -51 -45 vvcurveto
          -43 14 -49 1 -57 vhcurveto
          1 -43 -20 5 -33 hhcurveto
          hintmask 1011011000000000
          -39 -18 -9 -40 -12 3 -15 5 -11 hvcurveto
          56 17 37 6 52 1 -2 -64 -7 -59 -4 -51 rrcurveto
          -4 17 12 -2 13 hhcurveto
          13 12 2 4 18 hvcurveto
          -4 51 -7 59 -2 64 rrcurveto
          hintmask 1101011000000000
          -3 75 24 -10 16 hhcurveto
          30 8 23 24 8 0 10 -3 16 hvcurveto
          -57 -4 -28 -6 -65 -2 1 57 11 50 1 43 rrcurveto
          endchar
        </CharString>
        <CharString name="degree">
          -105 395 48 212 48 hstem
          48 62 180 63 vstem
          110 547 rmoveto
          59 32 49 61 58 29 -47 -57 -59 -31 -49 -60 -59 -30 46 58 vhcurveto
          -62 hmoveto
          -87 62 -65 89 91 63 66 91 85 -62 66 -87 -93 -63 -67 -89 vhcurveto
          endchar
        </CharString>
        <CharString name="dieresis">
          -254 521 107 hstem
          -13 16 callsubr
          vstem
          216 521 -97 callsubr
          -78 callsubr
          hvcurveto
          -178 hmoveto
          -104 callgsubr
          -78 callsubr
          hvcurveto
          endchar
        </CharString>
        <CharString name="divide">
          23 114 87 57 86 114 hstem
          216 109 vstem
          466 258 -8 callsubr
          -40 callsubr
          hvcurveto
          -4 callsubr
          -50 callgsubr
          -195 109 rmoveto
          6 callsubr
          -344 vmoveto
          6 callsubr
          endchar
        </CharString>
        <CharString name="dollar">
          -57 -21 68 59 622 -20 88 -20 hstemhm
          61 215 -203 72 92 39 -39 208 -57 72 hintmask 1111010100000000
          237 385 rmoveto
          -52 21 -40 28 65 vvcurveto
          72 42 33 50 6 vhcurveto
          39 -320 rmoveto
          61 -19 51 -24 -73 vvcurveto
          -85 -52 -36 -60 -4 vhcurveto
          116 483 rmoveto
          37 7 16 18 23 vvcurveto
          hintmask 1111100010000000
          61 -94 30 -75 vhcurveto
          41 vlineto
          -33 callgsubr
          -21 1 -23 1 -25 rrcurveto
          hintmask 1111011010000000
          -91 -13 -72 -58 -104 vvcurveto
          -134 83 -32 81 -25 vhcurveto
          -250 vlineto
          -54 9 -54 31 -21 44 rrcurveto
          hintmask 1111100010000000
          -26 -13 -21 -11 -29 vvcurveto
          hintmask 1111011010000000
          -49 84 -40 92 -3 vhcurveto
          -41 -19 callgsubr
          21 -1 22 -1 24 rrcurveto
          115 6 68 85 109 vvcurveto
          85 -40 55 -144 40 vhcurveto
          238 vlineto
          50 -7 47 -30 19 -40 rrcurveto
          endchar
        </CharString>
        <CharString name="dollaroldstyle">
          -47 -21 647 -20 94 -20 hstemhm
          70 63 103 39 -39 208 -49 62 hintmask 11111010
          133 427 rmoveto
          64 47 28 55 3 vhcurveto
          -193 vlineto
          -56 17 -46 24 57 vvcurveto
          262 -275 rmoveto
          -72 -56 -33 -63 -3 vhcurveto
          206 vlineto
          64 -17 55 -19 -62 vvcurveto
          306 vmoveto
          hintmask 11110100
          34 6 15 16 20 vvcurveto
          hintmask 11111010
          53 -97 26 -72 vhcurveto
          47 vlineto
          -33 callgsubr
          -22 1 -26 1 -26 rrcurveto
          -93 -11 -72 -50 -90 vvcurveto
          -115 83 -30 83 -21 vhcurveto
          -213 vlineto
          -56 7 -55 27 -21 37 rrcurveto
          -24 -11 -20 -11 -25 vvcurveto
          -44 84 -33 92 -3 vhcurveto
          -31 vlineto
          -21 12 -6 17 vhcurveto
          0 11 0 4 2 vhcurveto
          -2 16 -1 20 -1 21 rrcurveto
          94 8 87 46 125 vvcurveto
          103 -95 22 -87 23 vhcurveto
          203 vlineto
          51 -6 50 -24 19 -33 rrcurveto
          endchar
        </CharString>
        <CharString name="dotaccent">
          -408 521 107 hstem
          0 103 vstem
          51 521 -97 callsubr
          -78 callsubr
          hvcurveto
          endchar
        </CharString>
        <CharString name="dotlessi">
          14 callgsubr
          471 -20 hstem
          73 66 vstem
          -53 callgsubr
          endchar
        </CharString>
        <CharString name="e">
          -15 callsubr
          hstem
          45 72 239 69 vstem
          268 475 -99 callgsubr
          endchar
        </CharString>
        <CharString name="eacute">
          -15 callsubr
          21 callsubr
          72 87 202 -50 69 hintmask 11111010
          370 15 callsubr
          hintmask 11111100
          -100 -109 -56 -1 -39 vvcurveto
          -11 7 -10 9 -8 vhcurveto
          25 22 77 39 48 34 rrcurveto
          -102 -144 rmoveto
          -108 -115 -76 -169 -170 98 -70 116 hvcurveto
          hintmask 11111010
          68 79 23 43 21 -17 12 -23 9 hvcurveto
          -39 -22 -48 -13 -36 hhcurveto
          -87 -45 65 91 -10 hvcurveto
          hintmask 11111100
          -51 callsubr
          -4 -55 rmoveto
          53 39 -38 -41 -85 -119 -4 -120 hvcurveto
          124 3 74 44 70 hhcurveto
          endchar
        </CharString>
        <CharString name="ecircumflex">
          -41 -10 56 156 50 0 168 0 55 36 callgsubr
          72 239 69 hintmask 10101111
          265 679 -80 callsubr
          hintmask 11010111
          -105 callgsubr
          hintmask 11001111
          3 -204 -99 callgsubr
          endchar
        </CharString>
        <CharString name="edieresis">
          -15 callsubr
          46 107 hstemhm
          45 72 5 16 callsubr
          -47 69 hintmask 11101001
          268 475 -99 callgsubr
          87 101 -97 callsubr
          hvcurveto
          hintmask 00010110
          -102 callgsubr
        </CharString>
        <CharString name="egrave">
          -15 callsubr
          227 -20 hstem
          45 72 7 190 42 69 vstem
          159 702 rmoveto
          -103 callsubr
          109 -227 -99 callgsubr
          endchar
        </CharString>
        <CharString name="eight">
          -10 59 565 59 hstemhm
          50 75 -49 49 -49 73 227 73 -50 50 -50 77 hintmask 11100001
          hintmask 11010010
          376 534 rmoveto
          -64 -29 -42 -69 -30 vhcurveto
          -80 33 -49 39 64 vvcurveto
          48 52 32 61 61 53 -32 -48 vhcurveto
          -114 -485 rmoveto
          -87 -50 62 63 85 46 44 76 34 hvcurveto
          91 -40 61 -38 -85 vvcurveto
          -63 -49 -62 -88 vhcurveto
          1 -59 rmoveto
          145 68 90 90 109 -59 51 -89 42 hvcurveto
          hintmask 11100010
          59 25 62 47 87 vvcurveto
          87 -88 55 -99 -99 -87 -55 -87 -87 43 -41 73 -40 vhcurveto
          hintmask 11001100
          -78 -34 -64 -50 -109 vvcurveto
          -90 68 -90 145 vhcurveto
          endchar
        </CharString>
        <CharString name="eightoldstyle">
          -7 -10 56 522 56 hstemhm
          45 72 -47 47 -47 71 220 72 -48 74 hintmask 11100010
          hintmask 11010100
          361 494 rmoveto
          -58 -25 -35 -64 -33 vhcurveto
          -77 30 -54 38 58 vvcurveto
          44 51 30 59 59 51 -30 -44 vhcurveto
          -110 -448 rmoveto
          -85 -49 58 58 78 45 41 74 31 hvcurveto
          89 -37 60 -35 -78 vvcurveto
          -58 -49 -58 -85 vhcurveto
          1 -56 rmoveto
          141 66 83 85 101 -66 49 -72 35 hvcurveto
          hintmask 11100010
          76 34 36 56 55 vvcurveto
          70 -61 66 -121 -96 -85 -51 -80 -81 44 -41 70 -34 vhcurveto
          hintmask 11001100
          -79 -35 -60 -43 -101 vvcurveto
          -85 66 -83 141 vhcurveto
          endchar
        </CharString>
        <CharString name="ellipsis">
          254 -10 127 hstem
          42 121 160 121 160 121 cntrmask 01110000
          103 -2 callgsubr
          562 hmoveto
          -98 callsubr
          -281 hmoveto
          0 callgsubr
        </CharString>
        <CharString name="emdash">
          244 233 -28 callgsubr
          725 28 callgsubr
          -29 -42 -2 -33 hhcurveto
          -445 hlineto
          -51 -43 4 -13 6 callgsubr
          43 38 1 30 hhcurveto
          445 hlineto
          48 29 -5 23 hhcurveto
          22 14 16 23 hvcurveto
          endchar
        </CharString>
        <CharString name="endash">
          84 233 -28 callgsubr
          565 267 -67 callsubr
        </CharString>
        <CharString name="equal">
          124 57 -44 -21 208 57 7 -20 hstemhm
          hintmask 10010000
          466 158 -8 callsubr
          hvcurveto
          hintmask 10100000
          -40 callsubr
          vhcurveto
          hintmask 10010000
          -4 callsubr
          hhcurveto
          hintmask 10100000
          -50 callgsubr
          200 vmoveto
          11 0 10 -3 9 vhcurveto
          hintmask 01100000
          21 callgsubr
          hhcurveto
          hintmask 10100000
          -60 callgsubr
          hintmask 01100000
          -4 callsubr
          -50 callgsubr
          endchar
        </CharString>
        <CharString name="eth">
          18 -39 callgsubr
          256 38 callsubr
          218 rmoveto
          -101 -52 -71 -96 -95 -52 90 110 102 52 71 95 94 54 -91 -110 vhcurveto
          -245 352 rmoveto
          -10 -7 -6 -8 -9 vvcurveto
          -15 11 -12 15 -10 vhcurveto
          33 24 25 20 46 33 44 -35 37 -50 25 -67 rrcurveto
          26 -30 -47 15 -46 hhcurveto
          -129 -88 -95 -148 -148 88 -94 129 130 88 94 148 169 -36 124 -118 94 hvcurveto
          19 14 23 15 27 19 rrcurveto
          12 7 5 8 10 vvcurveto
          13 -11 16 -11 10 vhcurveto
          -30 -25 -41 -30 -38 -27 rrcurveto
          30 -55 -74 19 -29 hhcurveto
          -20 -4 -9 -13 -5 0 -5 1 -5 hvcurveto
          47 -8 46 -14 41 -23 rrcurveto
          -40 -27 -29 -19 0 vvcurveto
          endchar
        </CharString>
        <CharString name="exclam">
          -200 -10 127 568 -20 hstemhm
          100 121 -101 62 hintmask 11010000
          161 -10 rmoveto
          hintmask 11100000
          -98 callsubr
          39 646 rmoveto
          38 -21 11 -26 -17 -20 -4 -3 -15 vhcurveto
          23 -94 -7 -284 3 -63 rrcurveto
          -35 1 18 -13 22 hhcurveto
          12 13 4 6 12 hvcurveto
          -13 36 -3 43 45 vvcurveto
          44 vlineto
          130 18 68 71 vvcurveto
          endchar
        </CharString>
        <CharString name="exclamdown">
          -200 -198 -21 567 127 hstemhm
          90 121 -82 62 hintmask 11010000
          150 475 rmoveto
          hintmask 11100000
          -54 callgsubr
          -39 -645 rmoveto
          -38 21 -11 26 17 20 4 3 15 vhcurveto
          -23 93 7 284 -3 63 rrcurveto
          35 -1 -18 13 -22 hhcurveto
          -12 -13 -4 -6 -12 hvcurveto
          13 -36 3 -43 -45 vvcurveto
          -44 vlineto
          -130 -18 -67 -71 vvcurveto
          endchar
        </CharString>
        <CharString name="exclamdownsmall">
          -250 -23 -21 443 127 hstemhm
          80 121 -82 62 hintmask 11010000
          140 526 rmoveto
          hintmask 11100000
          -54 callgsubr
          -39 -532 rmoveto
          -29 21 -9 26 15 23 5 5 14 vhcurveto
          -23 69 7 209 -3 46 rrcurveto
          27 -1 -18 10 -22 hhcurveto
          -12 -13 -4 -6 -12 hvcurveto
          13 -26 3 -32 -33 vvcurveto
          -33 vlineto
          -96 -18 -50 -53 vvcurveto
          endchar
        </CharString>
        <CharString name="exclamsmall">
          -250 -10 127 443 -20 hstemhm
          60 121 -101 62 hintmask 11010000
          121 -10 rmoveto
          hintmask 11100000
          -98 callsubr
          39 532 rmoveto
          29 -21 9 -26 -15 -23 -5 -5 -14 vhcurveto
          23 -69 -7 -209 3 -46 rrcurveto
          -27 1 18 -10 22 hhcurveto
          12 13 4 6 12 hvcurveto
          -13 26 -3 32 33 vvcurveto
          33 vlineto
          96 18 50 53 vvcurveto
          endchar
        </CharString>
        <CharString name="f">
          -208 18 -21 413 55 194 56 4 callgsubr
          -66 206 hintmask 11101000
          -16 callsubr
          hintmask 11110000
          -58 callgsubr
          hintmask 11101000
          -84 callsubr
          208 vlineto
          49 15 0 1 32 hvcurveto
          hintmask 11100100
          -68 callgsubr
          hintmask 11110000
          -20 callgsubr
          endchar
        </CharString>
        <CharString name="ff">
          100 18 -21 412 56 194 56 29 callsubr
          hintmask 11101100
          152 465 rmoveto
          -77 callsubr
          -15 -18 -1 -1 -11 hvcurveto
          hintmask 11110100
          -58 callgsubr
          hintmask 11101100
          -84 callsubr
          207 242 vlineto
          -82 callsubr
          208 vlineto
          49 15 0 1 32 hvcurveto
          hintmask 11110010
          -68 callgsubr
          hintmask 11110100
          -4 -39 -21 0 -76 hhcurveto
          -77 callsubr
          endchar
        </CharString>
        <CharString name="ffi">
          294 18 -21 412 56 24 -21 191 56 -52 -20 73 -20 4 callgsubr
          242 67 204 66 hintmask 1111000111000000
          152 465 rmoveto
          -77 callsubr
          -15 -18 -1 -1 -11 hvcurveto
          hintmask 1111001011000000
          -58 callgsubr
          hintmask 1110111011000000
          -84 callsubr
          207 242 vlineto
          -69 callgsubr
          -7 -16 -1 -2 -11 vhcurveto
          -15 callgsubr
          -85 -90 -51 -182 hvcurveto
          -18 vlineto
          endchar
        </CharString>
        <CharString name="ffl">
          328 18 -21 412 56 194 56 28 -20 29 callsubr
          95 66 hintmask 1111101010000000
          722 743 -62 callsubr
          -328 -334 rmoveto
          -82 callsubr
          208 vlineto
          49 15 0 1 32 hvcurveto
          hintmask 1111100110000000
          -68 callgsubr
          hintmask 1111101010000000
          -4 -39 -21 0 -76 hhcurveto
          -77 callsubr
          -242 47 hlineto
          94 13 53 66 32 35 -13 -18 20 vhcurveto
          9 12 11 16 19 vvcurveto
          24 -41 16 -47 vhcurveto
          hintmask 1111011010000000
          -142 -22 -109 -141 hvcurveto
          -11 callsubr
          hintmask 1111101010000000
          -58 callgsubr
          hintmask 1111011010000000
          -84 callsubr
          207 vlineto
          endchar
        </CharString>
        <CharString name="fi">
          -14 18 -21 413 55 24 -21 195 53 hstemhm
          5 148 -67 67 204 55 -55 74 hintmask 11111010
          384 468 rmoveto
          -7 -16 -1 -2 -11 hvcurveto
          -15 callgsubr
          hvcurveto
          hintmask 11110110
          -85 -90 -51 -182 hvcurveto
          -18 vlineto
          -11 callsubr
          hintmask 11111010
          -58 callgsubr
          hintmask 11110101
          2 18 41 3 19 hhcurveto
          -69 callgsubr
          vhcurveto
          endchar
        </CharString>
        <CharString name="fismall">
          158 17 -18 callgsubr
          168 74 hintmask 11110100
          34 callgsubr
          2 callsubr
          hintmask 11101100
          -3 -29 -16 0 -51 hhcurveto
          -64 63 hlineto
          hintmask 11110100
          -95 callsubr
          333 24 rmoveto
          -47 callsubr
          9 -13 37 29 callgsubr
          157 vlineto
          82 7 78 14 vvcurveto
          24 -24 6 -23 -11 -15 -1 -2 -12 5 callgsubr
          -62 -67 vvcurveto
          endchar
        </CharString>
        <CharString name="five">
          -10 59 323 57 163 70 8 -20 hstemhm
          113 49 210 77 hintmask 11101100
          355 592 rmoveto
          50 27 12 32 hvcurveto
          hintmask 11011100
          7 -4 18 -6 9 vhcurveto
          hintmask 11101100
          -6 -30 -54 -2 -27 hhcurveto
          -52 -117 0 2 -29 hvcurveto
          -13 -235 0 -5 -10 vvcurveto
          -22 4 -19 6 -6 vhcurveto
          3 24 29 2 30 hhcurveto
          116 63 -79 -84 -77 -52 -83 1 callgsubr
          153 84 106 128 116 -71 89 -152 -22 -24 -2 -4 -25 vhcurveto
          14 175 rlineto
          -2 36 104 -4 46 hhcurveto
          endchar
        </CharString>
        <CharString name="fiveoldstyle">
          -64 -159 58 293 53 150 70 8 -20 hstemhm
          330 71 hintmask 11101000
          311 395 rmoveto
          48 26 12 32 hvcurveto
          hintmask 11011000
          7 -4 18 -6 9 vhcurveto
          hintmask 11101000
          -6 -29 -52 -2 -26 hhcurveto
          -51 -113 0 2 -28 hvcurveto
          -13 -222 0 -5 -9 vvcurveto
          -21 4 -17 6 -6 vhcurveto
          4 30 31 1 28 hhcurveto
          122 46 -71 -75 -84 -62 -63 -113 -43 -26 11 19 -20 hvcurveto
          -21 -5 -12 -13 -19 vvcurveto
          -27 38 -24 79 161 90 91 128 120 -78 65 -125 -21 -34 -1 -4 -25 vhcurveto
          14 161 rlineto
          -2 35 100 -4 44 hhcurveto
          endchar
        </CharString>
        <CharString name="fl">
          20 18 -21 413 55 194 56 28 -20 4 callgsubr
          -66 206 95 66 hintmask 11110101
          -16 callsubr
          hintmask 11111001
          -58 callgsubr
          hintmask 11110101
          -84 callsubr
          208 vlineto
          49 15 0 1 32 hvcurveto
          hintmask 11110011
          -68 callgsubr
          hintmask 11111001
          -20 callgsubr
          76 68 -62 callsubr
          endchar
        </CharString>
        <CharString name="florin">
          -120 55 438 46 200 55 hstemhm
          193 72 -52 73 -73 209 hintmask 11100100
          280 376 -31 callgsubr
          3 52 -23 callsubr
          -37 -122 -137 -10 vhcurveto
          -14 -14 -1 -9 hhcurveto
          -21 -1 -10 -8 -16 37 callgsubr
          2 22 23 2 18 hhcurveto
          hintmask 11110000
          -18 -294 -22 callgsubr
          32 109 141 8 vhcurveto
          endchar
        </CharString>
        <CharString name="florinoldstyle">
          -120 55 398 46 182 55 hstemhm
          195 72 -54 72 -72 209 hintmask 11100100
          280 336 -31 callgsubr
          2 34 -23 callsubr
          -36 -104 -137 -10 vhcurveto
          -13 -16 -1 -8 hhcurveto
          -20 -11 -9 -16 -5 1 -5 2 -6 hvcurveto
          22 2 11 1 30 1 rrcurveto
          hintmask 11110000
          -16 -254 -22 callgsubr
          31 109 141 9 vhcurveto
          endchar
        </CharString>
        <CharString name="flsmall">
          277 0 53 -36 -18 callgsubr
          158 74 hintmask 10111010
          34 callgsubr
          hintmask 10110110
          2 callsubr
          -3 -29 -16 0 -51 hhcurveto
          -64 63 hlineto
          -95 callsubr
          323 18 rmoveto
          -50 -2 -50 -30 vvcurveto
          -30 8 -13 31 -1 vhcurveto
          12 76 -1 38 hhcurveto
          46 68 0 11 15 hvcurveto
          5 5 2 8 10 vvcurveto
          11 -2 14 -4 13 vhcurveto
          -12 -25 -71 -6 -66 hhcurveto
          -18 -18 1 1 -17 hvcurveto
          -6 33 0 34 124 vvcurveto
          69 vlineto
          82 -29 callsubr
          hintmask 01111010
          5 callsubr
          -63 -67 vvcurveto
          endchar
        </CharString>
        <CharString name="four">
          11 -21 218 68 397 -20 hstemhm
          334 70 -70 176 hintmask 11101000
          115 273 rmoveto
          71 112 96 132 57 62 rrcurveto
          -2 -114 -1 4 -196 25 callsubr
          216 388 rmoveto
          -61 -54 -169 -228 -55 -95 rrcurveto
          -1 -7 -1 -14 -7 vvcurveto
          -21 7 -18 16 -2 vhcurveto
          -7 57 104 0 108 hhcurveto
          -1 -60 -1 -66 -35 vvcurveto
          -73 callsubr
          15 15 -77 callgsubr
          67 81 11 callgsubr
          15 27 callsubr
          89 vlineto
          176 9 112 18 vvcurveto
          1 -9 -7 1 -13 hhcurveto
          -20 -21 -2 -10 -12 hvcurveto
          endchar
        </CharString>
        <CharString name="fouroldstyle">
          -11 -138 -21 211 65 357 -20 hstemhm
          296 66 -66 172 hintmask 11101000
          77 114 rmoveto
          71 103 96 121 57 57 rrcurveto
          -2 -105 -1 4 -180 25 callsubr
          219 348 rmoveto
          -60 -48 -164 -204 -53 -85 rrcurveto
          -1 -7 -1 -11 -7 vvcurveto
          -21 6 -18 16 -2 vhcurveto
          -7 55 100 0 104 hhcurveto
          -1 -56 -1 -65 -33 vvcurveto
          -73 callsubr
          15 11 -83 callsubr
          -19 60 0 67 77 11 callgsubr
          12 27 callsubr
          80 vlineto
          158 9 101 16 vvcurveto
          1 -9 -3 1 -13 hhcurveto
          -19 -20 -2 -10 -11 hvcurveto
          endchar
        </CharString>
        <CharString name="fraction">
          -219 -86 -21 847 -20 hstem
          -84 -57 rmoveto
          -4 -8 -2 -6 -6 vvcurveto
          -14 11 -7 17 -6 vhcurveto
          0 11 -3 10 vhcurveto
          25 61 35 73 39 78 292 585 rcurveline
          3 6 3 7 6 vvcurveto
          10 -6 10 -19 6 vhcurveto
          -7 3 -8 1 -9 1 -25 -60 -35 -74 -39 -78 rrcurveto
          endchar
        </CharString>
        <CharString name="g">
          7 -252 56 154 65 95 56 245 56 -56 73 hstemhm
          44 70 -43 70 213 70 -70 144 -92 64 hintmask 1111010100000000
          142 -37 rmoveto
          -5 26 26 0 31 hhcurveto
          103 hlineto
          hintmask 1110110010000000
          49 29 -11 -45 -51 -55 -47 -125 -93 -28 28 37 31 15 30 22 33 hvcurveto
          hintmask 1111010100000000
          212 324 rmoveto
          -74 -31 -39 -90 -78 -41 59 72 67 28 47 91 77 44 -60 -72 vhcurveto
          -120 -169 rmoveto
          99 91 64 114 42 -12 37 -21 29 hvcurveto
          12 22 29 8 23 hhcurveto
          8 9 0 -2 8 hvcurveto
          hintmask 1111001001000000
          5 13 3 12 10 vvcurveto
          25 -26 10 -23 -38 -31 -28 -28 -21 vhcurveto
          hintmask 1111010100000000
          25 -32 -43 14 -50 hhcurveto
          -110 -80 -78 -101 -76 36 -56 60 -27 hvcurveto
          hintmask 1111010001000000
          -42 -47 -27 -46 -22 vvcurveto
          -21 14 -13 16 -12 vhcurveto
          -43 -34 -23 -39 -37 vvcurveto
          -60 55 -58 133 131 116 65 103 86 -75 21 -73 vhcurveto
          -115 hlineto
          -29 -37 5 20 15 17 36 21 25 hvcurveto
          -4 17 18 -2 20 hhcurveto
          endchar
        </CharString>
        <CharString name="g_alt">
          6 -253 54 189 36 callsubr
          259 69 vstem
          256 419 -38 callgsubr
          118 -380 rmoveto
          1 -38 0 -34 -30 vvcurveto
          -48 -12 -35 -23 -23 vhcurveto
          -21 -21 -40 -9 -42 hhcurveto
          -59 -61 18 28 -23 hvcurveto
          -19 -14 -7 -13 -14 vvcurveto
          -36 74 -23 80 157 64 82 112 214 8 188 -32 callgsubr
          endchar
        </CharString>
        <CharString name="germandbls">
          9 -10 56 571 56 hstem
          85 66 59 60 57 70 8 70 vstem
          151 491 rmoveto
          91 53 35 49 42 32 -26 -48 vhcurveto
          -87 -117 -15 -77 -124 195 -12 -113 vvcurveto
          -37 -30 -32 -33 -33 -38 21 45 -9 vhcurveto
          -24 -7 -21 -9 -26 vvcurveto
          -46 58 -34 59 80 61 67 70 vhcurveto
          138 -205 25 78 64 127 -4 135 vvcurveto
          73 -66 37 -72 -84 -90 -61 -148 vhcurveto
          -262 vlineto
          -49 -1 -84 -19 -64 vhcurveto
          -5 11 15 -3 12 hhcurveto
          38 11 16 36 hvcurveto
          28 -1 51 68 vvcurveto
          endchar
        </CharString>
        <CharString name="grave">
          -310 546 -21 177 -20 hstem
          -50 190 vstem
          -15 702 rmoveto
          -103 callsubr
          endchar
        </CharString>
        <CharString name="greater">
          39 -21 454 -20 hstem
          337 251 rmoveto
          -30 -30 -147 -133 -40 -36 rrcurveto
          -19 10 20 -15 19 hhcurveto
          9 8 3 8 8 hvcurveto
          219 222 -219 210 rlineto
          7 -8 -8 4 -9 hhcurveto
          -21 -20 -18 -16 -8 hvcurveto
          40 -36 169 -143 8 -8 rrcurveto
          endchar
        </CharString>
        <CharString name="greaterequal">
          9 64 -46 -21 474 -20 hstemhm
          hintmask 10100000
          105 51 rmoveto
          -23 14 -19 22 vhcurveto
          36 27 5 53 hhcurveto
          hintmask 01100000
          55 53 -4 -4 44 hvcurveto
          3 15 0 3 7 vvcurveto
          hintmask 10100000
          18 -9 24 -27 vhcurveto
          -20 -69 -4 -28 hhcurveto
          -49 -50 1 6 -52 hvcurveto
          -3 -9 0 -5 -11 vvcurveto
          223 249 rmoveto
          -30 -24 -133 -88 -40 -29 rrcurveto
          -19 8 18 -20 23 hhcurveto
          9 10 6 7 8 hvcurveto
          212 167 -212 167 rlineto
          6 -8 -10 7 -9 hhcurveto
          -21 -20 -18 -21 -8 hvcurveto
          40 -29 155 -106 8 -6 rrcurveto
          endchar
        </CharString>
        <CharString name="guillemotleft">
          -37 20 callgsubr
          308 235 rmoveto
          -74 callgsubr
          -189 hmoveto
          -74 callgsubr
          endchar
        </CharString>
        <CharString name="guillemotright">
          -37 20 callgsubr
          146 235 rmoveto
          -75 callsubr
          189 hmoveto
          -75 callsubr
          endchar
        </CharString>
        <CharString name="guilsinglleft">
          -226 20 callgsubr
          119 235 rmoveto
          -74 callgsubr
          endchar
        </CharString>
        <CharString name="guilsinglright">
          -226 20 callgsubr
          146 235 rmoveto
          -75 callsubr
          endchar
        </CharString>
        <CharString name="h">
          -6 18 -21 22 -21 421 56 268 -20 hstemhm
          70 66 227 65 hintmask 01111100
          297 475 rmoveto
          -62 -55 -24 -38 -44 hvcurveto
          4 147 3 135 10 vvcurveto
          30 -21 8 -24 -8 -12 24 callgsubr
          6 -47 2 -83 -92 -54 callsubr
          hintmask 10111100
          -65 callgsubr
          4 87 16 vvcurveto
          118 -57 38 -78 vhcurveto
          endchar
        </CharString>
        <CharString name="hungarumlaut">
          -110 545 -21 178 -20 hstemhm
          7 191 -1 191 hintmask 11010000
          173 619 rmoveto
          hintmask 11100000
          -38 callsubr
          190 hmoveto
          -38 callsubr
          endchar
        </CharString>
        <CharString name="hyphen">
          -281 233 -28 callgsubr
          225 28 callgsubr
          -22 -31 -2 -25 -39 -34 4 -10 6 callgsubr
          32 29 1 23 36 24 -5 17 hhcurveto
          22 14 16 23 hvcurveto
          endchar
        </CharString>
        <CharString name="i">
          14 callgsubr
          471 -20 73 107 hstemhm
          53 103 -83 66 -55 callsubr
          4 53 -97 callsubr
          hvcurveto
          hintmask 00110000
          -78 callsubr
          vhcurveto
          endchar
        </CharString>
        <CharString name="iacute">
          14 callgsubr
          492 -21 234 -20 hstemhm
          36 191 -154 66 hintmask 11101000
          202 619 rmoveto
          hintmask 11110000
          -106 callsubr
          -102 -151 -99 callsubr
          endchar
        </CharString>
        <CharString name="icircumflex">
          14 callgsubr
          492 -21 211 -20 hstem
          73 66 vstem
          110 679 -80 callsubr
          -105 callgsubr
          -10 -211 -99 callsubr
          endchar
        </CharString>
        <CharString name="idieresis">
          14 callgsubr
          471 -20 73 107 hstemhm
          -34 103 4 66 5 103 -55 callsubr
          95 53 -97 callsubr
          hvcurveto
          hintmask 00110100
          -102 callgsubr
        </CharString>
        <CharString name="igrave">
          14 callgsubr
          492 -21 234 -20 hstemhm
          -24 190 -93 66 hintmask 11101000
          11 702 rmoveto
          hintmask 11110000
          -103 callsubr
          89 -234 -99 callsubr
          endchar
        </CharString>
        <CharString name="infinity">
          222 114 54 185 55 hstem
          40 60 533 60 vstem
          633 264 rmoveto
          -56 -38 -40 -54 -38 -49 36 60 -52 vhcurveto
          9 9 rlineto
          31 31 48 49 52 hhcurveto
          49 42 -32 -57 hvcurveto
          -441 -96 rmoveto
          -53 -39 42 47 52 35 44 51 71 65 -83 -15 11 hvcurveto
          -38 -37 -49 -49 -55 hhcurveto
          -4 240 rmoveto
          -84 -64 -63 -85 -83 63 -63 81 75 59 54 48 47 hvcurveto
          -69 67 50 -33 59 hhcurveto
          77 75 52 96 84 -60 62 -82 -77 -54 -54 -52 -52 hvcurveto
          56 -51 -54 50 -75 hhcurveto
          endchar
        </CharString>
        <CharString name="integral">
          -215 -175 55 804 55 hstemhm
          -30 220 -84 84 -68 68 hintmask 11010000
          106 400 rmoveto
          hintmask 11001000
          -133 16 -110 -125 vvcurveto
          -67 -9 -85 -42 -24 -13 19 28 -11 vhcurveto
          hintmask 11100000
          -23 -2 -30 -18 -29 vvcurveto
          -30 25 -23 39 101 55 94 251 vhcurveto
          112 -9 137 129 vvcurveto
          67 8 69 36 24 13 -19 -28 11 vhcurveto
          hintmask 11010000
          23 2 30 18 29 vvcurveto
          30 -25 23 -39 -103 -53 -116 -223 vhcurveto
          endchar
        </CharString>
        <CharString name="j">
          -286 -253 52 669 -20 73 107 hstemhm
          62 103 -85 70 hintmask 11001000
          107 468 rmoveto
          -8 -10 -24 callgsubr
          hvcurveto
          5 -65 2 -82 -87 -149 3 -139 -22 vvcurveto
          -90 -40 -32 -49 -41 -35 14 28 -27 vhcurveto
          -18 -13 -8 -13 -15 vvcurveto
          -31 55 -22 60 109 61 63 118 vhcurveto
          106 -4 86 70 145 8 78 17 -9 callgsubr
          6 53 -97 callsubr
          hvcurveto
          hintmask 00110000
          -78 callsubr
          vhcurveto
          endchar
        </CharString>
        <CharString name="j_alt">
          -286 -201 -21 690 -20 73 107 hstemhm
          62 103 -85 66 hintmask 11001000
          19 -222 rmoveto
          28 99 33 170 hvcurveto
          271 vlineto
          88 7 78 16 vvcurveto
          27 -21 7 -23 -8 -13 0 -3 -15 vhcurveto
          4 -57 3 -70 -77 -83 1 -130 -45 vvcurveto
          -111 -3 -43 -95 -20 vhcurveto
          -29 1 9 -22 26 hhcurveto
          94 743 -97 callsubr
          hvcurveto
          hintmask 00110000
          -78 callsubr
          vhcurveto
          endchar
        </CharString>
        <CharString name="k">
          -34 -10 246 183 56 268 -20 hstem
          68 66 214 72 vstem
          203 198 rmoveto
          34 -57 36 -67 44 -48 rrcurveto
          -24 22 19 -12 31 hhcurveto
          19 42 10 27 9 -5 12 -4 8 hvcurveto
          -4 -10 -12 0 -4 hhcurveto
          -25 -15 9 23 -22 hvcurveto
          -27 28 -24 43 -24 40 rrcurveto
          92 10 50 69 78 vvcurveto
          64 -42 59 -91 -45 -58 -20 -47 -50 vhcurveto
          1 158 6 121 18 -25 callsubr
          -8 -11 24 callgsubr
          -28 callsubr
          -116 vlineto
          -95 -94 callsubr
          145 vlineto
          40 35 56 32 45 hhcurveto
          51 27 -39 -43 -48 -36 -53 -79 -16 -17 3 4 -18 hvcurveto
          -4 -10 -1 -8 -6 vvcurveto
          -15 11 -4 15 -2 vhcurveto
          endchar
        </CharString>
        <CharString name="l">
          14 callgsubr
          746 -20 hstem
          68 66 vstem
          95 743 -33 callsubr
          38 -67 callgsubr
          -5 callgsubr
          endchar
        </CharString>
        <CharString name="less">
          39 -21 454 -20 hstem
          182 251 rmoveto
          8 8 169 143 40 36 rrcurveto
          16 -8 -20 18 -21 hhcurveto
          -9 -8 -4 -7 -8 hvcurveto
          -219 -210 219 -222 rlineto
          -8 8 8 -3 9 hhcurveto
          19 20 15 19 10 hvcurveto
          -40 36 -147 133 -30 30 rrcurveto
          endchar
        </CharString>
        <CharString name="lessequal">
          14 55 -42 -21 474 -20 hstemhm
          hintmask 10100000
          414 51 rmoveto
          11 0 5 -3 9 vhcurveto
          -6 -52 -50 -1 -49 -28 -69 4 -20 hhcurveto
          -8 callgsubr
          hvcurveto
          hintmask 01100000
          -7 0 -3 3 -15 vhcurveto
          hintmask 10100000
          4 44 53 4 55 53 27 -5 36 hhcurveto
          22 14 19 23 hvcurveto
          -223 249 rmoveto
          8 6 155 106 40 29 rrcurveto
          21 -8 -20 18 -21 hhcurveto
          -9 -10 -7 -6 -8 hvcurveto
          -212 -167 212 -167 rlineto
          -7 8 10 -6 9 hhcurveto
          23 18 20 19 8 hvcurveto
          -40 29 -133 88 -30 24 rrcurveto
          endchar
        </CharString>
        <CharString name="logicalnot">
          72 -21 221 52 hstem
          388 60 vstem
          447 324 rmoveto
          -355 hlineto
          -32 -10 -17 -20 -11 3 -9 4 -10 hvcurveto
          12 35 50 3 15 hhcurveto
          231 -36 hlineto
          -57 0 -64 -17 -56 vhcurveto
          -5 10 13 -3 11 hhcurveto
          36 8 16 35 hvcurveto
          endchar
        </CharString>
        <CharString name="lozenge">
          1 21 -21 686 -20 hstem
          414 343 rmoveto
          -158 -296 -158 296 158 296 rlineto
          -221 -296 rmoveto
          176 -325 rlineto
          -15 8 18 -3 19 hhcurveto
          18 18 5 13 9 hvcurveto
          176 325 -176 325 rlineto
          14 -7 -20 4 -18 hhcurveto
          -19 -18 -4 -14 -8 hvcurveto
          endchar
        </CharString>
        <CharString name="lslash">
          14 callgsubr
          746 -20 hstem
          68 66 vstem
          95 743 rmoveto
          -8 -11 -24 callgsubr
          hvcurveto
          -28 callsubr
          -83 vlineto
          -122 -93 rlineto
          -12 callsubr
          37 31 28 26 40 32 rrcurveto
          -1 -92 -1 -113 -47 -91 callgsubr
          150 vlineto
          137 105 -19 callsubr
          -34 -30 -41 -35 -45 -36 rrcurveto
          1 153 6 115 18 -25 callsubr
          vhcurveto
          endchar
        </CharString>
        <CharString name="m">
          262 18 -21 422 56 hstem
          79 68 209 68 207 65 vstem
          410 410 rmoveto
          47 -21 -43 18 -47 hhcurveto
          -55 -62 -25 -32 -40 hvcurveto
          3 callgsubr
          -70 callsubr
          31 37 50 24 36 hhcurveto
          44 44 -24 -88 hvcurveto
          -155 -5 -97 -19 -63 callgsubr
          -1 52 56 vvcurveto
          56 -1 76 -1 68 vhcurveto
          32 40 46 21 38 hhcurveto
          48 37 -32 -80 hvcurveto
          -45 -6 -147 -67 vvcurveto
          -65 callgsubr
          3 102 16 vvcurveto
          106 -57 35 -65 -58 -73 -29 -36 -36 vhcurveto
          endchar
        </CharString>
        <CharString name="macron">
          -239 557 52 -37 -21 64 -20 hstemhm
          hintmask 01100000
          272 588 rmoveto
          6 0 8 -2 13 vhcurveto
          hintmask 10000000
          -4 -33 -40 -2 -43 hhcurveto
          -22 hlineto
          hintmask 01100000
          -32 -59 6 -11 hhcurveto
          -21 -9 -14 -23 -9 0 -8 2 -10 hvcurveto
          hintmask 10000000
          5 37 52 1 15 hhcurveto
          22 hlineto
          hintmask 01100000
          53 51 -6 10 hhcurveto
          24 6 18 19 hvcurveto
          endchar
        </CharString>
        <CharString name="minus">
          223 -28 callgsubr
          466 257 -50 callsubr
          hintmask 10000000
          21 callgsubr
          hhcurveto
          hintmask 01100000
          -60 callgsubr
          hintmask 10000000
          -4 callsubr
          hhcurveto
          hintmask 01100000
          -50 callgsubr
          endchar
        </CharString>
        <CharString name="mu">
          2 -232 -21 243 56 422 -20 hstemhm
          67 52 -52 70 222 75 hintmask 11110100
          69 132 rmoveto
          -1 -95 -1 -105 -128 vvcurveto
          -73 callsubr
          12 17 -83 callsubr
          -21 59 -16 71 64 vvcurveto
          25 3 25 5 21 vhcurveto
          -22 25 35 -8 29 hhcurveto
          55 60 25 32 39 hvcurveto
          -40 22 -10 24 8 14 2 6 15 vhcurveto
          -14 52 -5 37 109 116 4 82 29 vvcurveto
          30 -21 8 -24 -8 -10 24 callgsubr
          6 -75 1 -80 -78 vvcurveto
          -42 0 -46 1 -43 vhcurveto
          -34 -39 -51 -21 -45 hhcurveto
          hintmask 11101100
          -53 -42 37 75 hvcurveto
          45 6 147 67 vvcurveto
          37 -14 14 -35 -15 -14 -4 -4 -10 vhcurveto
          14 -49 3 -51 -51 -60 -3 -100 -17 vvcurveto
          endchar
        </CharString>
        <CharString name="multiply">
          67 -21 413 -20 hstem
          307 252 rmoveto
          33 33 84 74 25 26 rrcurveto
          7 7 3 7 9 vvcurveto
          21 -20 21 -17 9 vhcurveto
          -33 -41 -114 -117 -8 -8 -51 54 -67 74 -14 14 rrcurveto
          8 -8 -8 3 -8 hhcurveto
          -23 -17 -22 -16 -10 hvcurveto
          40 -35 75 -72 50 -48 -57 -53 -71 -65 -15 -15 rrcurveto
          -7 -7 -3 -8 -8 vvcurveto
          -25 19 -13 19 -13 vhcurveto
          35 43 67 71 53 52 33 -33 74 -84 26 -25 rrcurveto
          -7 7 8 -3 8 hhcurveto
          23 18 20 17 10 hvcurveto
          -41 33 -117 114 -8 8 rrcurveto
          endchar
        </CharString>
        <CharString name="n">
          8 18 -21 421 56 hstem
          79 68 230 65 vstem
          60 460 rmoveto
          -70 callsubr
          34 41 50 21 43 hhcurveto
          54 44 -33 -79 hvcurveto
          -45 -6 -147 -67 vvcurveto
          -65 callgsubr
          3 102 16 vvcurveto
          106 -63 35 -71 -63 -69 -28 -29 -37 vhcurveto
          3 callgsubr
          endchar
        </CharString>
        <CharString name="nine">
          -9 60 222 57 285 59 hstem
          44 77 266 75 vstem
          250 330 rmoveto
          -73 -56 55 89 72 42 69 83 116 23 -111 -114 2 hvcurveto
          -42 -46 -49 -18 -42 hhcurveto
          4 344 rmoveto
          -134 -76 -110 -105 -116 87 -70 99 52 55 19 42 49 hvcurveto
          -146 -11 -77 -137 -152 hhcurveto
          -12 -14 2 2 -14 hvcurveto
          -2 -9 -2 -11 -9 vvcurveto
          -20 8 -15 33 206 113 202 196 142 -45 143 -163 vhcurveto
          endchar
        </CharString>
        <CharString name="nineoldstyle">
          -23 -159 57 166 55 300 56 hstem
          45 73 254 71 vstem
          245 475 rmoveto
          -133 -67 -117 -109 -96 45 -89 124 23 23 4 10 20 hvcurveto
          9 5 7 8 11 vvcurveto
          8 -3 10 -7 11 vhcurveto
          -8 -18 -18 -4 -19 hhcurveto
          -63 -50 47 100 77 37 76 83 103 31 -96 -110 -147 -78 -168 -166 -13 -14 2 2 -14 hvcurveto
          -2 -9 -2 -10 -9 vvcurveto
          -19 8 -14 33 206 113 206 182 132 -53 114 -145 vhcurveto
          endchar
        </CharString>
        <CharString name="notequal">
          -27 -21 172 57 135 65 177 -20 hstem
          466 158 -12 callgsubr
          hhcurveto
          -18 hlineto
          78 141 rlineto
          -3 39 35 -3 24 hhcurveto
          39 callsubr
          -26 -3 -36 -2 -35 -1 70 125 rcurveline
          4 7 2 12 callsubr
          -24 -51 -31 -61 -36 -65 rrcurveto
          -33 hlineto
          -60 callgsubr
          4 44 52 4 105 hhcurveto
          -79 -141 rlineto
          2 -42 -35 3 -12 -70 callgsubr
          24 2 24 3 39 1 -67 -119 rcurveline
          -41 callgsubr
          28 58 18 34 41 74 3 6 rcurveline
          52 hlineto
          -50 callgsubr
          endchar
        </CharString>
        <CharString name="ntilde">
          8 18 -21 22 -21 421 56 14 -21 62 -17 callgsubr
          79 68 230 65 hintmask 01100011
          60 460 rmoveto
          -70 callsubr
          34 41 50 21 43 hhcurveto
          54 44 -33 -79 hvcurveto
          -45 -6 -147 -67 vvcurveto
          hintmask 10100011
          -65 callgsubr
          3 102 16 vvcurveto
          106 -63 35 -71 -63 -69 -28 -29 -37 vhcurveto
          hintmask 01010011
          3 callgsubr
          345 150 -86 callgsubr
          hintmask 00001000
          -100 callsubr
          hintmask 00000100
          37 36 -45 41 hhcurveto
          hintmask 00001000
          43 callgsubr
        </CharString>
        <CharString name="numbersign">
          41 232 -53 53 116 53 -53 224 hstemhm
          130 58 107 58 hintmask 10011100
          206 272 rmoveto
          5 43 6 35 7 40 rrcurveto
          31 hlineto
          30 29 0 -1 26 hvcurveto
          -7 -60 -5 -37 -3 -19 rrcurveto
          -26 -1 -93 0 0 vvcurveto
          186 341 rmoveto
          -6 -7 0 -3 -14 hvcurveto
          hintmask 10101100
          -2 -40 -11 -79 -5 -49 rrcurveto
          -114 hlineto
          10 53 15 78 8 vvcurveto
          hintmask 01011100
          24 -15 8 -16 -6 -7 0 -3 -14 vhcurveto
          -2 -39 -11 -81 -5 -47 rrcurveto
          0 -61 1 -20 -47 -16 -15 -25 -8 0 -15 3 -10 vhcurveto
          43 12 46 4 45 2 -15 -116 rcurveline
          1 -31 -29 0 -23 hhcurveto
          -47 -16 -15 -25 -8 0 -14 3 -10 hvcurveto
          43 12 46 4 45 2 rrcurveto
          -8 -50 -13 -79 -17 vvcurveto
          hintmask 10101100
          9 callsubr
          26 8 62 3 27 vhcurveto
          32 hlineto
          hintmask 01101100
          30 29 0 -1 26 hvcurveto
          -8 -50 -13 -79 -17 vvcurveto
          hintmask 10011100
          9 callsubr
          25 7 61 3 26 vhcurveto
          -2 45 43 -3 12 hhcurveto
          46 1 34 33 1 hvcurveto
          -43 -3 -46 -2 -51 -2 6 45 4 27 7 42 rrcurveto
          -2 45 42 -3 12 hhcurveto
          46 1 35 33 1 hvcurveto
          -42 -3 -44 -1 -50 -2 rrcurveto
          11 62 13 68 7 vvcurveto
          24 -15 8 -16 vhcurveto
          endchar
        </CharString>
        <CharString name="o">
          14 -10 36 callsubr
          295 70 vstem
          -60 callsubr
          endchar
        </CharString>
        <CharString name="oacute">
          -10 callsubr
          21 callsubr
          70 107 191 -3 70 hintmask 11110100
          388 619 rmoveto
          hintmask 11111000
          -106 callsubr
          -126 -629 -101 callgsubr
          endchar
        </CharString>
        <CharString name="ocircumflex">
          -10 callsubr
          36 callgsubr
          70 295 70 hintmask 11011100
          263 679 -80 callsubr
          hintmask 10111100
          -105 callgsubr
          -1 -689 -101 callgsubr
          endchar
        </CharString>
        <CharString name="odieresis">
          -10 callsubr
          46 107 hstemhm
          45 70 7 16 callsubr
          7 70 hintmask 11010010
          -60 callsubr
          -59 303 -97 callsubr
          hvcurveto
          hintmask 00101100
          -102 callgsubr
        </CharString>
        <CharString name="oe">
          321 -10 56 156 50 167 56 hstem
          45 70 295 70 238 69 vstem
          626 420 -3 callsubr
          -216 -202 rmoveto
          -101 -52 -71 -96 -95 -52 90 110 102 52 71 95 94 54 -91 -110 vhcurveto
          -148 -228 rmoveto
          80 64 36 62 38 hvcurveto
          -68 42 74 -30 76 -44 callsubr
          -70 -73 -32 -68 -43 hvcurveto
          63 -37 -64 37 -81 hhcurveto
          -129 -88 -95 -148 -148 88 -94 129 hvcurveto
          endchar
        </CharString>
        <CharString name="ogonek">
          -41 -219 40 194 -20 hstemhm
          197 61 -61 187 hintmask 11010000
          328 15 rmoveto
          -77 -33 -54 -40 -73 vvcurveto
          -65 50 -23 48 45 44 20 24 10 -7 10 -16 10 vhcurveto
          -26 -17 -21 -8 -19 hhcurveto
          hintmask 11100000
          -26 -20 19 36 44 15 46 82 41 hvcurveto
          endchar
        </CharString>
        <CharString name="ograve">
          -10 callsubr
          21 callsubr
          70 -3 190 108 70 hintmask 11110100
          147 702 rmoveto
          hintmask 11101100
          -103 callsubr
          115 -712 -101 callgsubr
          endchar
        </CharString>
        <CharString name="one">
          0 57 -38 -21 675 -20 hstemhm
          116 199 -68 183 hintmask 10110000
          322 54 rmoveto
          -6 55 -1 62 78 vvcurveto
          62 vlineto
          152 8 145 27 vvcurveto
          30 -24 8 -17 -14 -66 -9 -7 -47 vhcurveto
          -29 -4 -10 -18 -21 vvcurveto
          -7 1 -7 2 -8 vhcurveto
          32 6 63 5 30 3 rrcurveto
          hintmask 10101000
          2 -74 1 -94 -84 -134 -2 -106 -57 vvcurveto
          -68 26 callgsubr
          49 0 27 hhcurveto
          hintmask 01101000
          75 59 -2 26 33 callgsubr
          -3 -26 -44 -1 -34 hhcurveto
          endchar
        </CharString>
        <CharString name="onehalf">
          454 -86 -21 108 52 167 51 130 51 221 -20 87 34 callsubr
          hintmask 11111110
          232 -57 -79 callsubr
          96 -200 -34 callgsubr
          -21 callsubr
          -43 callgsubr
          -387 -60 -76 callgsubr
          hintmask 11111101
          -59 callsubr
          -52 callsubr
        </CharString>
        <CharString name="oneoldstyle">
          -164 0 57 -38 -21 477 -20 hstemhm
          46 174 -65 160 hintmask 10110000
          227 54 rmoveto
          -6 38 -1 43 54 vvcurveto
          34 vlineto
          105 8 90 19 vvcurveto
          30 -24 8 -16 -14 -41 -8 -8 -48 vhcurveto
          -31 -5 -8 -20 -18 vvcurveto
          -6 1 -6 1 -5 vhcurveto
          32 6 39 4 33 4 rrcurveto
          hintmask 10101000
          2 -50 1 -56 -57 -91 -2 -63 -39 vvcurveto
          -48 26 callgsubr
          29 0 27 hhcurveto
          hintmask 01101000
          73 39 -2 25 33 callgsubr
          -2 -23 -27 -2 -34 hhcurveto
          endchar
        </CharString>
        <CharString name="onequarter">
          403 -86 -21 97 193 -54 54 37 51 402 -20 87 34 callsubr
          482 59 -59 135 hintmask 1101111001000000
          231 -57 -79 callsubr
          39 -343 -66 callgsubr
          hintmask 1011110101000000
          -16 callgsubr
          hintmask 1101111010000000
          31 callsubr
          hintmask 1101111001000000
          -23 callgsubr
          -476 -173 -76 callgsubr
          hintmask 1101111010000000
          -59 callsubr
          -52 callsubr
        </CharString>
        <CharString name="onesuperior">
          -128 220 51 -32 -21 455 34 callsubr
          hintmask 10110000
          233 268 -76 callgsubr
          hintmask 10101000
          -59 callsubr
          hhcurveto
          hintmask 01110000
          -52 callsubr
        </CharString>
        <CharString name="ordfeminine">
          -209 264 44 -31 -21 120 37 192 38 hstemhm
          43 55 102 50 hintmask 10111100
          161 -61 callgsubr
          -79 261 rmoveto
          26 11 29 10 20 hhcurveto
          50 8 -20 -53 hvcurveto
          -30 -1 -47 -5 -29 -8 rrcurveto
          -27 -7 -24 -16 -40 vvcurveto
          -63 41 -16 46 22 27 10 18 22 vhcurveto
          -15 2 7 -9 22 hhcurveto
          12 12 3 1 3 hvcurveto
          -9 27 -1 36 32 25 1 37 12 vvcurveto
          70 -34 20 -66 -47 -51 -18 -32 -11 12 -9 18 -4 vhcurveto
          116 -69 rmoveto
          -2 -14 0 -16 -11 vvcurveto
          -25 vlineto
          -15 -13 -22 -6 -19 hhcurveto
          -24 -20 10 34 32 43 5 57 6 hvcurveto
          endchar
        </CharString>
        <CharString name="ordmasculine">
          -196 264 44 -31 -21 120 39 189 39 hstemhm
          30 54 148 53 hintmask 10111100
          168 -61 callgsubr
          -11 68 rmoveto
          77 51 52 81 82 -51 52 -77 -76 -51 -52 -82 -81 51 -52 76 hvcurveto
          75 125 rmoveto
          -51 -27 -35 -48 -47 -26 45 57 52 26 35 47 48 27 -46 -57 vhcurveto
          endchar
        </CharString>
        <CharString name="oslash">
          14 -63 -21 74 -39 callsubr
          83 38 callsubr
          219 rmoveto
          -101 -52 -72 -93 -28 -19 5 11 -19 vhcurveto
          168 303 rlineto
          27 -37 16 -53 -56 vvcurveto
          -295 24 rmoveto
          103 51 73 93 27 20 -6 -12 21 vhcurveto
          -169 -304 rlineto
          -29 36 -14 54 56 vvcurveto
          -30 -276 rmoveto
          -41 callgsubr
          13 28 16 31 17 33 rrcurveto
          -12 27 30 -6 34 hhcurveto
          130 88 94 148 85 -29 67 -49 42 hvcurveto
          45 81 rlineto
          3 7 3 12 callsubr
          -15 -31 -17 -35 -19 -37 rrcurveto
          13 -28 -32 7 -34 hhcurveto
          -130 -87 -95 -149 -85 29 -68 50 -41 hvcurveto
          endchar
        </CharString>
        <CharString name="otilde">
          -10 callsubr
          55 -17 callgsubr
          45 70 295 70 hintmask 11001100
          -60 callsubr
          -5 392 -86 callgsubr
          hintmask 00100000
          -100 callsubr
          hintmask 00010000
          37 36 -45 41 hhcurveto
          hintmask 00100000
          43 callgsubr
        </CharString>
        <CharString name="p">
          6 -232 -21 243 56 373 55 hstem
          79 66 256 71 vstem
          60 460 rmoveto
          17 -47 2 -91 -73 -127 -3 -136 -182 -46 callgsubr
          -53 -57 -21 -36 -48 hvcurveto
          41 -24 9 -19 -16 -12 -3 -5 -11 vhcurveto
          87 -384 rmoveto
          107 -1 71 -1 110 vhcurveto
          33 39 49 2 callgsubr
          endchar
        </CharString>
        <CharString name="paragraph">
          -28 -105 -21 640 61 hstemhm
          45 203 55 71 -71 160 hintmask 11101000
          405 514 rmoveto
          40 18 11 23 7 -2 8 -3 9 hvcurveto
          -1 -31 -29 0 -27 -48 -79 4 -19 hhcurveto
          -99 -81 -67 -116 -106 74 -68 84 12 33 0 17 91 3 126 7 64 hvcurveto
          9 -2 46 0 0 vvcurveto
          -4 -56 -6 -129 -220 vvcurveto
          -102 -4 -88 -13 -37 vhcurveto
          -4 10 13 -4 16 hhcurveto
          hintmask 11110000
          43 6 24 27 hvcurveto
          92 -4 90 59 vvcurveto
          135 7 143 6 70 vhcurveto
          endchar
        </CharString>
        <CharString name="parenleft">
          -168 -182 -21 934 -20 hstem
          90 72 vstem
          90 266 rmoveto
          -247 127 -222 50 11 11 7 16 11 vhcurveto
          -76 88 -62 172 186 vvcurveto
          160 53 187 85 95 vhcurveto
          16 -11 -11 7 -11 hhcurveto
          -52 -125 -230 -235 hvcurveto
          endchar
        </CharString>
        <CharString name="parenright">
          -191 -182 -21 934 -20 hstem
          158 72 vstem
          230 266 rmoveto
          235 -125 230 -52 -11 -11 -7 -16 -11 vhcurveto
          85 -95 53 -187 -160 vvcurveto
          -186 -62 -172 -76 -88 vhcurveto
          -16 11 11 -7 11 hhcurveto
          50 127 222 247 hvcurveto
          endchar
        </CharString>
        <CharString name="partialdiff">
          8 -10 56 300 55 212 60 hstem
          50 71 270 68 vstem
          266 346 rmoveto
          39 43 -17 -33 41 hvcurveto
          -119 -8 -47 -131 -111 hhcurveto
          -72 -30 57 65 104 63 74 82 hvcurveto
          -161 252 rmoveto
          10 33 30 5 27 hhcurveto
          124 69 -99 -168 3 hvcurveto
          37 -47 -51 18 -47 hhcurveto
          -109 -87 -92 -127 -98 54 -94 119 171 65 175 158 210 -95 140 -212 -38 -19 -12 -25 -10 3 -13 7 -15 hvcurveto
          endchar
        </CharString>
        <CharString name="percent">
          241 -24 callsubr
          hintmask 0111111111000000
          560 -10 rmoveto
          87 55 65 101 102 -55 64 -87 -88 -55 -64 -102 -101 55 -65 88 hvcurveto
          76 159 rmoveto
          hintmask 1011111111000000
          -62 -30 -47 -47 -53 -25 68 60 59 33 46 46 51 25 -66 -58 vhcurveto
          -485 -124 rmoveto
          -6 -9 -2 -8 -7 vvcurveto
          -46 callsubr
          -254 -159 -87 callgsubr
          endchar
        </CharString>
        <CharString name="percentoldstyle">
          283 -29 callgsubr
          hintmask 1110111111000000
          608 -10 -88 callgsubr
          vhcurveto
          hintmask 1101111111000000
          -81 callsubr
        </CharString>
        <CharString name="period">
          -280 -10 127 hstem
          50 121 vstem
          111 -2 callgsubr
          endchar
        </CharString>
        <CharString name="periodcentered">
          -310 197 127 hstem
          40 121 vstem
          101 197 rmoveto
          0 callgsubr
        </CharString>
        <CharString name="perthousand">
          581 -24 callsubr
          55 64 155 66 hintmask 1011111111110000
          151 25 rmoveto
          -6 -9 -2 -8 -7 vvcurveto
          hintmask 0111111111110000
          -46 callsubr
          453 -502 -87 callgsubr
          -416 -159 -87 callgsubr
          -443 184 -87 callgsubr
          endchar
        </CharString>
        <CharString name="perthousandoldstyle">
          613 -29 callgsubr
          57 58 155 60 hintmask 1110111111110000
          938 -10 -88 callgsubr
          51 33 40 46 51 25 -58 -50 vhcurveto
          -406 -140 -88 callgsubr
          vhcurveto
          hintmask 1101111111110000
          -81 callsubr
        </CharString>
        <CharString name="pi">
          1 18 -21 416 51 hstem
          117 58 141 66 vstem
          10 426 rmoveto
          -7 2 -12 6 -12 vhcurveto
          29 12 29 5 34 1 rrcurveto
          -21 7 -106 -117 vvcurveto
          -31 vlineto
          -33 0 -57 -19 -43 vhcurveto
          -5 10 13 -3 11 hhcurveto
          34 9 16 36 hvcurveto
          35 -2 93 67 vvcurveto
          170 76 vlineto
          20 24 0 -1 24 hvcurveto
          -1 -43 0 -65 -61 -67 -2 -93 -35 -35 callgsubr
          38 -67 callgsubr
          43 0 57 33 vvcurveto
          31 vlineto
          115 6 105 1 23 vhcurveto
          51 hlineto
          36 16 9 32 9 -3 13 -5 9 hvcurveto
          -19 -43 -57 0 -33 hhcurveto
          -71 hlineto
          -123 -82 2 -13 hhcurveto
          -49 -3 -22 -19 hvcurveto
          endchar
        </CharString>
        <CharString name="plus">
          44 -21 201 57 200 -20 hstemhm
          238 65 -65 248 hintmask 11110000
          296 280 rmoveto
          47 7 82 31 callgsubr
          6 -52 2 -133 -12 vvcurveto
          2 -74 -60 5 -68 callsubr
          53 4 64 3 69 1 rrcurveto
          -2 -78 -5 -66 16 callgsubr
          68 74 vvcurveto
          47 72 -7 36 hhcurveto
          hintmask 11101000
          28 callsubr
          -123 -2 -12 hhcurveto
          endchar
        </CharString>
        <CharString name="plusminus">
          14 57 -44 -21 258 57 -57 217 hstemhm
          59 244 -65 65 -65 238 hintmask 10011000
          456 48 -12 callgsubr
          -74 -73 7 -20 hhcurveto
          hintmask 10101000
          -71 callsubr
          hintmask 10100100
          -4 callsubr
          hhcurveto
          hintmask 10100010
          -50 callgsubr
          -160 272 rmoveto
          47 7 42 31 callgsubr
          hintmask 01101000
          6 -52 2 -93 -12 vvcurveto
          2 -74 -50 5 -68 callsubr
          hintmask 10101000
          53 4 54 3 69 1 rrcurveto
          -2 -78 -5 -16 16 callgsubr
          18 74 vvcurveto
          47 62 -7 36 hhcurveto
          hintmask 01101000
          28 callsubr
          -113 -2 -12 hhcurveto
          endchar
        </CharString>
        <CharString name="product">
          172 18 -21 603 62 2 -20 24 -20 hstemhm
          162 65 219 75 hintmask 10011100
          679 635 rmoveto
          7 0 12 -3 14 vhcurveto
          hintmask 11001100
          -4 -65 -81 -2 -86 hhcurveto
          -190 hlineto
          hintmask 10101100
          -64 -74 2 -39 hhcurveto
          -39 -18 -7 -32 -12 3 -17 5 -9 hvcurveto
          hintmask 11001100
          32 7 34 4 60 2 rrcurveto
          1 -27 7 -93 -98 vvcurveto
          -179 vlineto
          -64 0 -71 -19 -63 vhcurveto
          -5 10 19 -3 13 hhcurveto
          36 8 18 39 hvcurveto
          39 -2 74 64 vvcurveto
          370 vlineto
          1 49 61 0 80 hhcurveto
          29 -371 hlineto
          -96 callgsubr
          179 vlineto
          97 7 92 1 29 vhcurveto
          -2 56 44 -2 12 hhcurveto
          30 8 19 20 hvcurveto
          endchar
        </CharString>
        <CharString name="q">
          7 -232 -21 243 36 callsubr
          260 66 vstem
          374 39 rmoveto
          -59 -4 -90 -92 vvcurveto
          -27 6 -24 43 16 13 4 0 callsubr
          -13 38 -4 93 106 vvcurveto
          162 10 189 -32 callgsubr
          -118 380 -38 callgsubr
          endchar
        </CharString>
        <CharString name="question">
          -129 -10 127 511 56 hstemhm
          121 121 -107 73 80 74 hintmask 11101000
          219 199 rmoveto
          hintmask 11011000
          -8 24 -3 21 18 114 154 12 163 vvcurveto
          41 -16 39 -44 26 vhcurveto
          19 -32 -41 8 -40 hhcurveto
          -77 -72 -32 -55 -24 13 -15 33 -5 hvcurveto
          47 12 56 28 49 hhcurveto
          18 18 -4 -8 14 hvcurveto
          25 -15 10 -23 -25 -130 -153 -42 -124 vvcurveto
          -34 11 -34 35 10 13 3 7 15 vhcurveto
          -37 -209 rmoveto
          0 callgsubr
        </CharString>
        <CharString name="questiondown">
          -154 -219 56 511 127 hstemhm
          20 74 46 121 -87 73 hintmask 11110000
          163 266 rmoveto
          hintmask 11101000
          8 -24 3 -21 -18 -114 -154 -12 -163 vvcurveto
          -41 16 -39 44 -26 vhcurveto
          -19 32 41 -8 40 hhcurveto
          77 72 32 55 24 -13 15 -33 5 hvcurveto
          -47 -12 -56 -28 -49 hhcurveto
          -18 -18 4 8 -14 hvcurveto
          -25 15 -10 23 25 130 153 42 124 vvcurveto
          34 -11 34 -35 -10 -13 -3 -7 -15 vhcurveto
          37 209 rmoveto
          -54 callgsubr
          endchar
        </CharString>
        <CharString name="questiondownsmall">
          -186 -44 56 387 127 hstemhm
          20 74 21 121 -88 73 hintmask 11101000
          175 526 rmoveto
          hintmask 11110000
          -54 callgsubr
          -38 -209 rmoveto
          6 -16 5 -21 -12 -77 -128 -13 -119 vvcurveto
          -78 86 -25 64 67 63 29 50 23 -14 15 -36 5 vhcurveto
          -41 -10 -44 -25 -38 hhcurveto
          -35 -29 18 33 hvcurveto
          85 127 37 88 vvcurveto
          27 -11 27 -34 -9 -12 -3 -7 -18 vhcurveto
          endchar
        </CharString>
        <CharString name="questionsmall">
          -186 -9 127 387 56 hstemhm
          89 121 -106 73 54 74 hintmask 11011000
          150 -9 rmoveto
          hintmask 11101000
          -98 callsubr
          38 209 rmoveto
          -6 16 -5 21 12 77 128 13 119 vvcurveto
          78 -86 25 -64 -67 -63 -29 -50 -23 14 -15 36 -5 vhcurveto
          41 10 44 25 38 hhcurveto
          35 29 -18 -33 hvcurveto
          -85 -127 -37 -88 vvcurveto
          -27 11 -27 34 9 12 3 7 18 vhcurveto
          endchar
        </CharString>
        <CharString name="quotedbl">
          -166 502 -21 256 -20 hstemhm
          50 89 -75 75 77 89 -75 75 hintmask 11101000
          50 698 rmoveto
          hintmask 11100100
          -71 callgsubr
          hintmask 11101000
          -25 -22 -14 -25 hvcurveto
          166 hmoveto
          hintmask 11011000
          -71 callgsubr
          hintmask 11101000
          -25 -22 -14 -25 hvcurveto
          endchar
        </CharString>
        <CharString name="quotedblbase">
          -100 -143 22 callgsubr
          47 13 callgsubr
          72 13 callgsubr
          hintmask 11101000
          106 -22 -79 callgsubr
        </CharString>
        <CharString name="quotedblleft">
          -102 496 -21 221 42 hstemhm
          30 62 -62 121 76 62 -62 121 hintmask 11011000
          289 617 rmoveto
          -56 callsubr
          vhcurveto
          hintmask 11101000
          11 callsubr
          hvcurveto
          hintmask 11100100
          -34 7 -15 25 27 vvcurveto
          -197 hmoveto
          -56 callsubr
          11 callsubr
          vhcurveto
          hintmask 11101000
          -34 7 -15 25 27 vvcurveto
          endchar
        </CharString>
        <CharString name="quotedblright">
          -56 477 22 callgsubr
          71 13 callgsubr
          72 13 callgsubr
          hintmask 11101000
          130 598 -79 callgsubr
        </CharString>
        <CharString name="quoteleft">
          -334 498 -21 221 42 hstemhm
          17 62 -62 121 hintmask 11010000
          79 619 rmoveto
          -56 callsubr
          11 callsubr
          vhcurveto
          hintmask 11100000
          -34 7 -15 25 27 vvcurveto
          endchar
        </CharString>
        <CharString name="quoteright">
          -267 477 22 callgsubr
          63 13 callgsubr
          hintmask 11100000
          122 598 rmoveto
          -98 callgsubr
          hintmask 11010000
          34 -7 15 -25 -27 vvcurveto
          endchar
        </CharString>
        <CharString name="quotesinglbase">
          -293 -143 22 callgsubr
          47 13 callgsubr
          hintmask 11100000
          106 -22 rmoveto
          -98 callgsubr
          hintmask 11010000
          34 -7 15 -25 -27 vvcurveto
          endchar
        </CharString>
        <CharString name="quotesingle">
          -272 502 -21 256 -20 hstemhm
          60 89 -75 75 hintmask 11100000
          60 698 rmoveto
          hintmask 11010000
          -71 callgsubr
          hintmask 11100000
          -25 -22 -14 -25 hvcurveto
          endchar
        </CharString>
        <CharString name="r">
          -196 18 -21 413 65 hstem
          67 66 vstem
          94 468 -96 callsubr
          vvcurveto
          51 0 42 1 34 vhcurveto
          48 25 40 32 38 hhcurveto
          17 16 -6 -13 15 hvcurveto
          13 17 7 15 13 vvcurveto
          23 -17 16 -32 -48 -49 -45 -35 -23 vhcurveto
          17 1 12 6 vvcurveto
          30 -19 8 -24 vhcurveto
          endchar
        </CharString>
        <CharString name="radical">
          46 -11 -21 770 -20 hstem
          161 481 rmoveto
          -35 -9 -62 -31 -23 -14 rrcurveto
          -9 -6 -2 -7 -6 vvcurveto
          -11 9 -9 8 -4 vhcurveto
          16 9 34 19 17 7 210 -451 rcurveline
          6 hlineto
          24 13 6 28 6 hvcurveto
          137 692 4 10 12 vvcurveto
          14 -8 8 -23 -6 -6 0 -1 -7 vhcurveto
          -124 -645 rlineto
          endchar
        </CharString>
        <CharString name="registered">
          96 207 50 -50 238 -120 238 -32 32 60 50 hstemhm
          100 59 83 51 84 50 71 59 hintmask 0101111110000000
          498 440 rmoveto
          -112 -77 -71 -92 -93 -77 71 112 112 77 71 93 92 77 -71 -112 vhcurveto
          59 hmoveto
          134 -103 99 -125 -129 -100 -99 -134 -133 100 -100 129 125 103 100 133 vhcurveto
          -147 -80 rmoveto
          -12 13 -23 30 -12 21 rrcurveto
          39 8 25 21 38 vvcurveto
          58 -55 14 -53 -18 -38 -3 -2 -25 vhcurveto
          3 -22 1 -28 -31 vvcurveto
          -69 vlineto
          -19 -2 -32 -9 vvcurveto
          hintmask 1010111110000000
          -15 7 -8 24 11 12 1 4 7 vhcurveto
          -8 23 0 23 21 vvcurveto
          26 vlineto
          10 -3 12 0 0 vvcurveto
          12 -20 26 -33 13 -19 rrcurveto
          -22 15 17 -3 12 hhcurveto
          17 7 5 13 3 0 4 -2 4 hvcurveto
          -10 -5 1 7 -7 hvcurveto
          -90 85 rmoveto
          -10 -7 2 2 -10 hvcurveto
          45 0 25 -1 10 vhcurveto
          1 8 9 1 6 hhcurveto
          36 26 -9 -31 -34 -29 -12 -28 hvcurveto
          endchar
        </CharString>
        <CharString name="ring">
          -358 520 48 94 48 hstem
          -22 57 74 57 vstem
          109 610 rmoveto
          -25 -12 -17 -24 -24 -14 23 28 27 14 16 24 23 13 -22 -30 vhcurveto
          -36 -90 rmoveto
          56 37 38 57 58 -37 37 -56 -56 -39 -37 -58 -57 39 -38 56 hvcurveto
          endchar
        </CharString>
        <CharString name="s">
          -102 -39 callgsubr
          hstemhm
          50 60 198 47 -47 60 hintmask 11110000
          310 354 -6 callsubr
          82 -110 vvcurveto
          -56 -42 -22 -54 -36 callgsubr
          vhcurveto
          hintmask 11101000
          83 89 43 102 hvcurveto
          175 -258 -73 111 vvcurveto
          48 42 23 42 20 callsubr
          endchar
        </CharString>
        <CharString name="scaron">
          -102 -39 callgsubr
          211 -20 hstemhm
          50 60 198 47 -47 60 hintmask 11111000
          222 526 -95 callgsubr
          88 -172 -6 callsubr
          92 -120 vvcurveto
          -56 -42 -22 -54 -36 callgsubr
          vhcurveto
          hintmask 11110100
          83 89 43 102 hvcurveto
          175 -258 -83 121 vvcurveto
          48 42 23 42 20 callsubr
          endchar
        </CharString>
        <CharString name="section">
          -66 -78 57 637 56 hstemhm
          55 60 -38 59 177 62 -40 60 hintmask 11101000
          115 351 rmoveto
          22 5 19 9 14 vhcurveto
          76 -69 130 3 -97 vvcurveto
          -24 -6 -18 -8 -13 vhcurveto
          -76 65 -130 7 91 vvcurveto
          -60 -18 rmoveto
          -176 258 44 -144 vvcurveto
          -58 -42 -20 -48 -76 -43 26 39 -14 vhcurveto
          -24 -7 -21 -9 -26 vvcurveto
          -46 77 -34 79 115 59 70 76 29 -9 30 -17 28 vhcurveto
          hintmask 11010100
          28 27 18 39 40 180 -259 -44 149 vvcurveto
          50 41 20 43 20 callsubr
          32 8 13 14 20 vvcurveto
          55 -85 24 -52 -100 -67 -57 -83 -28 8 -32 17 -33 vhcurveto
          hintmask 11100100
          -28 -25 -19 -36 -45 vvcurveto
          endchar
        </CharString>
        <CharString name="semicolon">
          -265 -143 42 452 127 hstemhm
          48 13 callgsubr
          hintmask 11100000
          108 351 rmoveto
          -98 callsubr
          -1 -373 rmoveto
          -98 callgsubr
          hintmask 11010000
          34 -7 15 -25 -27 vvcurveto
          endchar
        </CharString>
        <CharString name="seven">
          11 -21 602 70 8 -20 hstemhm
          hintmask 11000000
          411 597 rmoveto
          -48 -133 -158 -306 -124 -129 rrcurveto
          -26 23 23 -13 18 hhcurveto
          23 19 22 47 26 hvcurveto
          75 137 167 314 10 callgsubr
          -51 -27 0 -225 -7 callsubr
          59 53 168 3 2 61 vhcurveto
          endchar
        </CharString>
        <CharString name="sevenoldstyle">
          -89 -138 -21 555 70 8 -20 hstemhm
          hintmask 11000000
          325 401 rmoveto
          -49 -133 -124 -259 -126 -129 rrcurveto
          -16 13 26 -23 25 hhcurveto
          25 20 27 42 23 hvcurveto
          75 138 136 266 10 callgsubr
          -52 -32 0 -193 -7 callsubr
          60 54 139 3 2 62 vhcurveto
          endchar
        </CharString>
        <CharString name="six">
          -10 59 285 57 222 60 hstem
          59 75 266 77 vstem
          271 334 rmoveto
          73 56 -55 -89 -72 -42 -69 -83 -116 -23 111 114 -2 hvcurveto
          42 46 49 18 42 hhcurveto
          -4 -344 rmoveto
          134 76 110 105 116 -87 70 -99 -52 -55 -19 -42 -49 hvcurveto
          146 11 77 137 152 hhcurveto
          12 14 -2 -2 14 hvcurveto
          2 9 2 11 9 vvcurveto
          20 -8 15 -33 -206 -113 -202 -196 -142 45 -143 163 vhcurveto
          endchar
        </CharString>
        <CharString name="sixoldstyle">
          -23 -10 56 300 55 166 57 hstem
          45 71 254 73 vstem
          243 -10 rmoveto
          133 67 117 109 96 -45 89 -124 -23 -23 -4 -10 -20 hvcurveto
          -9 -5 -7 -8 -11 vvcurveto
          -8 3 -10 7 -11 vhcurveto
          8 18 18 4 19 hhcurveto
          63 50 -47 -100 -77 -37 -76 -83 -103 -31 96 110 147 78 168 166 13 14 -2 -2 14 hvcurveto
          2 9 2 10 9 vvcurveto
          19 -8 14 -33 -206 -113 -206 -182 -132 53 -114 145 vhcurveto
          endchar
        </CharString>
        <CharString name="slash">
          24 callsubr
          0 94 587 15 vvcurveto
          21 -14 6 -22 vhcurveto
          0 -12 0 -9 -3 vhcurveto
          -6 -65 -11 -81 -13 -86 rrcurveto
          -94 -594 0 -4 -3 vvcurveto
          -15 7 -13 26 7 8 1 2 9 vhcurveto
          6 65 11 81 13 86 rrcurveto
          endchar
        </CharString>
        <CharString name="space">
          -281 endchar
        </CharString>
        <CharString name="st">
          260 -10 53 368 53 22 -21 31 -21 127 42 hstemhm
          50 60 179 39 -20 47 -47 61 50 35 callsubr
          hintmask 1110111001000000
          485 465 rmoveto
          -42 callsubr
          hintmask 1110111000010000
          -61 callsubr
          hintmask 1101111000100000
          -66 callsubr
          -3 -44 -31 -2 -93 hhcurveto
          2 27 2 45 17 vvcurveto
          19 -51 72 -106 -73 -69 -43 -83 -18 3 -19 7 -22 vhcurveto
          11 -27 -30 5 -24 hhcurveto
          -82 -86 -47 -83 hvcurveto
          hintmask 1110110011000000
          -185 258 79 -114 vvcurveto
          -60 -41 -19 -55 -36 callgsubr
          85 88 39 107 vhcurveto
          167 -259 -71 117 vvcurveto
          50 41 20 43 20 callsubr
          hintmask 1110110101000000
          32 8 13 14 20 vvcurveto
          hintmask 1110111000100000
          30 -27 13 51 vvcurveto
          62 48 50 60 49 22 -19 -16 1 vhcurveto
          2 -28 2 -48 1 -26 rrcurveto
          endchar
        </CharString>
        <CharString name="sterling">
          -3 55 284 44 228 65 hstem
          147 66 7 79 vstem
          410 391 rmoveto
          -29 -4 -49 -4 -53 -3 rrcurveto
          -25 62 -41 51 48 vvcurveto
          47 32 20 33 26 27 -12 -23 14 vhcurveto
          15 7 19 17 19 vvcurveto
          40 -44 17 -34 -95 -59 -89 -72 -46 25 -42 20 -47 vhcurveto
          -13 -39 -2 -1 -12 hvcurveto
          -20 -1 -11 -8 -17 37 callgsubr
          3 34 37 1 37 hhcurveto
          7 -22 5 -23 -24 vvcurveto
          -65 -51 -92 -99 -60 vhcurveto
          -19 1 -11 8 -11 -42 callgsubr
          -23 -41 0 3 -23 hvcurveto
          116 95 37 76 64 vvcurveto
          15 -2 14 -3 14 vhcurveto
          -1 25 23 0 20 hhcurveto
          30 22 3 33 7 -1 10 -3 6 hvcurveto
          endchar
        </CharString>
        <CharString name="sterlingoldstyle">
          -3 55 231 43 191 63 hstem
          145 66 7 79 vstem
          408 337 rmoveto
          -29 -4 -50 -4 -52 -3 rrcurveto
          -26 52 -40 42 41 vvcurveto
          39 32 17 33 26 27 -12 -22 14 vhcurveto
          15 7 19 16 19 vvcurveto
          38 -44 17 -34 -95 -59 -76 -62 -40 27 -37 21 -42 vhcurveto
          -1 -25 -24 -2 -18 hhcurveto
          -20 -1 -11 -8 -16 37 callgsubr
          3 35 39 1 37 hhcurveto
          5 -16 4 -16 -17 vvcurveto
          -56 -51 -79 -98 -50 vhcurveto
          -1 -4 0 -4 -3 vvcurveto
          -11 3 -10 6 -8 -42 callgsubr
          -22 -39 0 3 -23 hvcurveto
          114 78 36 63 54 vvcurveto
          10 -1 10 -2 10 vhcurveto
          -1 24 23 0 19 hhcurveto
          30 22 3 32 7 -1 10 -3 6 hvcurveto
          endchar
        </CharString>
        <CharString name="summation">
          118 -62 71 589 60 hstem
          456 598 rmoveto
          18 -26 11 -23 18 -38 rrcurveto
          -1 3 2 0 2 hhcurveto
          10 8 5 11 17 -14 75 -9 40 hvcurveto
          -447 hlineto
          -13 -9 -12 -16 hvcurveto
          200 -344 -211 -329 rlineto
          0 1 -19 14 vhcurveto
          510 hlineto
          9 39 20 102 -2 callsubr
          -363 hlineto
          151 243 rlineto
          13 21 11 18 15 vvcurveto
          5 -1 4 -3 6 vhcurveto
          -158 278 rlineto
          endchar
        </CharString>
        <CharString name="t">
          -159 -10 53 367 54 -54 170 -94 -21 hstemhm
          0 35 callsubr
          hintmask 11010010
          96 411 rmoveto
          -61 callsubr
          hintmask 11010100
          -66 callsubr
          -4 -33 -42 -1 -93 hhcurveto
          1 16 3 52 10 vvcurveto
          hintmask 10101000
          31 -23 7 -25 -11 -12 -1 -2 -10 vhcurveto
          hintmask 11010100
          2 -24 3 -58 1 -30 rrcurveto
          -28 hlineto
          hintmask 11011000
          -42 callsubr
          endchar
        </CharString>
        <CharString name="thorn">
          -6 -232 -21 243 -39 callsubr
          268 -20 hstem
          67 67 255 71 vstem
          135 76 rmoveto
          77 -1 59 153 vvcurveto
          32 39 48 2 callgsubr
          -1 345 rmoveto
          1 152 6 114 18 -25 callsubr
          -8 -11 24 callgsubr
          6 -77 1 -52 -138 vvcurveto
          -244 vlineto
          -121 -3 -132 -172 -46 callgsubr
          -52 -55 -20 -34 -47 hvcurveto
          endchar
        </CharString>
        <CharString name="three">
          -10 59 277 49 161 137 -59 59 hstemhm
          354 77 -56 77 hintmask 11101000
          325 364 rmoveto
          75 36 31 61 58 vvcurveto
          78 -59 76 -115 -97 -82 -61 -43 -17 16 -16 27 vhcurveto
          hintmask 11011000
          53 30 52 25 47 hhcurveto
          64 40 -51 -55 -64 -56 -69 -142 hvcurveto
          -1 -6 0 -4 -4 vvcurveto
          -34 14 -1 25 vhcurveto
          hintmask 11100100
          120 61 -68 -72 -66 -51 -71 1 callgsubr
          155 81 99 101 71 -24 57 -103 46 vhcurveto
          endchar
        </CharString>
        <CharString name="threeoldstyle">
          -85 -159 58 259 49 132 136 -55 55 hstemhm
          281 69 -52 71 hintmask 11100100
          95 207 rmoveto
          0 -1 -6 -8 vvcurveto
          -33 14 -2 22 105 63 -50 -79 -74 -58 -56 -104 -40 -24 11 19 -19 vhcurveto
          -21 -5 -12 -13 -19 vvcurveto
          -27 33 -24 70 156 90 86 116 71 -42 65 -73 23 vhcurveto
          hintmask 11101000
          65 27 31 53 50 vvcurveto
          72 -56 71 -108 -92 -77 -60 -43 -17 16 -16 27 vhcurveto
          hintmask 11011000
          55 28 50 26 44 hhcurveto
          61 38 -46 -49 -56 -52 -62 -134 hvcurveto
          endchar
        </CharString>
        <CharString name="threequarters">
          427 -86 -21 97 193 -54 54 25 32 callsubr
          67 -20 hstemhm
          733 59 -59 135 hintmask 1011100101000000
          7 callgsubr
          hintmask 1101100110000000
          -72 callgsubr
          hintmask 1101100101000000
          10 callsubr
          420 -287 -66 callgsubr
          hintmask 1101011101000000
          -16 callgsubr
          hintmask 1101100101000000
          31 callsubr
          hintmask 1101011101000000
          -23 callgsubr
          -478 -498 -79 callsubr
          endchar
        </CharString>
        <CharString name="threesuperior">
          -87 208 32 callsubr
          hstemhm
          289 65 hintmask 10111000
          7 callgsubr
          hintmask 11001000
          -72 callgsubr
          hintmask 10111000
          10 callsubr
          endchar
        </CharString>
        <CharString name="tilde">
          -225 530 -17 callgsubr
          hintmask 10000000
          286 610 -86 callgsubr
          hintmask 01000000
          -100 callsubr
          hintmask 10000000
          -7 callgsubr
        </CharString>
        <CharString name="trademark">
          350 312 -21 22 -21 312 48 4 -20 hstemhm
          207 58 157 52 252 57 hintmask 10101110
          783 552 rmoveto
          34 1 28 8 34 vhcurveto
          hintmask 10011110
          6 -15 -15 2 -8 hhcurveto
          -22 -14 -11 -20 -11 hvcurveto
          -46 -83 -37 -90 -22 -67 -30 85 -27 72 -47 83 rrcurveto
          19 -11 -14 12 -21 hhcurveto
          -13 -10 -2 -4 -16 hvcurveto
          7 -35 2 -26 -33 -158 -1 -42 -26 vvcurveto
          -26 6 -13 29 12 9 42 callgsubr
          153 vlineto
          29 -54 32 -96 39 -94 rrcurveto
          hintmask 01101110
          -15 6 16 -4 12 hhcurveto
          9 8 1 2 5 hvcurveto
          19 61 36 109 41 92 rrcurveto
          -126 -1 -31 -70 vvcurveto
          hintmask 10101110
          -26 6 -13 29 10 16 42 callgsubr
          -652 250 rmoveto
          -19 -1 -12 -4 -23 vvcurveto
          -4 2 -13 2 -6 vhcurveto
          2 24 44 1 35 hhcurveto
          -274 vlineto
          -26 6 -13 29 10 15 3 3 11 vhcurveto
          -13 41 0 39 35 vvcurveto
          192 78 vlineto
          21 8 13 16 7 -2 7 -2 8 hvcurveto
          -3 -28 -41 0 -43 hhcurveto
          endchar
        </CharString>
        <CharString name="two">
          0 61 -42 -21 615 60 hstemhm
          371 75 hintmask 10110000
          95 528 rmoveto
          50 35 61 35 56 hhcurveto
          66 58 -52 -90 -101 -78 -77 -251 -233 hvcurveto
          -1 -4 0 -5 -4 vvcurveto
          -41 29 -6 17 vhcurveto
          hintmask 01110000
          -2 59 71 0 74 hhcurveto
          61 71 3 11 30 hvcurveto
          17 6 8 12 16 vvcurveto
          12 -5 15 -9 16 vhcurveto
          hintmask 10110000
          -25 -68 -51 -3 -134 hhcurveto
          -31 -40 1 1 -17 hvcurveto
          236 199 87 89 139 vvcurveto
          123 -96 60 -95 -99 -99 -62 -50 -17 13 -13 25 -3 vhcurveto
          endchar
        </CharString>
        <CharString name="twooldstyle">
          -29 -2 71 349 57 hstem
          326 73 vstem
          126 61 rmoveto
          193 91 80 113 85 vvcurveto
          72 -60 53 -98 -93 -81 -64 -43 -16 12 -12 24 -3 vhcurveto
          47 29 53 34 42 hhcurveto
          58 41 -35 -50 -107 -182 -94 -112 -75 hvcurveto
          -1 -4 0 -5 -3 vvcurveto
          -39 29 -6 17 vhcurveto
          -1 39 50 -1 55 hhcurveto
          55 58 1 2 52 hvcurveto
          47 2 25 12 31 vvcurveto
          8 -5 18 -7 10 vhcurveto
          -28 -7 -52 -5 -26 -1 rrcurveto
          -3 -51 -135 -5 -28 hhcurveto
          endchar
        </CharString>
        <CharString name="twosuperior">
          -61 222 52 -33 -21 402 51 hstemhm
          289 65 hintmask 10110000
          105 549 -34 callgsubr
          hintmask 01110000
          -21 callsubr
          hintmask 10110000
          -43 callgsubr
          endchar
        </CharString>
        <CharString name="u">
          7 -10 56 422 -20 hstem
          77 65 229 68 vstem
          458 5 rmoveto
          -14 52 -5 37 109 116 4 82 29 vvcurveto
          30 -21 8 -24 -8 -10 24 callgsubr
          6 -75 1 -80 -78 vvcurveto
          -42 0 -46 1 -43 vhcurveto
          -34 -39 -51 -21 -45 hhcurveto
          -53 -42 37 75 hvcurveto
          45 6 147 67 vvcurveto
          37 -14 14 -35 -15 -14 -4 -4 -10 vhcurveto
          14 -49 3 -51 -51 -60 -3 -102 -16 vvcurveto
          -113 69 -28 73 56 60 23 34 43 vhcurveto
          -40 22 -10 24 8 14 2 6 15 vhcurveto
          endchar
        </CharString>
        <CharString name="uacute">
          30 callgsubr
          79 191 -41 68 hintmask 11110100
          387 619 rmoveto
          hintmask 11111000
          -106 callsubr
          71 -614 rmoveto
          -14 52 -5 37 109 116 4 82 29 vvcurveto
          30 -21 8 -24 -8 -10 24 callgsubr
          6 -75 1 -80 -78 vvcurveto
          -42 0 -46 1 -43 vhcurveto
          -34 -39 -51 -21 -45 hhcurveto
          -53 -42 37 75 hvcurveto
          45 6 147 67 vvcurveto
          37 -14 14 -35 -15 -14 -4 -4 -10 vhcurveto
          14 -49 3 -51 -51 -60 -3 -102 -16 vvcurveto
          -113 69 -28 73 56 60 23 34 43 vhcurveto
          -40 22 -10 24 8 14 2 6 15 vhcurveto
          endchar
        </CharString>
        <CharString name="ucircumflex">
          7 -10 56 422 59 152 -20 hstem
          77 65 229 68 vstem
          262 679 -80 callsubr
          -105 callgsubr
          196 -674 rmoveto
          -14 52 -5 37 109 116 4 82 29 vvcurveto
          30 -21 8 -24 -8 -10 24 callgsubr
          6 -75 1 -80 -78 vvcurveto
          -42 0 -46 1 -43 vhcurveto
          -34 -39 -51 -21 -45 hhcurveto
          -53 -42 37 75 hvcurveto
          45 6 147 67 vvcurveto
          37 -14 14 -35 -15 -14 -4 -4 -10 vhcurveto
          14 -49 3 -51 -51 -60 -3 -102 -16 vvcurveto
          -113 69 -28 73 56 60 23 34 43 vhcurveto
          -40 22 -10 24 8 14 2 6 15 vhcurveto
          endchar
        </CharString>
        <CharString name="udieresis">
          7 -10 56 422 -20 73 107 hstemhm
          77 65 -24 16 callsubr
          -28 68 hintmask 11010010
          458 5 rmoveto
          -14 52 -5 37 109 116 4 82 29 vvcurveto
          30 -21 8 -24 -8 -10 24 callgsubr
          6 -75 1 -80 -78 vvcurveto
          -42 0 -46 1 -43 vhcurveto
          -34 -39 -51 -21 -45 hhcurveto
          -53 -42 37 75 hvcurveto
          45 6 147 67 vvcurveto
          37 -14 14 -35 -15 -14 -4 -4 -10 vhcurveto
          14 -49 3 -51 -51 -60 -3 -102 -16 vvcurveto
          -113 69 -28 73 56 60 23 34 43 vhcurveto
          -40 22 -10 24 8 14 2 6 15 vhcurveto
          -111 516 -97 callsubr
          hvcurveto
          hintmask 00101100
          -102 callgsubr
        </CharString>
        <CharString name="ugrave">
          30 callgsubr
          -31 190 70 68 hintmask 11110100
          146 702 rmoveto
          hintmask 11101100
          -103 callsubr
          312 -697 rmoveto
          -14 52 -5 37 109 116 4 82 29 vvcurveto
          30 -21 8 -24 -8 -10 24 callgsubr
          6 -75 1 -80 -78 vvcurveto
          -42 0 -46 1 -43 vhcurveto
          -34 -39 -51 -21 -45 hhcurveto
          -53 -42 37 75 hvcurveto
          45 6 147 67 vvcurveto
          37 -14 14 -35 -15 -14 -4 -4 -10 vhcurveto
          14 -49 3 -51 -51 -60 -3 -102 -16 vvcurveto
          -113 69 -28 73 56 60 23 34 43 vhcurveto
          -40 22 -10 24 8 14 2 6 15 vhcurveto
          endchar
        </CharString>
        <CharString name="underscore">
          -144 -28 callgsubr
          535 -110 -67 callsubr
        </CharString>
        <CharString name="v">
          -72 18 -21 473 -20 hstem
          339 66 vstem
          368 475 rmoveto
          -9 -11 -1 -4 -12 hvcurveto
          2 -10 1 -10 -11 vvcurveto
          -119 -74 -184 -50 -64 vhcurveto
          -30 119 -70 192 -23 17 callsubr
          51 -51 86 -248 29 -144 rrcurveto
          -2 10 8 -1 8 hhcurveto
          28 12 9 30 25 hvcurveto
          71 86 80 228 87 vvcurveto
          27 -13 11 -24 vhcurveto
          endchar
        </CharString>
        <CharString name="w">
          182 18 -21 473 -20 hstem
          593 66 vstem
          622 475 rmoveto
          -9 -11 -1 -4 -12 hvcurveto
          17 callgsubr
          -24 109 -46 154 -32 53 rrcurveto
          1 7 0 38 6 vvcurveto
          26 -15 10 -22 -9 -11 -1 -4 -12 vhcurveto
          17 callgsubr
          -26 119 -61 192 -21 17 callsubr
          46 -51 78 -248 27 -144 -1 callgsubr
          11 28 10 30 9 29 32 -93 31 -112 16 -81 -1 callgsubr
          rrcurveto
          34 88 26 103 46 vvcurveto
          28 -13 11 -24 vhcurveto
          endchar
        </CharString>
        <CharString name="x">
          -78 11 -21 485 -20 hstem
          327 475 rmoveto
          -5 -38 -46 -81 -50 -64 -42 69 -41 62 -17 25 rrcurveto
          18 -14 -13 9 -14 hhcurveto
          -21 -19 -17 -21 -17 hvcurveto
          36 -23 61 -84 56 -92 rrcurveto
          -46 -52 -110 -115 -43 vvcurveto
          -25 31 -9 23 -4 vhcurveto
          12 52 70 98 47 54 48 -79 46 -70 20 -27 rrcurveto
          -18 13 13 -10 14 hhcurveto
          17 21 15 24 18 hvcurveto
          -39 24 -66 92 -59 101 rrcurveto
          59 67 70 90 34 vvcurveto
          26 -33 8 -23 4 vhcurveto
          endchar
        </CharString>
        <CharString name="y">
          -70 -230 -21 721 -20 hstem
          345 66 vstem
          376 475 rmoveto
          -97 callgsubr
          42 callsubr
        </CharString>
        <CharString name="yacute">
          -70 -230 -21 742 -21 26 -21 227 -20 hstemhm
          180 191 -26 66 hintmask 10111000
          346 619 rmoveto
          -106 callsubr
          30 -144 rmoveto
          hintmask 11010100
          -97 callgsubr
          hintmask 10111000
          42 callsubr
        </CharString>
        <CharString name="ydieresis">
          -70 -230 -21 721 -20 71 107 hstemhm
          67 16 callsubr
          -3 66 hintmask 00111000
          296 521 -97 callsubr
          -78 callsubr
          hvcurveto
          -178 hmoveto
          -104 callgsubr
          -78 callsubr
          hvcurveto
          258 -46 rmoveto
          -97 callgsubr
          hintmask 11000100
          42 callsubr
        </CharString>
        <CharString name="yen">
          -3 238 -39 39 71 39 323 -20 24 -20 hstemhm
          51 241 -68 68 136 61 hintmask 01101011
          224 196 rmoveto
          -77 -1 -73 0 vhcurveto
          hintmask 10101101
          -31 11 -18 38 15 12 -83 callsubr
          hintmask 01101101
          -15 49 -3 45 97 vvcurveto
          152 -72 callsubr
          -60 hhcurveto
          -15 71 152 hlineto
          21 6 12 17 0 0 8 -2 7 hvcurveto
          -4 -42 -49 -1 -54 hhcurveto
          73 95 92 162 31 vvcurveto
          32 -22 7 -24 -5 -6 0 -1 -4 vhcurveto
          -3 -50 -91 -176 -62 -82 -58 108 -62 98 -43 63 rrcurveto
          hintmask 10110101
          24 -16 -13 12 -15 hhcurveto
          -26 -19 -19 -21 -13 hvcurveto
          75 -53 77 -142 46 -88 rrcurveto
          -127 hlineto
          -65 callsubr
          4 45 56 1 60 hhcurveto
          10 -71 -147 hlineto
          -65 callsubr
          hintmask 01101011
          4 45 56 1 60 hhcurveto
          endchar
        </CharString>
        <CharString name="yenoldstyle">
          -10 193 -39 39 61 39 293 -20 24 -20 hstemhm
          63 234 -68 68 125 61 hintmask 10101101
          297 236 rmoveto
          8 8 rlineto
          131 hlineto
          21 6 12 17 0 0 8 -2 7 hvcurveto
          -3 -36 -43 -2 -45 hhcurveto
          67 89 79 143 26 vvcurveto
          30 -24 9 -23 -5 -5 0 -1 -4 vhcurveto
          -3 -47 -85 -165 -58 -77 -55 101 -58 92 -40 59 rrcurveto
          hintmask 10110101
          23 -15 -13 11 -14 hhcurveto
          -24 -22 -21 -19 -12 hvcurveto
          44 -34 28 -38 40 -63 23 -36 23 -41 22 -41 rrcurveto
          -113 hlineto
          -65 callsubr
          4 45 36 1 60 hhcurveto
          17 hlineto
          6 -11 rlineto
          -50 -140 vlineto
          -65 callsubr
          hintmask 01101011
          4 45 36 1 60 hhcurveto
          22 hlineto
          -57 -1 -48 0 vhcurveto
          hintmask 10101101
          -29 11 -20 38 14 14 3 5 10 vhcurveto
          hintmask 01101101
          -14 38 -3 55 -1 53 rrcurveto
          139 -72 callsubr
          -62 hhcurveto
          endchar
        </CharString>
        <CharString name="z">
          -57 -6 55 365 57 hstem
          378 451 -85 callsubr
        </CharString>
        <CharString name="zcaron">
          -82 -6 55 365 57 214 -20 hstem
          229 525 -95 callgsubr
          149 -74 -85 callsubr
        </CharString>
        <CharString name="zero">
          -10 59 565 59 hstem
          30 75 323 77 vstem
          267 -10 rmoveto
          145 93 134 207 210 -93 132 -145 -145 -92 -132 -210 -207 92 -134 145 hvcurveto
          161 324 rmoveto
          -147 -63 -118 -99 -109 -52 165 148 139 67 113 95 109 52 -163 -137 vhcurveto
          endchar
        </CharString>
</ttFont>
